G04*
G04 #@! TF.GenerationSoftware,Altium Limited,Altium Designer,21.6.1 (37)*
G04*
G04 Layer_Color=8388736*
%FSLAX23Y23*%
%MOIN*%
G70*
G04*
G04 #@! TF.SameCoordinates,C1C5D9C5-2355-4A3C-9FD6-11C0A888820F*
G04*
G04*
G04 #@! TF.FilePolarity,Negative*
G04*
G01*
G75*
%ADD30R,0.059X0.036*%
%ADD31R,0.160X0.225*%
%ADD32R,0.097X0.157*%
%ADD33R,0.058X0.264*%
%ADD34R,0.055X0.028*%
%ADD35O,0.055X0.028*%
%ADD36R,0.036X0.059*%
%ADD37R,0.047X0.075*%
%ADD38R,0.039X0.036*%
%ADD39R,0.061X0.055*%
%ADD40R,0.047X0.055*%
%ADD41R,0.126X0.146*%
%ADD42C,0.055*%
%ADD43C,0.087*%
%ADD44C,0.067*%
%ADD45O,0.213X0.108*%
%ADD46O,0.068X0.126*%
%ADD47O,0.128X0.068*%
%ADD48O,0.087X0.130*%
%ADD49C,0.032*%
D30*
X243Y592D02*
D03*
Y678D02*
D03*
X1114Y618D02*
D03*
Y705D02*
D03*
X1051Y354D02*
D03*
Y268D02*
D03*
D31*
X690Y267D02*
D03*
X298D02*
D03*
D32*
X1085Y878D02*
D03*
X829D02*
D03*
D33*
X2150Y736D02*
D03*
X1920D02*
D03*
D34*
X364Y771D02*
D03*
D35*
Y721D02*
D03*
Y671D02*
D03*
Y621D02*
D03*
X561Y771D02*
D03*
Y721D02*
D03*
Y671D02*
D03*
Y621D02*
D03*
D36*
X500Y961D02*
D03*
X413D02*
D03*
X142Y957D02*
D03*
X228D02*
D03*
X1587Y283D02*
D03*
X1500D02*
D03*
X1307Y374D02*
D03*
X1394D02*
D03*
D37*
X2724Y610D02*
D03*
X2598D02*
D03*
D38*
X874Y657D02*
D03*
X937D02*
D03*
D39*
X1055Y431D02*
D03*
Y514D02*
D03*
D40*
X1327Y189D02*
D03*
X1406D02*
D03*
D41*
X2563Y811D02*
D03*
X2760D02*
D03*
D42*
X1273Y492D02*
D03*
Y592D02*
D03*
Y692D02*
D03*
Y792D02*
D03*
X1373Y492D02*
D03*
Y592D02*
D03*
Y692D02*
D03*
Y792D02*
D03*
D43*
X3150Y1173D02*
D03*
Y150D02*
D03*
X866Y1173D02*
D03*
Y150D02*
D03*
D44*
X1684Y260D02*
D03*
X2570D02*
D03*
X2670Y989D02*
D03*
Y1245D02*
D03*
X2847Y989D02*
D03*
Y1245D02*
D03*
D45*
X1537Y1102D02*
D03*
Y1258D02*
D03*
X3110Y670D02*
D03*
Y514D02*
D03*
Y826D02*
D03*
Y982D02*
D03*
D46*
X382Y1197D02*
D03*
X283D02*
D03*
X480D02*
D03*
D47*
X2813Y267D02*
D03*
Y367D02*
D03*
D48*
X2525Y1201D02*
D03*
X2325D02*
D03*
X2425D02*
D03*
X2088Y1205D02*
D03*
X1888D02*
D03*
X1988D02*
D03*
D49*
X2007Y795D02*
D03*
X1168Y477D02*
D03*
X1480Y441D02*
D03*
X1316Y924D02*
D03*
X1793Y790D02*
D03*
X789Y1042D02*
D03*
X2433Y597D02*
D03*
X841Y479D02*
D03*
X343Y836D02*
D03*
X598Y824D02*
D03*
M02*
