G04*
G04 #@! TF.GenerationSoftware,Altium Limited,Altium Designer,21.6.1 (37)*
G04*
G04 Layer_Physical_Order=1*
G04 Layer_Color=255*
%FSLAX23Y23*%
%MOIN*%
G70*
G04*
G04 #@! TF.SameCoordinates,C1C5D9C5-2355-4A3C-9FD6-11C0A888820F*
G04*
G04*
G04 #@! TF.FilePolarity,Positive*
G04*
G01*
G75*
%ADD10C,0.015*%
%ADD16C,0.010*%
%ADD18R,0.051X0.028*%
%ADD19R,0.152X0.217*%
%ADD20R,0.089X0.149*%
%ADD21R,0.050X0.256*%
%ADD22R,0.047X0.020*%
%ADD23O,0.047X0.020*%
%ADD24R,0.028X0.051*%
%ADD25R,0.039X0.067*%
%ADD26R,0.031X0.028*%
%ADD27R,0.053X0.047*%
%ADD28R,0.039X0.047*%
%ADD29R,0.118X0.138*%
%ADD50C,0.010*%
%ADD51C,0.020*%
%ADD52C,0.050*%
%ADD53C,0.047*%
%ADD54C,0.079*%
%ADD55C,0.059*%
%ADD56O,0.205X0.100*%
%ADD57O,0.060X0.118*%
%ADD58O,0.120X0.060*%
%ADD59O,0.079X0.122*%
%ADD60C,0.050*%
%ADD61C,0.024*%
%ADD62C,0.040*%
G36*
X2834Y1220D02*
X2784Y1170D01*
X2734D01*
X2684Y1220D01*
X2759Y1270D01*
X2834Y1220D01*
D02*
G37*
G36*
X3287Y39D02*
X44Y39D01*
X39Y44D01*
Y1319D01*
X1457D01*
X1459Y1314D01*
X1450Y1309D01*
X1441Y1302D01*
X1433Y1292D01*
X1430Y1285D01*
X1361D01*
X1352Y1284D01*
X1343Y1280D01*
X1335Y1275D01*
X1145Y1084D01*
X1139Y1085D01*
X1135Y1091D01*
X1127Y1096D01*
X1118Y1098D01*
X1109Y1096D01*
X1102Y1091D01*
X1074D01*
X1066Y1089D01*
X1058Y1085D01*
X1058Y1085D01*
X988Y1014D01*
X983Y1007D01*
X982Y999D01*
X982Y999D01*
Y870D01*
X977Y868D01*
X970Y873D01*
X961Y874D01*
X951Y873D01*
X944Y867D01*
X938Y860D01*
X938Y860D01*
X889Y811D01*
X885Y813D01*
Y964D01*
X773D01*
Y959D01*
X763D01*
X596Y1127D01*
X588Y1133D01*
X579Y1137D01*
X569Y1138D01*
X514D01*
X512Y1143D01*
X515Y1148D01*
X519Y1157D01*
X521Y1168D01*
Y1187D01*
X440D01*
Y1173D01*
X435Y1171D01*
X424Y1182D01*
Y1226D01*
X423Y1237D01*
X418Y1247D01*
X412Y1256D01*
X403Y1262D01*
X393Y1267D01*
X382Y1268D01*
X371Y1267D01*
X361Y1262D01*
X352Y1256D01*
X345Y1247D01*
X341Y1237D01*
X340Y1226D01*
Y1168D01*
X341Y1157D01*
X345Y1147D01*
X352Y1138D01*
X361Y1131D01*
X371Y1127D01*
X375Y1127D01*
X426Y1075D01*
X434Y1069D01*
X443Y1065D01*
X453Y1064D01*
X453Y1064D01*
X554D01*
X722Y896D01*
X729Y890D01*
X738Y886D01*
X748Y885D01*
X773D01*
Y792D01*
X792D01*
Y716D01*
X665Y589D01*
X659Y581D01*
X655Y572D01*
X654Y562D01*
Y387D01*
X602D01*
Y147D01*
X778D01*
Y245D01*
X1014D01*
Y242D01*
X1087D01*
X1089Y242D01*
X1093Y240D01*
X1094Y236D01*
X1098Y228D01*
X1135Y192D01*
X1135Y192D01*
X1140Y184D01*
X1148Y179D01*
X1157Y177D01*
X1167Y179D01*
X1175Y184D01*
X1180Y192D01*
X1182Y201D01*
X1180Y210D01*
X1175Y218D01*
X1167Y223D01*
X1167Y223D01*
X1136Y253D01*
Y593D01*
X1152D01*
Y612D01*
X1228Y689D01*
X1228Y689D01*
X1233Y696D01*
X1235Y705D01*
X1235Y705D01*
Y784D01*
X1240Y785D01*
X1240Y783D01*
X1243Y775D01*
X1249Y768D01*
X1256Y762D01*
X1263Y759D01*
Y792D01*
Y824D01*
X1256Y821D01*
X1249Y816D01*
X1243Y809D01*
X1240Y801D01*
X1240Y799D01*
X1235Y799D01*
Y884D01*
X1307Y956D01*
X1351D01*
X1352Y956D01*
X1358Y951D01*
X1366Y948D01*
X1374Y947D01*
X1383Y948D01*
X1390Y951D01*
X1393Y953D01*
X1398Y950D01*
Y934D01*
X1308Y844D01*
X1303Y837D01*
X1302Y829D01*
X1302Y829D01*
Y817D01*
X1298Y816D01*
X1297Y816D01*
X1290Y821D01*
X1283Y824D01*
Y792D01*
Y759D01*
X1290Y762D01*
X1297Y768D01*
X1298Y767D01*
X1302Y766D01*
Y717D01*
X1298Y716D01*
X1297Y716D01*
X1290Y721D01*
X1283Y724D01*
Y692D01*
Y659D01*
X1290Y662D01*
X1297Y668D01*
X1298Y667D01*
X1302Y666D01*
Y617D01*
X1298Y616D01*
X1297Y616D01*
X1290Y621D01*
X1283Y624D01*
Y592D01*
Y559D01*
X1290Y562D01*
X1297Y568D01*
X1298Y567D01*
X1302Y566D01*
Y520D01*
X1297Y518D01*
X1291Y523D01*
X1282Y526D01*
X1273Y527D01*
X1264Y526D01*
X1255Y523D01*
X1248Y517D01*
X1242Y510D01*
X1238Y501D01*
X1237Y492D01*
X1238Y482D01*
X1242Y474D01*
X1248Y466D01*
X1255Y461D01*
X1264Y457D01*
X1268Y457D01*
X1269Y451D01*
X1264Y448D01*
X1185Y369D01*
X1185Y369D01*
X1180Y362D01*
X1179Y353D01*
X1179Y353D01*
Y281D01*
X1179Y281D01*
X1177Y272D01*
X1179Y262D01*
X1184Y255D01*
X1192Y249D01*
X1201Y248D01*
X1210Y249D01*
X1218Y255D01*
X1223Y262D01*
X1225Y272D01*
X1223Y281D01*
X1223Y281D01*
Y344D01*
X1279Y400D01*
X1283Y398D01*
Y384D01*
X1297D01*
Y412D01*
X1295Y415D01*
X1296Y417D01*
X1299Y419D01*
X1303Y421D01*
X1306Y423D01*
X1321Y436D01*
X1334Y450D01*
X1343Y465D01*
X1345Y466D01*
X1347Y466D01*
X1349Y466D01*
X1355Y461D01*
X1364Y457D01*
X1373Y456D01*
X1382Y457D01*
X1391Y461D01*
X1398Y466D01*
X1404Y474D01*
X1407Y482D01*
X1409Y492D01*
X1407Y501D01*
X1404Y510D01*
X1398Y517D01*
X1391Y523D01*
X1382Y526D01*
X1373Y527D01*
X1364Y526D01*
X1355Y523D01*
X1351Y520D01*
X1346Y522D01*
Y561D01*
X1351Y564D01*
X1355Y561D01*
X1364Y557D01*
X1373Y556D01*
X1382Y557D01*
X1391Y561D01*
X1398Y566D01*
X1400Y569D01*
X1506D01*
X1858Y218D01*
X1866Y213D01*
X1874Y211D01*
X1874Y211D01*
X1968D01*
X1968Y211D01*
X1977Y209D01*
X1987Y211D01*
X1994Y216D01*
X2000Y224D01*
X2001Y233D01*
X2000Y242D01*
X1994Y250D01*
X1987Y256D01*
X1977Y257D01*
X1968Y256D01*
X1968Y256D01*
X1883D01*
X1683Y455D01*
X1686Y460D01*
X1694Y458D01*
X1703Y460D01*
X1711Y465D01*
X1716Y473D01*
X1718Y482D01*
X1716Y491D01*
X1711Y499D01*
X1703Y505D01*
X1694Y506D01*
X1685Y505D01*
X1685Y505D01*
X1684D01*
X1481Y707D01*
X1474Y712D01*
X1466Y714D01*
X1466Y714D01*
X1400D01*
X1398Y717D01*
X1391Y723D01*
X1382Y726D01*
X1373Y727D01*
X1364Y726D01*
X1355Y723D01*
X1351Y720D01*
X1346Y722D01*
Y761D01*
X1351Y764D01*
X1355Y761D01*
X1364Y757D01*
X1373Y756D01*
X1382Y757D01*
X1391Y761D01*
X1398Y766D01*
X1404Y774D01*
X1407Y782D01*
X1409Y792D01*
X1407Y801D01*
X1404Y810D01*
X1398Y817D01*
X1391Y823D01*
X1382Y826D01*
X1373Y827D01*
X1364Y826D01*
X1357Y824D01*
X1354Y828D01*
X1436Y909D01*
X1438Y909D01*
X1441Y909D01*
X1441Y908D01*
X1446Y901D01*
X1698Y648D01*
X1698Y648D01*
X1703Y640D01*
X1711Y635D01*
X1720Y633D01*
X1730Y635D01*
X1738Y640D01*
X1743Y648D01*
X1745Y657D01*
X1743Y667D01*
X1738Y675D01*
X1730Y680D01*
X1730Y680D01*
X1484Y926D01*
Y961D01*
X1484Y961D01*
X1486Y970D01*
X1484Y980D01*
X1479Y988D01*
X1471Y993D01*
X1462Y995D01*
X1452Y993D01*
X1448Y989D01*
X1443Y992D01*
Y1004D01*
X1443Y1004D01*
X1441Y1012D01*
X1436Y1019D01*
X1436Y1019D01*
X1335Y1120D01*
X1335Y1122D01*
X1330Y1130D01*
X1322Y1135D01*
X1313Y1137D01*
X1309Y1136D01*
X1306Y1140D01*
X1377Y1211D01*
X1444D01*
X1450Y1206D01*
X1461Y1200D01*
X1473Y1197D01*
X1485Y1196D01*
X1590D01*
X1598Y1197D01*
X1883Y912D01*
Y736D01*
Y633D01*
X1884Y631D01*
Y596D01*
X1918D01*
X1920Y596D01*
X1926D01*
X2026Y496D01*
X2034Y490D01*
X2043Y487D01*
X2052Y486D01*
X2236D01*
X2248Y481D01*
X2249Y476D01*
X2188Y415D01*
X2183Y408D01*
X2182Y400D01*
X2182Y400D01*
Y291D01*
X2030Y139D01*
X1750D01*
X1675Y214D01*
X1678Y219D01*
X1684Y218D01*
X1695Y220D01*
X1705Y224D01*
X1714Y230D01*
X1720Y239D01*
X1724Y249D01*
X1726Y260D01*
X1724Y271D01*
X1720Y281D01*
X1714Y289D01*
X1705Y296D01*
X1695Y300D01*
X1684Y302D01*
X1673Y300D01*
X1663Y296D01*
X1655Y289D01*
X1648Y281D01*
X1644Y271D01*
X1642Y260D01*
X1643Y254D01*
X1638Y251D01*
X1612Y278D01*
Y321D01*
X1561D01*
Y246D01*
X1581D01*
X1725Y101D01*
X1725Y101D01*
X1733Y97D01*
X1741Y95D01*
X2039D01*
X2039Y95D01*
X2048Y97D01*
X2055Y101D01*
X2219Y266D01*
X2219Y266D01*
X2224Y273D01*
X2226Y281D01*
Y390D01*
X2321Y486D01*
X2551D01*
X2612Y425D01*
X2619Y419D01*
X2628Y415D01*
X2638Y414D01*
X2647Y415D01*
X2656Y419D01*
X2664Y425D01*
X2751Y511D01*
X2757Y519D01*
X2760Y528D01*
X2762Y537D01*
Y592D01*
X2803Y633D01*
X3008D01*
X3014Y626D01*
X3023Y618D01*
X3034Y613D01*
X3046Y609D01*
X3058Y608D01*
X3163D01*
X3175Y609D01*
X3186Y613D01*
X3197Y618D01*
X3207Y626D01*
X3214Y636D01*
X3220Y646D01*
X3224Y658D01*
X3225Y670D01*
X3224Y682D01*
X3220Y694D01*
X3214Y705D01*
X3207Y714D01*
X3197Y722D01*
X3186Y727D01*
X3175Y731D01*
X3163Y732D01*
X3058D01*
X3046Y731D01*
X3034Y727D01*
X3023Y722D01*
X3014Y714D01*
X3008Y707D01*
X2787D01*
X2778Y706D01*
X2769Y702D01*
X2761Y696D01*
X2728Y663D01*
X2701Y689D01*
Y730D01*
X2831D01*
Y839D01*
X2873Y881D01*
X2879Y889D01*
X2882Y898D01*
X2884Y907D01*
Y968D01*
X2888Y978D01*
X2889Y989D01*
X2888Y1000D01*
X2884Y1010D01*
X2877Y1019D01*
X2868Y1025D01*
X2858Y1029D01*
X2847Y1031D01*
X2837Y1029D01*
X2827Y1025D01*
X2818Y1019D01*
X2811Y1010D01*
X2807Y1000D01*
X2806Y989D01*
X2807Y978D01*
X2809Y973D01*
Y923D01*
X2778Y892D01*
X2726D01*
X2724Y896D01*
X2785Y958D01*
X2791Y965D01*
X2795Y974D01*
X2796Y984D01*
Y1165D01*
X2836Y1205D01*
X2837Y1205D01*
X2847Y1203D01*
X2858Y1205D01*
X2868Y1209D01*
X2877Y1216D01*
X2884Y1224D01*
X2888Y1234D01*
X2889Y1245D01*
X2888Y1256D01*
X2884Y1266D01*
X2877Y1275D01*
X2868Y1281D01*
X2858Y1285D01*
X2847Y1287D01*
X2837Y1285D01*
X2829Y1282D01*
X2689D01*
X2681Y1285D01*
X2670Y1287D01*
X2659Y1285D01*
X2649Y1281D01*
X2641Y1275D01*
X2634Y1266D01*
X2630Y1256D01*
X2629Y1245D01*
X2630Y1234D01*
X2634Y1224D01*
X2641Y1216D01*
X2649Y1209D01*
X2659Y1205D01*
X2670Y1203D01*
X2681Y1205D01*
X2682Y1205D01*
X2722Y1165D01*
Y999D01*
X2716Y994D01*
X2711Y995D01*
X2711Y1000D01*
X2706Y1010D01*
X2700Y1019D01*
X2691Y1025D01*
X2681Y1029D01*
X2670Y1031D01*
X2659Y1029D01*
X2649Y1025D01*
X2641Y1019D01*
X2634Y1010D01*
X2630Y1000D01*
X2629Y989D01*
X2630Y978D01*
X2634Y968D01*
X2641Y960D01*
X2649Y953D01*
X2659Y949D01*
X2660Y946D01*
X2661Y944D01*
X2659Y943D01*
X2638Y921D01*
X2632Y914D01*
X2628Y905D01*
X2627Y895D01*
Y892D01*
X2562D01*
Y1143D01*
X2570Y1153D01*
X2575Y1166D01*
X2577Y1179D01*
Y1222D01*
X2575Y1236D01*
X2570Y1248D01*
X2562Y1259D01*
X2551Y1267D01*
X2539Y1272D01*
X2525Y1274D01*
X2512Y1272D01*
X2499Y1267D01*
X2489Y1259D01*
X2480Y1248D01*
X2478Y1242D01*
X2472D01*
X2470Y1248D01*
X2462Y1259D01*
X2451Y1267D01*
X2439Y1272D01*
X2425Y1274D01*
X2412Y1272D01*
X2399Y1267D01*
X2389Y1259D01*
X2380Y1248D01*
X2378Y1242D01*
X2372D01*
X2370Y1248D01*
X2362Y1259D01*
X2351Y1267D01*
X2339Y1272D01*
X2325Y1274D01*
X2312Y1272D01*
X2299Y1267D01*
X2289Y1259D01*
X2280Y1248D01*
X2275Y1236D01*
X2274Y1222D01*
Y1189D01*
X2269Y1187D01*
X2229Y1227D01*
X2221Y1233D01*
X2212Y1237D01*
X2203Y1238D01*
X2138D01*
X2138Y1240D01*
X2133Y1252D01*
X2125Y1263D01*
X2114Y1271D01*
X2102Y1276D01*
X2088Y1278D01*
X2075Y1276D01*
X2062Y1271D01*
X2052Y1263D01*
X2043Y1252D01*
X2041Y1246D01*
X2035D01*
X2033Y1252D01*
X2025Y1263D01*
X2014Y1271D01*
X2002Y1276D01*
X1988Y1278D01*
X1975Y1276D01*
X1962Y1271D01*
X1952Y1263D01*
X1943Y1252D01*
X1941Y1246D01*
X1935D01*
X1933Y1252D01*
X1925Y1263D01*
X1914Y1271D01*
X1902Y1276D01*
X1888Y1278D01*
X1875Y1276D01*
X1862Y1271D01*
X1852Y1263D01*
X1843Y1252D01*
X1838Y1240D01*
X1837Y1226D01*
Y1183D01*
X1838Y1170D01*
X1843Y1157D01*
X1852Y1147D01*
X1862Y1138D01*
X1875Y1133D01*
X1888Y1131D01*
X1902Y1133D01*
X1914Y1138D01*
X1925Y1147D01*
X1933Y1157D01*
X1935Y1164D01*
X1941D01*
X1943Y1157D01*
X1952Y1147D01*
X1962Y1138D01*
X1975Y1133D01*
X1978Y1133D01*
X2219Y892D01*
Y685D01*
X2220Y675D01*
X2224Y666D01*
X2230Y659D01*
X2237Y653D01*
X2246Y649D01*
X2256Y648D01*
X2266Y649D01*
X2274Y653D01*
X2282Y659D01*
X2288Y666D01*
X2292Y675D01*
X2293Y685D01*
Y908D01*
X2292Y917D01*
X2288Y926D01*
X2282Y934D01*
X2089Y1127D01*
X2091Y1132D01*
X2102Y1133D01*
X2114Y1138D01*
X2125Y1147D01*
X2133Y1157D01*
X2136Y1164D01*
X2187D01*
X2212Y1138D01*
X2216Y1130D01*
X2222Y1122D01*
X2267Y1077D01*
X2275Y1071D01*
X2284Y1067D01*
X2294Y1066D01*
X2457D01*
X2466Y1067D01*
X2475Y1071D01*
X2483Y1077D01*
X2483Y1077D01*
X2488Y1075D01*
Y859D01*
X2489Y849D01*
X2492Y842D01*
Y730D01*
X2627D01*
Y674D01*
X2628Y664D01*
X2631Y658D01*
X2627Y654D01*
X2624Y654D01*
X2608D01*
Y620D01*
X2628D01*
Y649D01*
X2628Y652D01*
X2633Y654D01*
X2638Y648D01*
X2687Y598D01*
Y553D01*
X2638Y503D01*
X2592Y549D01*
X2585Y555D01*
X2576Y559D01*
X2566Y560D01*
X2068D01*
X1968Y660D01*
X1960Y665D01*
X1958Y666D01*
Y736D01*
Y927D01*
X1956Y937D01*
X1953Y946D01*
X1947Y953D01*
X1651Y1249D01*
X1652Y1258D01*
X1651Y1270D01*
X1647Y1282D01*
X1641Y1292D01*
X1634Y1302D01*
X1624Y1309D01*
X1616Y1314D01*
X1617Y1319D01*
X3287D01*
Y39D01*
D02*
G37*
G36*
X1289Y1117D02*
X1289Y1113D01*
X1290Y1103D01*
X1296Y1096D01*
X1300Y1093D01*
X1377Y1015D01*
X1375Y1011D01*
X1374Y1011D01*
X1366Y1010D01*
X1358Y1006D01*
X1352Y1001D01*
X1351Y1001D01*
X1298D01*
X1298Y1001D01*
X1289Y999D01*
X1282Y994D01*
X1282Y994D01*
X1197Y909D01*
X1192Y902D01*
X1190Y893D01*
X1190Y893D01*
Y714D01*
X1157Y680D01*
X1152Y682D01*
Y730D01*
X1108D01*
X1052Y787D01*
X1054Y792D01*
X1141D01*
Y895D01*
X1141Y897D01*
X1141Y897D01*
Y976D01*
X1285Y1119D01*
X1289Y1117D01*
D02*
G37*
G36*
X1103Y1042D02*
X1078Y1017D01*
X1072Y1009D01*
X1068Y1000D01*
X1067Y991D01*
Y964D01*
X1029D01*
X1026Y968D01*
Y989D01*
X1083Y1047D01*
X1101D01*
X1103Y1042D01*
D02*
G37*
G36*
X1507Y619D02*
X1506Y614D01*
X1400D01*
X1398Y617D01*
X1391Y623D01*
X1382Y626D01*
X1373Y627D01*
X1364Y626D01*
X1355Y623D01*
X1351Y620D01*
X1346Y622D01*
Y661D01*
X1351Y664D01*
X1355Y661D01*
X1364Y657D01*
X1373Y656D01*
X1382Y657D01*
X1391Y661D01*
X1398Y666D01*
X1400Y669D01*
X1457D01*
X1507Y619D01*
D02*
G37*
G36*
X982Y831D02*
Y803D01*
X982Y803D01*
X983Y795D01*
X988Y787D01*
X1077Y699D01*
Y679D01*
X1148D01*
X1151Y674D01*
X1120Y644D01*
X1077D01*
Y593D01*
X1092D01*
Y552D01*
X1092Y547D01*
X1087Y547D01*
X1065D01*
Y514D01*
Y480D01*
X1092Y480D01*
X1092Y475D01*
Y467D01*
X1017D01*
Y396D01*
X1033D01*
Y380D01*
X1014D01*
Y329D01*
X1089D01*
X1092Y325D01*
Y297D01*
X1089Y293D01*
X1087Y293D01*
X1014D01*
Y290D01*
X778D01*
Y387D01*
X728D01*
Y547D01*
X842Y661D01*
X846Y659D01*
Y632D01*
X902D01*
Y652D01*
X905Y658D01*
X906Y663D01*
X911Y662D01*
Y655D01*
X910Y651D01*
X911Y646D01*
Y634D01*
X921D01*
X923Y632D01*
X930Y631D01*
X938Y632D01*
X940Y634D01*
X963D01*
Y647D01*
X937D01*
Y657D01*
X927D01*
Y681D01*
X912D01*
X911Y681D01*
X907Y683D01*
Y765D01*
X970Y828D01*
X970Y828D01*
X977Y833D01*
X982Y831D01*
D02*
G37*
G36*
X2327Y512D02*
X2334Y516D01*
X2327Y498D01*
X2327Y512D01*
X2273Y483D01*
X2238Y498D01*
X2327Y548D01*
X2327Y512D01*
D02*
G37*
%LPC*%
G36*
X490Y1265D02*
Y1207D01*
X521D01*
Y1226D01*
X519Y1236D01*
X515Y1246D01*
X509Y1254D01*
X500Y1261D01*
X491Y1265D01*
X490Y1265D01*
D02*
G37*
G36*
X470D02*
X470Y1265D01*
X460Y1261D01*
X452Y1254D01*
X445Y1246D01*
X441Y1236D01*
X440Y1226D01*
Y1207D01*
X470D01*
Y1265D01*
D02*
G37*
G36*
X283Y1268D02*
X273Y1267D01*
X262Y1262D01*
X254Y1256D01*
X247Y1247D01*
X243Y1237D01*
X241Y1226D01*
Y1168D01*
X243Y1157D01*
X247Y1147D01*
X254Y1138D01*
X262Y1131D01*
X273Y1127D01*
X283Y1126D01*
X294Y1127D01*
X305Y1131D01*
X313Y1138D01*
X320Y1147D01*
X324Y1157D01*
X326Y1168D01*
Y1226D01*
X324Y1237D01*
X320Y1247D01*
X313Y1256D01*
X305Y1262D01*
X294Y1267D01*
X283Y1268D01*
D02*
G37*
G36*
X3150Y1248D02*
X3135Y1247D01*
X3121Y1243D01*
X3108Y1236D01*
X3096Y1226D01*
X3087Y1215D01*
X3080Y1202D01*
X3076Y1188D01*
X3074Y1173D01*
X3076Y1159D01*
X3080Y1144D01*
X3087Y1131D01*
X3096Y1120D01*
X3108Y1111D01*
X3121Y1104D01*
X3135Y1100D01*
X3150Y1098D01*
X3164Y1100D01*
X3178Y1104D01*
X3191Y1111D01*
X3203Y1120D01*
X3212Y1131D01*
X3219Y1144D01*
X3223Y1159D01*
X3225Y1173D01*
X3223Y1188D01*
X3219Y1202D01*
X3212Y1215D01*
X3203Y1226D01*
X3191Y1236D01*
X3178Y1243D01*
X3164Y1247D01*
X3150Y1248D01*
D02*
G37*
G36*
X866D02*
X851Y1247D01*
X837Y1243D01*
X824Y1236D01*
X813Y1226D01*
X804Y1215D01*
X797Y1202D01*
X792Y1188D01*
X791Y1173D01*
X792Y1159D01*
X797Y1144D01*
X804Y1131D01*
X813Y1120D01*
X824Y1111D01*
X837Y1104D01*
X851Y1100D01*
X866Y1098D01*
X881Y1100D01*
X895Y1104D01*
X908Y1111D01*
X919Y1120D01*
X929Y1131D01*
X936Y1144D01*
X940Y1159D01*
X941Y1173D01*
X940Y1188D01*
X936Y1202D01*
X929Y1215D01*
X919Y1226D01*
X908Y1236D01*
X895Y1243D01*
X881Y1247D01*
X866Y1248D01*
D02*
G37*
G36*
X799Y1062D02*
Y1052D01*
X809D01*
X805Y1058D01*
X799Y1062D01*
D02*
G37*
G36*
X779D02*
X774Y1058D01*
X770Y1052D01*
X779D01*
Y1062D01*
D02*
G37*
G36*
X1590Y1164D02*
X1485D01*
X1473Y1163D01*
X1461Y1159D01*
X1450Y1154D01*
X1441Y1146D01*
X1433Y1136D01*
X1428Y1126D01*
X1424Y1114D01*
X1423Y1102D01*
X1424Y1090D01*
X1428Y1078D01*
X1433Y1067D01*
X1441Y1058D01*
X1450Y1050D01*
X1461Y1045D01*
X1473Y1041D01*
X1485Y1040D01*
X1590D01*
X1602Y1041D01*
X1613Y1045D01*
X1624Y1050D01*
X1634Y1058D01*
X1641Y1067D01*
X1647Y1078D01*
X1651Y1090D01*
X1652Y1102D01*
X1651Y1114D01*
X1647Y1126D01*
X1641Y1136D01*
X1634Y1146D01*
X1624Y1154D01*
X1613Y1159D01*
X1602Y1163D01*
X1590Y1164D01*
D02*
G37*
G36*
X809Y1032D02*
X799D01*
Y1023D01*
X805Y1027D01*
X809Y1032D01*
D02*
G37*
G36*
X779D02*
X770D01*
X774Y1027D01*
X779Y1023D01*
Y1032D01*
D02*
G37*
G36*
X437Y996D02*
X423D01*
Y971D01*
X437D01*
Y996D01*
D02*
G37*
G36*
X403D02*
X390D01*
Y971D01*
X403D01*
Y996D01*
D02*
G37*
G36*
X1326Y944D02*
Y934D01*
X1335D01*
X1332Y940D01*
X1326Y944D01*
D02*
G37*
G36*
X1306D02*
X1300Y940D01*
X1296Y934D01*
X1306D01*
Y944D01*
D02*
G37*
G36*
X3163Y1044D02*
X3058D01*
X3046Y1043D01*
X3034Y1039D01*
X3023Y1034D01*
X3014Y1026D01*
X3006Y1016D01*
X3000Y1006D01*
X2997Y994D01*
X2996Y982D01*
X2997Y970D01*
X3000Y958D01*
X3006Y947D01*
X3014Y938D01*
X3023Y930D01*
X3034Y925D01*
X3046Y921D01*
X3058Y920D01*
X3163D01*
X3175Y921D01*
X3186Y925D01*
X3197Y930D01*
X3207Y938D01*
X3214Y947D01*
X3220Y958D01*
X3224Y970D01*
X3225Y982D01*
X3224Y994D01*
X3220Y1006D01*
X3214Y1016D01*
X3207Y1026D01*
X3197Y1034D01*
X3186Y1039D01*
X3175Y1043D01*
X3163Y1044D01*
D02*
G37*
G36*
X1335Y914D02*
X1326D01*
Y905D01*
X1332Y908D01*
X1335Y914D01*
D02*
G37*
G36*
X1306D02*
X1296D01*
X1300Y908D01*
X1306Y905D01*
Y914D01*
D02*
G37*
G36*
X254Y994D02*
X203D01*
Y919D01*
X254D01*
Y934D01*
X308D01*
X334Y908D01*
X332Y904D01*
X240D01*
X240Y904D01*
X231Y902D01*
X224Y897D01*
X165Y838D01*
X160Y840D01*
Y877D01*
X160Y877D01*
X162Y886D01*
X160Y895D01*
X160Y895D01*
Y919D01*
X167D01*
Y994D01*
X116D01*
Y955D01*
X116Y953D01*
X116Y953D01*
Y931D01*
X115Y929D01*
X115Y929D01*
Y895D01*
X115Y895D01*
X114Y886D01*
X115Y877D01*
X115Y877D01*
Y780D01*
X115Y780D01*
X115Y780D01*
Y673D01*
X115Y673D01*
X115Y673D01*
Y427D01*
X115Y427D01*
X117Y419D01*
X122Y412D01*
X211Y323D01*
Y147D01*
X386D01*
Y387D01*
X211D01*
X211Y387D01*
Y387D01*
X207Y390D01*
X160Y436D01*
Y638D01*
X173Y651D01*
X243D01*
X251Y653D01*
X281D01*
Y704D01*
X206D01*
Y695D01*
X173D01*
X160Y708D01*
Y770D01*
X246Y857D01*
X247Y857D01*
X248Y852D01*
X248Y851D01*
X225Y829D01*
X221Y822D01*
X219Y813D01*
X219Y813D01*
Y787D01*
X219Y787D01*
X221Y779D01*
X225Y772D01*
X291Y706D01*
X291Y706D01*
X299Y701D01*
X307Y699D01*
X307Y699D01*
X364D01*
X365Y699D01*
X378D01*
X387Y701D01*
X394Y706D01*
X398Y713D01*
X400Y713D01*
X403Y715D01*
X419Y699D01*
X417Y694D01*
X364D01*
X364Y694D01*
X351D01*
X342Y692D01*
X335Y687D01*
X330Y680D01*
X328Y671D01*
X330Y663D01*
X335Y656D01*
X342Y651D01*
X351Y649D01*
X364D01*
X364Y649D01*
X426D01*
X444Y631D01*
X444Y631D01*
X450Y623D01*
X457Y618D01*
X467Y616D01*
X471Y617D01*
X473Y613D01*
X470Y609D01*
X400D01*
X398Y611D01*
X331D01*
X329Y609D01*
X281D01*
Y617D01*
X206D01*
Y566D01*
X235D01*
X243Y564D01*
X479D01*
X479Y564D01*
X488Y566D01*
X495Y571D01*
X521Y596D01*
X521Y596D01*
X525Y604D01*
X526Y606D01*
X531Y607D01*
X532Y606D01*
X539Y601D01*
X547Y599D01*
X554D01*
X554Y599D01*
X563Y598D01*
X619D01*
X622Y596D01*
X631Y594D01*
X640Y596D01*
X648Y601D01*
X653Y609D01*
X655Y618D01*
X653Y627D01*
X648Y635D01*
X640Y640D01*
X631Y642D01*
X630Y642D01*
X629Y642D01*
X583D01*
X575Y644D01*
X547D01*
X539Y642D01*
X532Y637D01*
X527Y638D01*
X527Y638D01*
Y649D01*
X527Y649D01*
X526Y656D01*
X531Y658D01*
X532Y656D01*
X539Y651D01*
X547Y649D01*
X560D01*
X561Y649D01*
X575D01*
X575Y649D01*
X583Y651D01*
X583Y651D01*
X583Y651D01*
X591Y656D01*
X591Y656D01*
X684Y750D01*
X684Y750D01*
X689Y757D01*
X691Y765D01*
Y777D01*
X692Y778D01*
X693Y787D01*
X692Y797D01*
X686Y804D01*
X679Y810D01*
X669Y811D01*
X660Y810D01*
X652Y804D01*
X647Y797D01*
X645Y787D01*
X646Y782D01*
Y775D01*
X600Y728D01*
X596Y730D01*
X595Y730D01*
X591Y737D01*
X583Y742D01*
X575Y744D01*
X562D01*
X561Y744D01*
X561D01*
X560Y744D01*
X563Y749D01*
X575D01*
X583Y751D01*
X591Y756D01*
X595Y763D01*
X597Y771D01*
X595Y780D01*
X591Y787D01*
X583Y792D01*
X575Y794D01*
X557D01*
X470Y881D01*
X462Y886D01*
X455Y887D01*
X422Y920D01*
X424Y925D01*
X437D01*
Y951D01*
X413D01*
X390D01*
Y935D01*
X370D01*
X333Y972D01*
X325Y977D01*
X317Y979D01*
X317Y979D01*
X254D01*
Y994D01*
D02*
G37*
G36*
X2017Y815D02*
Y805D01*
X2026D01*
X2023Y811D01*
X2017Y815D01*
D02*
G37*
G36*
X1997D02*
X1991Y811D01*
X1987Y805D01*
X1997D01*
Y815D01*
D02*
G37*
G36*
X1803Y810D02*
Y800D01*
X1813D01*
X1809Y806D01*
X1803Y810D01*
D02*
G37*
G36*
X1783D02*
X1778Y806D01*
X1774Y800D01*
X1783D01*
Y810D01*
D02*
G37*
G36*
X496Y998D02*
X494Y998D01*
X474D01*
Y978D01*
X474Y976D01*
X474Y974D01*
Y923D01*
X494D01*
X562Y855D01*
X564Y852D01*
X576Y840D01*
Y833D01*
X576Y833D01*
X574Y824D01*
X576Y815D01*
X581Y807D01*
X589Y802D01*
X598Y800D01*
X608Y802D01*
X615Y807D01*
X621Y815D01*
X623Y824D01*
X621Y833D01*
X621Y833D01*
Y849D01*
X619Y858D01*
X614Y865D01*
X614Y865D01*
X597Y882D01*
X595Y885D01*
X595Y885D01*
X526Y955D01*
Y998D01*
X498D01*
X496Y998D01*
D02*
G37*
G36*
X2026Y785D02*
X2017D01*
Y776D01*
X2023Y780D01*
X2026Y785D01*
D02*
G37*
G36*
X1997D02*
X1987D01*
X1991Y780D01*
X1997Y776D01*
Y785D01*
D02*
G37*
G36*
X1813Y780D02*
X1803D01*
Y771D01*
X1809Y775D01*
X1813Y780D01*
D02*
G37*
G36*
X1783D02*
X1774D01*
X1778Y775D01*
X1783Y771D01*
Y780D01*
D02*
G37*
G36*
X3163Y888D02*
X3058D01*
X3046Y887D01*
X3034Y883D01*
X3023Y878D01*
X3014Y870D01*
X3006Y860D01*
X3000Y850D01*
X2997Y838D01*
X2996Y826D01*
X2997Y814D01*
X3000Y802D01*
X3006Y791D01*
X3014Y782D01*
X3023Y774D01*
X3034Y769D01*
X3046Y765D01*
X3058Y764D01*
X3163D01*
X3175Y765D01*
X3186Y769D01*
X3197Y774D01*
X3207Y782D01*
X3214Y791D01*
X3220Y802D01*
X3224Y814D01*
X3225Y826D01*
X3224Y838D01*
X3220Y850D01*
X3214Y860D01*
X3207Y870D01*
X3197Y878D01*
X3186Y883D01*
X3175Y887D01*
X3163Y888D01*
D02*
G37*
G36*
X2185Y874D02*
X2160D01*
Y746D01*
X2185D01*
Y874D01*
D02*
G37*
G36*
X2140D02*
X2115D01*
Y746D01*
X2140D01*
Y874D01*
D02*
G37*
G36*
X1263Y724D02*
X1256Y721D01*
X1249Y716D01*
X1243Y709D01*
X1241Y702D01*
X1263D01*
Y724D01*
D02*
G37*
G36*
Y682D02*
X1241D01*
X1243Y675D01*
X1249Y668D01*
X1256Y662D01*
X1263Y659D01*
Y682D01*
D02*
G37*
G36*
X378Y642D02*
X374D01*
Y631D01*
X395D01*
X392Y636D01*
X386Y640D01*
X378Y642D01*
D02*
G37*
G36*
X354D02*
X351D01*
X343Y640D01*
X336Y636D01*
X333Y631D01*
X354D01*
Y642D01*
D02*
G37*
G36*
X2588Y654D02*
X2569D01*
Y620D01*
X2588D01*
Y654D01*
D02*
G37*
G36*
X2443Y617D02*
Y607D01*
X2453D01*
X2449Y613D01*
X2443Y617D01*
D02*
G37*
G36*
X2423D02*
X2417Y613D01*
X2414Y607D01*
X2423D01*
Y617D01*
D02*
G37*
G36*
X1263Y624D02*
X1256Y621D01*
X1249Y616D01*
X1243Y609D01*
X1241Y602D01*
X1263D01*
Y624D01*
D02*
G37*
G36*
X2185Y726D02*
X2160D01*
Y598D01*
X2185D01*
Y726D01*
D02*
G37*
G36*
X2140D02*
X2115D01*
Y598D01*
X2140D01*
Y726D01*
D02*
G37*
G36*
X2453Y587D02*
X2443D01*
Y578D01*
X2449Y582D01*
X2453Y587D01*
D02*
G37*
G36*
X2423D02*
X2414D01*
X2417Y582D01*
X2423Y578D01*
Y587D01*
D02*
G37*
G36*
X2628Y600D02*
X2608D01*
Y567D01*
X2628D01*
Y600D01*
D02*
G37*
G36*
X2588D02*
X2569D01*
Y567D01*
X2588D01*
Y600D01*
D02*
G37*
G36*
X1263Y582D02*
X1241D01*
X1243Y575D01*
X1249Y568D01*
X1256Y562D01*
X1263Y559D01*
Y582D01*
D02*
G37*
G36*
X1178Y497D02*
Y487D01*
X1188D01*
X1184Y493D01*
X1178Y497D01*
D02*
G37*
G36*
X1158D02*
X1153Y493D01*
X1149Y487D01*
X1158D01*
Y497D01*
D02*
G37*
G36*
X1188Y467D02*
X1178D01*
Y458D01*
X1184Y462D01*
X1188Y467D01*
D02*
G37*
G36*
X1158D02*
X1149D01*
X1153Y462D01*
X1158Y458D01*
Y467D01*
D02*
G37*
G36*
X3163Y576D02*
X3058D01*
X3046Y575D01*
X3034Y572D01*
X3023Y566D01*
X3014Y558D01*
X3008Y551D01*
X2836D01*
X2826Y550D01*
X2817Y546D01*
X2809Y540D01*
X2660Y391D01*
X2654Y383D01*
X2650Y374D01*
X2649Y365D01*
Y342D01*
X2650Y332D01*
X2654Y323D01*
X2660Y315D01*
X2667Y309D01*
X2676Y306D01*
X2686Y304D01*
X2696Y306D01*
X2705Y309D01*
X2712Y315D01*
X2718Y323D01*
X2722Y332D01*
X2723Y342D01*
Y349D01*
X2738Y364D01*
X2743Y362D01*
X2744Y357D01*
X2748Y347D01*
X2754Y339D01*
X2763Y332D01*
X2773Y328D01*
X2783Y327D01*
X2803D01*
Y367D01*
Y408D01*
X2788D01*
X2786Y413D01*
X2851Y477D01*
X3008D01*
X3014Y470D01*
X3023Y463D01*
X3034Y457D01*
X3046Y453D01*
X3058Y452D01*
X3163D01*
X3175Y453D01*
X3186Y457D01*
X3197Y463D01*
X3207Y470D01*
X3214Y480D01*
X3220Y490D01*
X3224Y502D01*
X3225Y514D01*
X3224Y526D01*
X3220Y538D01*
X3214Y549D01*
X3207Y558D01*
X3197Y566D01*
X3186Y572D01*
X3175Y575D01*
X3163Y576D01*
D02*
G37*
G36*
X1490Y460D02*
Y451D01*
X1500D01*
X1496Y457D01*
X1490Y460D01*
D02*
G37*
G36*
X1470D02*
X1465Y457D01*
X1461Y451D01*
X1470D01*
Y460D01*
D02*
G37*
G36*
X1500Y431D02*
X1490D01*
Y421D01*
X1496Y425D01*
X1500Y431D01*
D02*
G37*
G36*
X1470D02*
X1461D01*
X1465Y425D01*
X1470Y421D01*
Y431D01*
D02*
G37*
G36*
X1331Y410D02*
X1317D01*
Y384D01*
X1331D01*
Y410D01*
D02*
G37*
G36*
X2843Y408D02*
X2823D01*
Y377D01*
X2882D01*
X2882Y378D01*
X2878Y387D01*
X2872Y396D01*
X2863Y402D01*
X2853Y406D01*
X2843Y408D01*
D02*
G37*
G36*
X1419Y411D02*
X1368D01*
Y376D01*
X1335Y344D01*
X1331Y346D01*
Y364D01*
X1317D01*
Y338D01*
X1324D01*
X1325Y334D01*
X1318Y326D01*
X1292D01*
X1292Y326D01*
X1282Y328D01*
X1273Y326D01*
X1265Y321D01*
X1260Y313D01*
X1258Y304D01*
X1260Y295D01*
X1265Y287D01*
X1273Y282D01*
X1282Y280D01*
X1292Y282D01*
X1292Y282D01*
X1327D01*
X1327Y282D01*
X1336Y284D01*
X1343Y288D01*
X1367Y312D01*
X1371Y310D01*
Y205D01*
X1371Y205D01*
X1373Y196D01*
X1374Y195D01*
Y154D01*
X1437D01*
Y193D01*
X1490Y246D01*
X1496D01*
X1496Y246D01*
X1498Y246D01*
X1526D01*
Y321D01*
X1474D01*
Y289D01*
X1472Y288D01*
X1465Y284D01*
X1421Y239D01*
X1416Y241D01*
Y337D01*
X1419D01*
Y411D01*
D02*
G37*
G36*
X1297Y364D02*
X1283D01*
Y338D01*
X1297D01*
Y364D01*
D02*
G37*
G36*
X2882Y357D02*
X2823D01*
Y327D01*
X2843D01*
X2853Y328D01*
X2863Y332D01*
X2872Y339D01*
X2878Y347D01*
X2882Y357D01*
X2882Y357D01*
D02*
G37*
G36*
X2843Y309D02*
X2783D01*
X2772Y308D01*
X2762Y304D01*
X2753Y297D01*
X2746Y288D01*
X2742Y278D01*
X2741Y267D01*
X2742Y256D01*
X2746Y246D01*
X2753Y237D01*
X2762Y231D01*
X2772Y226D01*
X2783Y225D01*
X2843D01*
X2854Y226D01*
X2864Y231D01*
X2873Y237D01*
X2880Y246D01*
X2884Y256D01*
X2885Y267D01*
X2884Y278D01*
X2880Y288D01*
X2873Y297D01*
X2864Y304D01*
X2854Y308D01*
X2843Y309D01*
D02*
G37*
G36*
X2570Y302D02*
X2559Y300D01*
X2549Y296D01*
X2540Y289D01*
X2534Y281D01*
X2530Y271D01*
X2528Y260D01*
X2530Y249D01*
X2534Y239D01*
X2540Y230D01*
X2549Y224D01*
X2559Y220D01*
X2570Y218D01*
X2581Y220D01*
X2591Y224D01*
X2599Y230D01*
X2606Y239D01*
X2610Y249D01*
X2612Y260D01*
X2610Y271D01*
X2606Y281D01*
X2599Y289D01*
X2591Y296D01*
X2581Y300D01*
X2570Y302D01*
D02*
G37*
G36*
X1356Y223D02*
X1337D01*
Y199D01*
X1356D01*
Y223D01*
D02*
G37*
G36*
X1317D02*
X1297D01*
Y199D01*
X1317D01*
Y223D01*
D02*
G37*
G36*
X1356Y179D02*
X1337D01*
Y155D01*
X1356D01*
Y179D01*
D02*
G37*
G36*
X1317D02*
X1297D01*
Y155D01*
X1317D01*
Y179D01*
D02*
G37*
G36*
X3150Y225D02*
X3135Y224D01*
X3121Y219D01*
X3108Y212D01*
X3096Y203D01*
X3087Y192D01*
X3080Y179D01*
X3076Y164D01*
X3074Y150D01*
X3076Y135D01*
X3080Y121D01*
X3087Y108D01*
X3096Y97D01*
X3108Y87D01*
X3121Y80D01*
X3135Y76D01*
X3150Y75D01*
X3164Y76D01*
X3178Y80D01*
X3191Y87D01*
X3203Y97D01*
X3212Y108D01*
X3219Y121D01*
X3223Y135D01*
X3225Y150D01*
X3223Y164D01*
X3219Y179D01*
X3212Y192D01*
X3203Y203D01*
X3191Y212D01*
X3178Y219D01*
X3164Y224D01*
X3150Y225D01*
D02*
G37*
G36*
X866Y225D02*
X851Y223D01*
X837Y219D01*
X824Y212D01*
X813Y203D01*
X804Y191D01*
X797Y178D01*
X792Y164D01*
X791Y150D01*
X792Y135D01*
X797Y121D01*
X804Y108D01*
X813Y96D01*
X824Y87D01*
X837Y80D01*
X851Y76D01*
X866Y74D01*
X881Y76D01*
X895Y80D01*
X908Y87D01*
X919Y96D01*
X929Y108D01*
X936Y121D01*
X940Y135D01*
X941Y150D01*
X940Y164D01*
X936Y178D01*
X929Y191D01*
X919Y203D01*
X908Y212D01*
X895Y219D01*
X881Y223D01*
X866Y225D01*
D02*
G37*
%LPD*%
G36*
X466Y756D02*
X466Y756D01*
X473Y751D01*
X481Y749D01*
X481Y749D01*
X489D01*
X532Y706D01*
X532Y706D01*
X539Y701D01*
X539Y701D01*
X539Y701D01*
X548Y699D01*
X548Y699D01*
X559D01*
X562Y695D01*
X562Y694D01*
X562Y694D01*
X561D01*
X560Y694D01*
X547D01*
X539Y692D01*
X532Y687D01*
X527Y680D01*
X525Y671D01*
X527Y665D01*
X522Y663D01*
X521Y665D01*
X521Y665D01*
X457Y728D01*
X450Y733D01*
X447Y734D01*
X400Y781D01*
Y793D01*
X381D01*
X378Y794D01*
X378Y794D01*
X364D01*
X361Y793D01*
X329D01*
Y750D01*
X361D01*
X364Y749D01*
X365D01*
X365Y749D01*
X365Y748D01*
X362Y744D01*
X316D01*
X263Y797D01*
Y804D01*
X273Y813D01*
X333D01*
X333Y813D01*
X343Y812D01*
X352Y813D01*
X360Y819D01*
X365Y826D01*
X367Y836D01*
X365Y845D01*
X360Y852D01*
X360Y854D01*
X361Y858D01*
X364Y858D01*
X466Y756D01*
D02*
G37*
G36*
X151Y700D02*
X168Y683D01*
Y663D01*
X148Y643D01*
X128Y653D01*
Y673D01*
X128Y673D01*
X128Y673D01*
Y693D01*
X148Y703D01*
X148Y703D01*
X151Y700D01*
D02*
G37*
%LPC*%
G36*
X947Y681D02*
Y667D01*
X963D01*
Y681D01*
X947D01*
D02*
G37*
G36*
X1045Y547D02*
X1019D01*
Y524D01*
X1045D01*
Y547D01*
D02*
G37*
G36*
X851Y499D02*
Y489D01*
X860D01*
X856Y495D01*
X851Y499D01*
D02*
G37*
G36*
X831D02*
X825Y495D01*
X821Y489D01*
X831D01*
Y499D01*
D02*
G37*
G36*
X1045Y504D02*
X1019D01*
Y480D01*
X1045D01*
Y504D01*
D02*
G37*
G36*
X860Y469D02*
X851D01*
Y460D01*
X856Y464D01*
X860Y469D01*
D02*
G37*
G36*
X831D02*
X821D01*
X825Y464D01*
X831Y460D01*
Y469D01*
D02*
G37*
%LPD*%
D10*
X1039Y510D02*
X1049Y520D01*
X930Y651D02*
X937Y657D01*
X1049Y520D02*
X1055Y514D01*
D16*
X1385Y362D02*
X1394D01*
X1279Y432D02*
X1288Y437D01*
X1313Y1111D02*
Y1113D01*
X1587Y272D02*
Y283D01*
X1113Y1069D02*
X1118Y1074D01*
X561Y621D02*
X563Y620D01*
X629D02*
X631Y618D01*
X547Y771D02*
X561D01*
X446Y865D02*
X454D01*
X1102Y705D02*
X1114D01*
X874Y657D02*
X876D01*
X885Y666D01*
D18*
X243Y592D02*
D03*
Y678D02*
D03*
X1114Y618D02*
D03*
Y705D02*
D03*
X1051Y354D02*
D03*
Y268D02*
D03*
D19*
X690Y267D02*
D03*
X298D02*
D03*
D20*
X1085Y878D02*
D03*
X829D02*
D03*
D21*
X2150Y736D02*
D03*
X1920D02*
D03*
D22*
X364Y771D02*
D03*
D23*
Y721D02*
D03*
Y671D02*
D03*
Y621D02*
D03*
X561Y771D02*
D03*
Y721D02*
D03*
Y671D02*
D03*
Y621D02*
D03*
D24*
X500Y961D02*
D03*
X413D02*
D03*
X142Y957D02*
D03*
X228D02*
D03*
X1587Y283D02*
D03*
X1500D02*
D03*
X1307Y374D02*
D03*
X1394D02*
D03*
D25*
X2724Y610D02*
D03*
X2598D02*
D03*
D26*
X874Y657D02*
D03*
X937D02*
D03*
D27*
X1055Y431D02*
D03*
Y514D02*
D03*
D28*
X1327Y189D02*
D03*
X1406D02*
D03*
D29*
X2563Y811D02*
D03*
X2760D02*
D03*
D50*
X1279Y432D02*
D03*
D51*
X1288Y437D02*
G03*
X1324Y476I-54J86D01*
G01*
X138Y780D02*
Y886D01*
Y673D02*
Y780D01*
X138Y673D02*
X243D01*
X138Y886D02*
Y929D01*
Y780D02*
X240Y881D01*
X372D02*
X481Y771D01*
X138Y929D02*
X138Y930D01*
Y953D01*
X142Y957D01*
X240Y881D02*
X372D01*
X1394Y205D02*
X1406Y193D01*
X1394Y205D02*
Y362D01*
X1327Y304D02*
X1385Y362D01*
X1282Y304D02*
X1327D01*
X138Y673D02*
X138Y673D01*
X138Y427D02*
Y673D01*
Y427D02*
X298Y267D01*
X243Y587D02*
X479D01*
X505Y612D01*
Y649D01*
X437Y713D02*
X442D01*
X378Y771D02*
X437Y713D01*
X364Y771D02*
X378D01*
X442Y713D02*
X505Y649D01*
X435Y671D02*
X467Y640D01*
X364Y671D02*
X435D01*
X481Y771D02*
X498D01*
X1201Y272D02*
Y353D01*
X1298Y979D02*
X1374D01*
X1004Y803D02*
X1102Y705D01*
X1004Y803D02*
Y999D01*
X1074Y1069D01*
X1201Y353D02*
X1279Y432D01*
X1324Y476D02*
Y829D01*
X1420Y925D02*
Y1004D01*
X1324Y829D02*
X1420Y925D01*
X1313Y1111D02*
X1420Y1004D01*
X1462Y916D02*
Y970D01*
Y916D02*
X1720Y657D01*
X317Y957D02*
X360Y913D01*
X398D02*
X446Y865D01*
X360Y913D02*
X398D01*
X228Y957D02*
X317D01*
X307Y721D02*
X364D01*
X241Y787D02*
X307Y721D01*
X241Y787D02*
Y813D01*
X264Y836D01*
X343D01*
X496Y976D02*
X500Y972D01*
Y961D02*
Y972D01*
X598Y824D02*
Y849D01*
X580Y868D02*
X598Y849D01*
X580Y868D02*
Y869D01*
X500Y949D02*
X580Y869D01*
X500Y949D02*
Y961D01*
X691Y268D02*
X1051D01*
X690Y267D02*
X691Y268D01*
X1675Y482D02*
X1694D01*
X1466Y692D02*
X1675Y482D01*
X1587Y272D02*
X1741Y117D01*
X2039D01*
X2204Y281D01*
X1874Y233D02*
X1977D01*
X2204Y281D02*
Y400D01*
X2327Y523D01*
X1373Y592D02*
X1516D01*
X1874Y233D01*
X1074Y1069D02*
X1113D01*
X1213Y893D02*
X1298Y979D01*
X1213Y705D02*
Y893D01*
X563Y620D02*
X629D01*
X454Y865D02*
X547Y771D01*
X498D02*
X548Y721D01*
X561D01*
Y671D02*
X575D01*
X669Y765D01*
Y787D01*
X669Y787D01*
X1051Y354D02*
X1051D01*
X1055Y358D01*
Y431D01*
X1051Y354D02*
X1063D01*
X1114Y244D02*
X1157Y201D01*
X1114Y244D02*
Y618D01*
X1126D02*
X1213Y705D01*
X1114Y618D02*
X1126D01*
X885Y666D02*
Y775D01*
X961Y850D01*
X1373Y692D02*
X1466D01*
X1406Y189D02*
Y193D01*
X1480Y268D01*
X1496D01*
X1500Y272D01*
Y283D01*
X1327Y189D02*
Y193D01*
D52*
X2836Y514D02*
X3110D01*
X2686Y365D02*
X2836Y514D01*
X2686Y342D02*
Y365D01*
X2724Y537D02*
Y607D01*
X2638Y451D02*
X2724Y537D01*
X2566Y523D02*
X2638Y451D01*
X2327Y523D02*
X2566D01*
X453Y1101D02*
X569D01*
X809Y922D02*
X829Y903D01*
X569Y1101D02*
X748Y922D01*
X809D01*
X829Y700D02*
Y903D01*
X1085Y878D02*
X1104Y897D01*
Y991D01*
X1361Y1248D01*
X2724Y607D02*
X2787Y670D01*
X1920Y633D02*
X1942D01*
X2787Y670D02*
X3110D01*
X691Y268D02*
Y562D01*
X1590Y1258D02*
X1920Y927D01*
X1537Y1258D02*
X1590D01*
X1920Y736D02*
Y927D01*
Y633D02*
Y736D01*
X2052Y523D02*
X2327D01*
X2724Y607D02*
Y610D01*
X2664Y674D02*
Y895D01*
Y674D02*
X2724Y613D01*
Y610D02*
Y613D01*
X1942Y633D02*
X2052Y523D01*
X2846Y988D02*
X2847Y989D01*
X2846Y907D02*
Y988D01*
X2759Y1245D02*
X2847D01*
X2670D02*
X2759D01*
X2664Y895D02*
X2686Y917D01*
X2692D01*
X2759Y984D01*
Y1245D01*
X2760Y821D02*
X2846Y907D01*
X1361Y1248D02*
X1528D01*
X382Y1171D02*
Y1197D01*
Y1171D02*
X390Y1163D01*
X391D01*
X453Y1101D01*
X2760Y811D02*
Y821D01*
X691Y562D02*
X829Y700D01*
X2256Y685D02*
Y908D01*
X1988Y1175D02*
X2256Y908D01*
X1988Y1175D02*
Y1205D01*
X2760Y811D02*
X2794Y845D01*
X2525Y1171D02*
Y1201D01*
Y859D02*
Y1171D01*
Y859D02*
X2563Y821D01*
Y811D02*
Y821D01*
X2248Y1148D02*
Y1155D01*
X2203Y1201D02*
X2248Y1155D01*
X2457Y1103D02*
X2525Y1171D01*
X2092Y1201D02*
X2203D01*
X2294Y1103D02*
X2457D01*
X2088Y1205D02*
X2092Y1201D01*
X2248Y1148D02*
X2294Y1103D01*
D53*
X1273Y492D02*
D03*
Y592D02*
D03*
Y692D02*
D03*
Y792D02*
D03*
X1373Y492D02*
D03*
Y592D02*
D03*
Y692D02*
D03*
Y792D02*
D03*
D54*
X3150Y1173D02*
D03*
Y150D02*
D03*
X866Y1173D02*
D03*
Y150D02*
D03*
D55*
X1684Y260D02*
D03*
X2570D02*
D03*
X2670Y989D02*
D03*
Y1245D02*
D03*
X2847Y989D02*
D03*
Y1245D02*
D03*
D56*
X1537Y1102D02*
D03*
Y1258D02*
D03*
X3110Y670D02*
D03*
Y514D02*
D03*
Y826D02*
D03*
Y982D02*
D03*
D57*
X382Y1197D02*
D03*
X283D02*
D03*
X480D02*
D03*
D58*
X2813Y267D02*
D03*
Y367D02*
D03*
D59*
X2525Y1201D02*
D03*
X2325D02*
D03*
X2425D02*
D03*
X2088Y1205D02*
D03*
X1888D02*
D03*
X1988D02*
D03*
D60*
X2686Y342D02*
D03*
X2638Y451D02*
D03*
X2256Y685D02*
D03*
D61*
X467Y640D02*
D03*
X2007Y795D02*
D03*
X1168Y477D02*
D03*
X1480Y441D02*
D03*
X1316Y924D02*
D03*
X1793Y790D02*
D03*
X789Y1042D02*
D03*
X2433Y597D02*
D03*
X841Y479D02*
D03*
X1201Y272D02*
D03*
X1462Y970D02*
D03*
X343Y836D02*
D03*
X598Y824D02*
D03*
X1694Y482D02*
D03*
X1977Y233D02*
D03*
X1118Y1074D02*
D03*
X1282Y304D02*
D03*
X631Y618D02*
D03*
X138Y886D02*
D03*
X669Y787D02*
D03*
X1313Y1113D02*
D03*
X1157Y201D02*
D03*
X1720Y657D02*
D03*
X961Y850D02*
D03*
D62*
X1374Y979D02*
D03*
M02*
