G04*
G04 #@! TF.GenerationSoftware,Altium Limited,Altium Designer,21.6.1 (37)*
G04*
G04 Layer_Color=65535*
%FSLAX23Y23*%
%MOIN*%
G70*
G04*
G04 #@! TF.SameCoordinates,C1C5D9C5-2355-4A3C-9FD6-11C0A888820F*
G04*
G04*
G04 #@! TF.FilePolarity,Positive*
G04*
G01*
G75*
%ADD10C,0.015*%
%ADD11C,0.004*%
%ADD12C,0.008*%
%ADD13C,0.012*%
%ADD14C,0.004*%
%ADD15C,0.003*%
%ADD16C,0.010*%
%ADD17R,0.048X0.256*%
G36*
X2185Y1291D02*
X1791D01*
Y1323D01*
X2185D01*
Y1291D01*
D02*
G37*
G36*
X2622Y1287D02*
X2228D01*
Y1319D01*
X2622D01*
Y1287D01*
D02*
G37*
G36*
X579Y1276D02*
X500D01*
Y1305D01*
X461D01*
Y1276D01*
X421D01*
Y1305D01*
X343D01*
Y1276D01*
X303D01*
Y1305D01*
X264D01*
Y1276D01*
X185D01*
Y1335D01*
X579D01*
Y1276D01*
D02*
G37*
G36*
X1077Y1302D02*
X1078D01*
Y1302D01*
X1079D01*
Y1302D01*
X1081D01*
Y1301D01*
X1082D01*
Y1301D01*
X1082D01*
Y1300D01*
X1084D01*
Y1300D01*
X1084D01*
Y1300D01*
X1085D01*
Y1299D01*
X1086D01*
Y1299D01*
X1086D01*
Y1298D01*
X1087D01*
Y1298D01*
X1087D01*
Y1297D01*
X1088D01*
Y1297D01*
X1089D01*
Y1297D01*
X1089D01*
Y1296D01*
X1090D01*
Y1296D01*
X1090D01*
Y1295D01*
X1091D01*
Y1295D01*
X1091D01*
Y1295D01*
X1092D01*
Y1294D01*
X1092D01*
Y1294D01*
X1092D01*
Y1293D01*
X1093D01*
Y1293D01*
X1093D01*
Y1292D01*
X1094D01*
Y1292D01*
X1094D01*
Y1292D01*
X1094D01*
Y1291D01*
X1095D01*
Y1291D01*
Y1290D01*
X1096D01*
Y1290D01*
Y1290D01*
Y1289D01*
X1097D01*
Y1289D01*
Y1288D01*
X1097D01*
Y1288D01*
Y1287D01*
X1098D01*
Y1287D01*
Y1287D01*
Y1286D01*
X1098D01*
Y1286D01*
X1099D01*
Y1285D01*
Y1285D01*
X1099D01*
Y1285D01*
Y1284D01*
X1099D01*
Y1284D01*
Y1283D01*
X1100D01*
Y1283D01*
Y1283D01*
Y1282D01*
X1100D01*
Y1282D01*
Y1281D01*
Y1281D01*
X1101D01*
Y1280D01*
Y1280D01*
Y1280D01*
Y1279D01*
X1101D01*
Y1279D01*
Y1278D01*
X1101D01*
Y1278D01*
Y1278D01*
Y1277D01*
X1102D01*
Y1277D01*
Y1276D01*
Y1276D01*
Y1275D01*
Y1275D01*
Y1275D01*
Y1274D01*
Y1274D01*
X1102D01*
Y1273D01*
Y1273D01*
Y1273D01*
Y1272D01*
Y1272D01*
Y1271D01*
Y1271D01*
Y1270D01*
X1101D01*
Y1270D01*
X1100D01*
Y1270D01*
X1099D01*
Y1269D01*
X1097D01*
Y1269D01*
X1095D01*
Y1268D01*
X1094D01*
Y1268D01*
X1093D01*
Y1268D01*
X1091D01*
Y1267D01*
X1089D01*
Y1267D01*
X1088D01*
Y1266D01*
X1086D01*
Y1266D01*
X1085D01*
Y1266D01*
X1083D01*
Y1265D01*
X1082D01*
Y1265D01*
X1080D01*
Y1264D01*
Y1264D01*
X1081D01*
Y1263D01*
X1079D01*
Y1263D01*
X1079D01*
Y1263D01*
Y1262D01*
X1079D01*
Y1262D01*
X1078D01*
Y1261D01*
Y1261D01*
Y1261D01*
X1078D01*
Y1260D01*
Y1260D01*
X1077D01*
Y1259D01*
X1077D01*
Y1259D01*
Y1258D01*
Y1258D01*
X1077D01*
Y1258D01*
Y1257D01*
Y1257D01*
X1076D01*
Y1256D01*
Y1256D01*
X1076D01*
Y1256D01*
Y1255D01*
X1075D01*
Y1255D01*
Y1254D01*
X1073D01*
Y1254D01*
X1072D01*
Y1253D01*
X1070D01*
Y1253D01*
X1069D01*
Y1253D01*
X1067D01*
Y1253D01*
X1066D01*
Y1253D01*
X1065D01*
Y1254D01*
X1063D01*
Y1254D01*
X1062D01*
Y1255D01*
X1061D01*
Y1255D01*
Y1256D01*
X1061D01*
Y1256D01*
Y1256D01*
X1060D01*
Y1257D01*
Y1257D01*
X1060D01*
Y1258D01*
Y1258D01*
Y1258D01*
X1060D01*
Y1259D01*
X1059D01*
Y1259D01*
Y1260D01*
Y1260D01*
X1059D01*
Y1261D01*
X1058D01*
Y1261D01*
Y1261D01*
Y1262D01*
Y1262D01*
X1058D01*
Y1263D01*
X1057D01*
Y1263D01*
Y1263D01*
X1056D01*
Y1264D01*
Y1264D01*
Y1265D01*
X1056D01*
Y1265D01*
X1055D01*
Y1266D01*
X1053D01*
Y1266D01*
X1051D01*
Y1266D01*
X1050D01*
Y1267D01*
X1048D01*
Y1267D01*
X1047D01*
Y1268D01*
X1045D01*
Y1268D01*
X1044D01*
Y1268D01*
X1043D01*
Y1269D01*
X1041D01*
Y1269D01*
X1040D01*
Y1270D01*
X1038D01*
Y1270D01*
X1037D01*
Y1270D01*
X1035D01*
Y1271D01*
X1034D01*
Y1271D01*
Y1272D01*
Y1272D01*
X1035D01*
Y1273D01*
Y1273D01*
Y1273D01*
Y1274D01*
Y1274D01*
Y1275D01*
Y1275D01*
Y1275D01*
Y1276D01*
Y1276D01*
X1035D01*
Y1277D01*
Y1277D01*
Y1278D01*
Y1278D01*
X1036D01*
Y1278D01*
Y1279D01*
Y1279D01*
Y1280D01*
X1036D01*
Y1280D01*
Y1280D01*
X1036D01*
Y1281D01*
Y1281D01*
X1037D01*
Y1282D01*
Y1282D01*
Y1283D01*
Y1283D01*
X1037D01*
Y1283D01*
X1038D01*
Y1284D01*
Y1284D01*
Y1285D01*
Y1285D01*
X1038D01*
Y1285D01*
Y1286D01*
X1039D01*
Y1286D01*
Y1287D01*
Y1287D01*
X1040D01*
Y1287D01*
Y1288D01*
Y1288D01*
X1040D01*
Y1289D01*
X1040D01*
Y1289D01*
Y1290D01*
X1041D01*
Y1290D01*
X1041D01*
Y1290D01*
X1042D01*
Y1291D01*
Y1291D01*
X1042D01*
Y1292D01*
X1043D01*
Y1292D01*
X1043D01*
Y1292D01*
Y1293D01*
X1044D01*
Y1293D01*
X1044D01*
Y1294D01*
X1045D01*
Y1294D01*
X1045D01*
Y1295D01*
X1045D01*
Y1295D01*
X1046D01*
Y1295D01*
X1046D01*
Y1296D01*
X1047D01*
Y1296D01*
X1048D01*
Y1297D01*
X1048D01*
Y1297D01*
X1048D01*
Y1297D01*
X1049D01*
Y1298D01*
X1050D01*
Y1298D01*
X1050D01*
Y1299D01*
X1051D01*
Y1299D01*
X1052D01*
Y1300D01*
X1053D01*
Y1300D01*
X1053D01*
Y1300D01*
X1054D01*
Y1301D01*
X1055D01*
Y1301D01*
X1056D01*
Y1302D01*
X1057D01*
Y1302D01*
X1058D01*
Y1302D01*
X1060D01*
Y1303D01*
X1077D01*
Y1302D01*
D02*
G37*
G36*
X1102Y1268D02*
X1102D01*
Y1268D01*
Y1267D01*
X1101D01*
Y1267D01*
Y1266D01*
Y1266D01*
Y1266D01*
X1101D01*
Y1265D01*
Y1265D01*
Y1264D01*
X1101D01*
Y1264D01*
Y1263D01*
Y1263D01*
Y1263D01*
Y1262D01*
X1100D01*
Y1262D01*
Y1261D01*
X1100D01*
Y1261D01*
Y1261D01*
Y1260D01*
X1099D01*
Y1260D01*
Y1259D01*
Y1259D01*
Y1258D01*
X1099D01*
Y1258D01*
Y1258D01*
X1099D01*
Y1257D01*
Y1257D01*
Y1256D01*
Y1256D01*
Y1256D01*
X1098D01*
Y1255D01*
Y1255D01*
X1098D01*
Y1254D01*
Y1254D01*
Y1253D01*
X1097D01*
Y1253D01*
X1098D01*
Y1253D01*
X1097D01*
Y1252D01*
Y1252D01*
Y1251D01*
X1097D01*
Y1251D01*
Y1251D01*
X1097D01*
Y1250D01*
Y1250D01*
Y1249D01*
Y1249D01*
X1096D01*
Y1248D01*
Y1248D01*
Y1248D01*
X1096D01*
Y1247D01*
Y1247D01*
Y1246D01*
Y1246D01*
X1095D01*
Y1246D01*
Y1245D01*
Y1245D01*
X1095D01*
Y1244D01*
Y1244D01*
X1094D01*
Y1244D01*
Y1243D01*
Y1243D01*
Y1242D01*
Y1242D01*
X1094D01*
Y1241D01*
Y1241D01*
X1094D01*
Y1241D01*
Y1240D01*
Y1240D01*
X1093D01*
Y1239D01*
X1094D01*
Y1239D01*
X1093D01*
Y1239D01*
Y1238D01*
X1093D01*
Y1238D01*
Y1237D01*
Y1237D01*
X1092D01*
Y1236D01*
Y1236D01*
Y1236D01*
Y1235D01*
X1092D01*
Y1235D01*
Y1234D01*
Y1234D01*
X1092D01*
Y1234D01*
Y1233D01*
X1091D01*
Y1233D01*
X1090D01*
Y1232D01*
X1090D01*
Y1232D01*
X1089D01*
Y1231D01*
X1089D01*
Y1231D01*
X1088D01*
Y1231D01*
X1087D01*
Y1230D01*
X1087D01*
Y1230D01*
X1086D01*
Y1229D01*
X1086D01*
Y1229D01*
X1085D01*
Y1229D01*
X1084D01*
Y1228D01*
X1084D01*
Y1228D01*
X1084D01*
Y1227D01*
X1083D01*
Y1227D01*
Y1226D01*
X1083D01*
Y1226D01*
X1082D01*
Y1226D01*
X1082D01*
Y1225D01*
X1082D01*
Y1225D01*
X1081D01*
Y1224D01*
Y1224D01*
X1081D01*
Y1224D01*
X1080D01*
Y1223D01*
X1080D01*
Y1223D01*
Y1222D01*
X1079D01*
Y1222D01*
X1079D01*
Y1222D01*
X1079D01*
Y1221D01*
X1078D01*
Y1221D01*
Y1220D01*
X1077D01*
Y1220D01*
X1076D01*
Y1219D01*
X1074D01*
Y1219D01*
X1072D01*
Y1219D01*
X1070D01*
Y1218D01*
X1069D01*
Y1219D01*
Y1219D01*
Y1219D01*
Y1220D01*
Y1220D01*
Y1221D01*
Y1221D01*
Y1222D01*
Y1222D01*
Y1222D01*
Y1223D01*
Y1223D01*
Y1224D01*
Y1224D01*
Y1224D01*
Y1225D01*
Y1225D01*
Y1226D01*
Y1226D01*
Y1226D01*
Y1227D01*
Y1227D01*
Y1228D01*
Y1228D01*
Y1229D01*
Y1229D01*
Y1229D01*
Y1230D01*
Y1230D01*
Y1231D01*
Y1231D01*
Y1231D01*
Y1232D01*
Y1232D01*
Y1233D01*
Y1233D01*
Y1234D01*
Y1234D01*
Y1234D01*
Y1235D01*
Y1235D01*
Y1236D01*
Y1236D01*
Y1236D01*
Y1237D01*
Y1237D01*
Y1238D01*
Y1238D01*
Y1239D01*
Y1239D01*
Y1239D01*
Y1240D01*
Y1240D01*
Y1241D01*
Y1241D01*
Y1241D01*
Y1242D01*
Y1242D01*
Y1243D01*
Y1243D01*
Y1244D01*
Y1244D01*
Y1244D01*
Y1245D01*
Y1245D01*
Y1246D01*
Y1246D01*
Y1246D01*
Y1247D01*
Y1247D01*
Y1248D01*
Y1248D01*
Y1248D01*
Y1249D01*
Y1249D01*
Y1250D01*
Y1250D01*
Y1251D01*
Y1251D01*
Y1251D01*
Y1252D01*
X1069D01*
Y1252D01*
X1072D01*
Y1253D01*
X1072D01*
Y1253D01*
X1074D01*
Y1253D01*
X1076D01*
Y1254D01*
X1077D01*
Y1254D01*
X1079D01*
Y1255D01*
X1080D01*
Y1255D01*
X1081D01*
Y1256D01*
X1083D01*
Y1256D01*
X1084D01*
Y1256D01*
X1087D01*
Y1257D01*
X1087D01*
Y1257D01*
X1089D01*
Y1258D01*
X1090D01*
Y1258D01*
X1092D01*
Y1258D01*
X1093D01*
Y1259D01*
Y1259D01*
Y1260D01*
X1094D01*
Y1260D01*
Y1261D01*
X1094D01*
Y1261D01*
Y1261D01*
X1094D01*
Y1262D01*
X1095D01*
Y1262D01*
Y1263D01*
X1095D01*
Y1263D01*
Y1263D01*
Y1264D01*
X1096D01*
Y1264D01*
X1096D01*
Y1265D01*
Y1265D01*
Y1266D01*
X1097D01*
Y1266D01*
X1097D01*
Y1266D01*
X1097D01*
Y1267D01*
Y1267D01*
X1098D01*
Y1268D01*
X1100D01*
Y1268D01*
X1101D01*
Y1268D01*
X1102D01*
Y1268D01*
D02*
G37*
G36*
X1036Y1268D02*
X1037D01*
Y1268D01*
X1038D01*
Y1268D01*
X1039D01*
Y1267D01*
X1040D01*
Y1267D01*
X1040D01*
Y1266D01*
Y1266D01*
Y1266D01*
X1040D01*
Y1265D01*
Y1265D01*
X1041D01*
Y1264D01*
X1041D01*
Y1264D01*
Y1263D01*
Y1263D01*
X1042D01*
Y1263D01*
X1042D01*
Y1262D01*
Y1262D01*
Y1261D01*
X1043D01*
Y1261D01*
Y1261D01*
X1043D01*
Y1260D01*
X1043D01*
Y1260D01*
Y1259D01*
Y1259D01*
X1044D01*
Y1258D01*
X1046D01*
Y1258D01*
X1047D01*
Y1258D01*
X1049D01*
Y1257D01*
X1050D01*
Y1257D01*
X1051D01*
Y1256D01*
X1053D01*
Y1256D01*
X1054D01*
Y1256D01*
X1056D01*
Y1255D01*
X1057D01*
Y1255D01*
X1058D01*
Y1254D01*
X1060D01*
Y1254D01*
X1061D01*
Y1253D01*
X1063D01*
Y1253D01*
X1064D01*
Y1253D01*
X1065D01*
Y1252D01*
X1067D01*
Y1252D01*
X1068D01*
Y1251D01*
Y1251D01*
Y1251D01*
Y1250D01*
Y1250D01*
Y1249D01*
Y1249D01*
Y1248D01*
Y1248D01*
Y1248D01*
Y1247D01*
Y1247D01*
Y1246D01*
Y1246D01*
Y1246D01*
Y1245D01*
Y1245D01*
Y1244D01*
Y1244D01*
Y1244D01*
Y1243D01*
Y1243D01*
Y1242D01*
Y1242D01*
Y1241D01*
Y1241D01*
Y1241D01*
Y1240D01*
Y1240D01*
Y1239D01*
Y1239D01*
Y1239D01*
Y1238D01*
Y1238D01*
Y1237D01*
Y1237D01*
Y1236D01*
Y1236D01*
Y1236D01*
Y1235D01*
Y1235D01*
Y1234D01*
Y1234D01*
Y1234D01*
Y1233D01*
Y1233D01*
Y1232D01*
Y1232D01*
Y1231D01*
Y1231D01*
Y1231D01*
Y1230D01*
Y1230D01*
Y1229D01*
Y1229D01*
Y1229D01*
Y1228D01*
Y1228D01*
Y1227D01*
Y1227D01*
Y1226D01*
Y1226D01*
Y1226D01*
Y1225D01*
Y1225D01*
Y1224D01*
Y1224D01*
Y1224D01*
Y1223D01*
Y1223D01*
Y1222D01*
Y1222D01*
Y1222D01*
Y1221D01*
Y1221D01*
Y1220D01*
Y1220D01*
Y1219D01*
Y1219D01*
Y1219D01*
X1067D01*
Y1218D01*
Y1218D01*
X1067D01*
Y1218D01*
X1066D01*
Y1219D01*
X1064D01*
Y1219D01*
X1062D01*
Y1219D01*
X1060D01*
Y1220D01*
X1059D01*
Y1220D01*
X1058D01*
Y1221D01*
Y1221D01*
X1057D01*
Y1222D01*
X1057D01*
Y1222D01*
X1057D01*
Y1222D01*
X1056D01*
Y1223D01*
Y1223D01*
X1056D01*
Y1224D01*
X1055D01*
Y1224D01*
X1055D01*
Y1224D01*
Y1225D01*
X1055D01*
Y1225D01*
X1054D01*
Y1226D01*
Y1226D01*
X1053D01*
Y1226D01*
X1053D01*
Y1227D01*
Y1227D01*
X1053D01*
Y1228D01*
X1052D01*
Y1228D01*
Y1229D01*
X1051D01*
Y1229D01*
X1051D01*
Y1229D01*
X1050D01*
Y1230D01*
X1050D01*
Y1230D01*
X1049D01*
Y1231D01*
X1049D01*
Y1231D01*
X1048D01*
Y1231D01*
X1048D01*
Y1232D01*
X1047D01*
Y1232D01*
X1046D01*
Y1233D01*
X1046D01*
Y1233D01*
X1045D01*
Y1234D01*
X1045D01*
Y1234D01*
Y1234D01*
X1044D01*
Y1235D01*
Y1235D01*
X1044D01*
Y1236D01*
X1044D01*
Y1236D01*
X1044D01*
Y1236D01*
Y1237D01*
Y1237D01*
X1043D01*
Y1238D01*
Y1238D01*
Y1239D01*
X1043D01*
Y1239D01*
Y1239D01*
Y1240D01*
Y1240D01*
Y1241D01*
X1043D01*
Y1241D01*
Y1241D01*
X1042D01*
Y1242D01*
Y1242D01*
Y1243D01*
X1042D01*
Y1243D01*
X1042D01*
Y1244D01*
X1042D01*
Y1244D01*
Y1244D01*
Y1245D01*
X1041D01*
Y1245D01*
Y1246D01*
X1041D01*
Y1246D01*
Y1246D01*
Y1247D01*
Y1247D01*
Y1248D01*
X1040D01*
Y1248D01*
Y1248D01*
Y1249D01*
X1040D01*
Y1249D01*
Y1250D01*
Y1250D01*
X1040D01*
Y1251D01*
Y1251D01*
Y1251D01*
Y1252D01*
X1039D01*
Y1252D01*
Y1253D01*
Y1253D01*
X1039D01*
Y1253D01*
Y1254D01*
Y1254D01*
Y1255D01*
Y1255D01*
X1038D01*
Y1256D01*
Y1256D01*
X1038D01*
Y1256D01*
Y1257D01*
Y1257D01*
Y1258D01*
Y1258D01*
X1038D01*
Y1258D01*
Y1259D01*
Y1259D01*
X1037D01*
Y1260D01*
Y1260D01*
X1037D01*
Y1261D01*
Y1261D01*
Y1261D01*
Y1262D01*
Y1262D01*
X1036D01*
Y1263D01*
Y1263D01*
Y1263D01*
X1036D01*
Y1264D01*
Y1264D01*
Y1265D01*
Y1265D01*
X1036D01*
Y1266D01*
Y1266D01*
Y1266D01*
X1035D01*
Y1267D01*
Y1267D01*
Y1268D01*
X1035D01*
Y1268D01*
Y1268D01*
Y1269D01*
X1036D01*
Y1268D01*
D02*
G37*
G36*
X1035Y1266D02*
Y1265D01*
Y1265D01*
X1035D01*
Y1264D01*
X1035D01*
Y1264D01*
X1035D01*
Y1263D01*
Y1263D01*
Y1263D01*
X1036D01*
Y1262D01*
Y1262D01*
X1036D01*
Y1261D01*
Y1261D01*
Y1261D01*
Y1260D01*
Y1260D01*
X1036D01*
Y1259D01*
Y1259D01*
Y1258D01*
X1037D01*
Y1258D01*
Y1258D01*
Y1257D01*
Y1257D01*
X1037D01*
Y1256D01*
Y1256D01*
Y1256D01*
X1038D01*
Y1255D01*
Y1255D01*
Y1254D01*
X1038D01*
Y1254D01*
Y1253D01*
Y1253D01*
Y1253D01*
Y1252D01*
X1038D01*
Y1252D01*
Y1251D01*
X1039D01*
Y1251D01*
Y1251D01*
Y1250D01*
X1039D01*
Y1250D01*
X1039D01*
Y1249D01*
X1039D01*
Y1249D01*
Y1248D01*
Y1248D01*
X1040D01*
Y1248D01*
Y1247D01*
X1040D01*
Y1247D01*
Y1246D01*
Y1246D01*
Y1246D01*
Y1245D01*
X1040D01*
Y1245D01*
Y1244D01*
Y1244D01*
X1041D01*
Y1244D01*
Y1243D01*
Y1243D01*
Y1242D01*
X1041D01*
Y1242D01*
Y1241D01*
Y1241D01*
X1042D01*
Y1241D01*
Y1240D01*
Y1240D01*
X1042D01*
Y1239D01*
Y1239D01*
Y1239D01*
Y1238D01*
Y1238D01*
X1043D01*
Y1237D01*
Y1237D01*
X1043D01*
Y1236D01*
Y1236D01*
Y1236D01*
Y1235D01*
Y1235D01*
X1043D01*
Y1234D01*
Y1234D01*
X1044D01*
Y1234D01*
Y1233D01*
X1044D01*
Y1233D01*
X1045D01*
Y1232D01*
X1045D01*
Y1232D01*
X1046D01*
Y1231D01*
X1046D01*
Y1231D01*
X1047D01*
Y1231D01*
X1048D01*
Y1230D01*
X1048D01*
Y1230D01*
X1049D01*
Y1229D01*
X1049D01*
Y1229D01*
X1050D01*
Y1229D01*
X1050D01*
Y1228D01*
X1051D01*
Y1228D01*
Y1227D01*
X1052D01*
Y1227D01*
X1052D01*
Y1226D01*
X1053D01*
Y1226D01*
Y1226D01*
X1053D01*
Y1225D01*
X1053D01*
Y1225D01*
Y1224D01*
X1054D01*
Y1224D01*
X1055D01*
Y1224D01*
Y1223D01*
Y1223D01*
X1055D01*
Y1222D01*
Y1222D01*
X1056D01*
Y1222D01*
X1056D01*
Y1221D01*
X1057D01*
Y1221D01*
Y1220D01*
X1057D01*
Y1220D01*
X1057D01*
Y1219D01*
X1059D01*
Y1219D01*
X1060D01*
Y1219D01*
X1062D01*
Y1218D01*
X1063D01*
Y1218D01*
X1065D01*
Y1217D01*
X1067D01*
Y1217D01*
X1069D01*
Y1217D01*
X1071D01*
Y1218D01*
X1073D01*
Y1218D01*
X1074D01*
Y1219D01*
X1077D01*
Y1219D01*
X1078D01*
Y1219D01*
X1079D01*
Y1220D01*
Y1220D01*
X1079D01*
Y1221D01*
X1079D01*
Y1221D01*
X1080D01*
Y1222D01*
X1080D01*
Y1222D01*
Y1222D01*
X1081D01*
Y1223D01*
X1081D01*
Y1223D01*
X1082D01*
Y1224D01*
X1082D01*
Y1224D01*
X1082D01*
Y1224D01*
Y1225D01*
X1083D01*
Y1225D01*
X1083D01*
Y1226D01*
X1084D01*
Y1226D01*
X1084D01*
Y1226D01*
Y1227D01*
X1084D01*
Y1227D01*
X1085D01*
Y1228D01*
X1085D01*
Y1228D01*
X1086D01*
Y1229D01*
X1087D01*
Y1229D01*
X1087D01*
Y1229D01*
X1088D01*
Y1230D01*
X1088D01*
Y1230D01*
X1089D01*
Y1231D01*
X1089D01*
Y1231D01*
X1090D01*
Y1231D01*
X1091D01*
Y1232D01*
X1092D01*
Y1232D01*
X1092D01*
Y1233D01*
X1092D01*
Y1233D01*
Y1234D01*
X1093D01*
Y1234D01*
Y1234D01*
X1093D01*
Y1235D01*
Y1235D01*
Y1236D01*
Y1236D01*
Y1236D01*
X1094D01*
Y1237D01*
Y1237D01*
X1094D01*
Y1238D01*
Y1238D01*
Y1239D01*
X1094D01*
Y1239D01*
Y1239D01*
Y1240D01*
Y1240D01*
X1095D01*
Y1241D01*
Y1241D01*
Y1241D01*
X1095D01*
Y1242D01*
Y1242D01*
Y1243D01*
Y1243D01*
X1096D01*
Y1244D01*
Y1244D01*
Y1244D01*
X1096D01*
Y1245D01*
Y1245D01*
X1097D01*
Y1246D01*
Y1246D01*
Y1246D01*
Y1247D01*
Y1247D01*
X1097D01*
Y1248D01*
Y1248D01*
X1097D01*
Y1248D01*
Y1249D01*
Y1249D01*
Y1250D01*
Y1250D01*
X1098D01*
Y1251D01*
Y1251D01*
X1098D01*
Y1251D01*
Y1252D01*
Y1252D01*
X1099D01*
Y1253D01*
Y1253D01*
Y1253D01*
Y1254D01*
X1099D01*
Y1254D01*
Y1255D01*
Y1255D01*
X1099D01*
Y1256D01*
Y1256D01*
Y1256D01*
Y1257D01*
X1100D01*
Y1257D01*
Y1258D01*
Y1258D01*
X1100D01*
Y1258D01*
Y1259D01*
X1101D01*
Y1259D01*
Y1260D01*
Y1260D01*
Y1261D01*
X1101D01*
Y1261D01*
Y1261D01*
Y1262D01*
X1101D01*
Y1262D01*
Y1263D01*
Y1263D01*
Y1263D01*
Y1264D01*
X1102D01*
Y1264D01*
Y1265D01*
X1102D01*
Y1264D01*
Y1264D01*
Y1263D01*
Y1263D01*
Y1263D01*
Y1262D01*
Y1262D01*
Y1261D01*
Y1261D01*
Y1261D01*
Y1260D01*
Y1260D01*
Y1259D01*
Y1259D01*
Y1258D01*
Y1258D01*
Y1258D01*
Y1257D01*
Y1257D01*
Y1256D01*
Y1256D01*
Y1256D01*
Y1255D01*
Y1255D01*
Y1254D01*
Y1254D01*
Y1253D01*
Y1253D01*
Y1253D01*
Y1252D01*
Y1252D01*
Y1251D01*
Y1251D01*
Y1251D01*
Y1250D01*
Y1250D01*
Y1249D01*
Y1249D01*
Y1248D01*
X1102D01*
Y1248D01*
Y1248D01*
Y1247D01*
Y1247D01*
Y1246D01*
Y1246D01*
X1101D01*
Y1246D01*
X1101D01*
Y1245D01*
Y1245D01*
X1101D01*
Y1244D01*
Y1244D01*
X1100D01*
Y1244D01*
Y1243D01*
X1100D01*
Y1243D01*
Y1242D01*
X1099D01*
Y1242D01*
X1099D01*
Y1241D01*
Y1241D01*
X1099D01*
Y1241D01*
Y1240D01*
X1098D01*
Y1240D01*
Y1239D01*
X1098D01*
Y1239D01*
X1097D01*
Y1239D01*
Y1238D01*
X1097D01*
Y1238D01*
Y1237D01*
X1097D01*
Y1237D01*
X1096D01*
Y1236D01*
X1096D01*
Y1236D01*
Y1236D01*
X1095D01*
Y1235D01*
Y1235D01*
X1094D01*
Y1234D01*
X1095D01*
Y1234D01*
X1094D01*
Y1234D01*
X1094D01*
Y1233D01*
Y1233D01*
Y1232D01*
X1093D01*
Y1232D01*
X1093D01*
Y1231D01*
Y1231D01*
X1092D01*
Y1231D01*
X1092D01*
Y1230D01*
Y1230D01*
X1092D01*
Y1229D01*
Y1229D01*
X1091D01*
Y1229D01*
X1091D01*
Y1228D01*
Y1228D01*
X1090D01*
Y1227D01*
X1090D01*
Y1227D01*
X1089D01*
Y1226D01*
Y1226D01*
X1089D01*
Y1226D01*
Y1225D01*
X1089D01*
Y1225D01*
Y1224D01*
X1088D01*
Y1224D01*
Y1224D01*
X1087D01*
Y1223D01*
Y1223D01*
X1087D01*
Y1222D01*
X1087D01*
Y1222D01*
Y1222D01*
X1086D01*
Y1221D01*
X1086D01*
Y1221D01*
Y1220D01*
X1085D01*
Y1220D01*
Y1219D01*
X1084D01*
Y1219D01*
Y1219D01*
X1084D01*
Y1218D01*
Y1218D01*
X1084D01*
Y1217D01*
X1083D01*
Y1217D01*
Y1217D01*
X1083D01*
Y1216D01*
Y1216D01*
X1082D01*
Y1215D01*
X1082D01*
Y1215D01*
Y1214D01*
X1082D01*
Y1214D01*
X1081D01*
Y1214D01*
Y1213D01*
X1081D01*
Y1213D01*
X1080D01*
Y1212D01*
Y1212D01*
X1080D01*
Y1212D01*
X1079D01*
Y1211D01*
Y1211D01*
X1079D01*
Y1210D01*
X1075D01*
Y1211D01*
X1057D01*
Y1211D01*
X1056D01*
Y1212D01*
Y1212D01*
X1056D01*
Y1212D01*
Y1213D01*
X1055D01*
Y1213D01*
X1055D01*
Y1214D01*
X1055D01*
Y1214D01*
Y1214D01*
X1054D01*
Y1215D01*
Y1215D01*
Y1216D01*
X1054D01*
Y1216D01*
X1053D01*
Y1217D01*
Y1217D01*
X1053D01*
Y1217D01*
Y1218D01*
X1052D01*
Y1218D01*
Y1219D01*
X1052D01*
Y1219D01*
Y1219D01*
X1051D01*
Y1220D01*
Y1220D01*
X1050D01*
Y1221D01*
Y1221D01*
X1050D01*
Y1222D01*
Y1222D01*
X1050D01*
Y1222D01*
X1049D01*
Y1223D01*
Y1223D01*
X1049D01*
Y1224D01*
Y1224D01*
X1048D01*
Y1224D01*
X1048D01*
Y1225D01*
X1048D01*
Y1225D01*
Y1226D01*
X1047D01*
Y1226D01*
Y1226D01*
X1047D01*
Y1227D01*
Y1227D01*
X1046D01*
Y1228D01*
Y1228D01*
Y1229D01*
X1045D01*
Y1229D01*
X1045D01*
Y1229D01*
Y1230D01*
X1045D01*
Y1230D01*
Y1231D01*
X1044D01*
Y1231D01*
X1044D01*
Y1231D01*
Y1232D01*
X1043D01*
Y1232D01*
X1043D01*
Y1233D01*
Y1233D01*
Y1234D01*
X1042D01*
Y1234D01*
Y1234D01*
X1042D01*
Y1235D01*
Y1235D01*
X1041D01*
Y1236D01*
X1041D01*
Y1236D01*
X1040D01*
Y1236D01*
Y1237D01*
X1040D01*
Y1237D01*
X1040D01*
Y1238D01*
Y1238D01*
X1039D01*
Y1239D01*
Y1239D01*
X1039D01*
Y1239D01*
Y1240D01*
X1038D01*
Y1240D01*
Y1241D01*
X1038D01*
Y1241D01*
Y1241D01*
X1037D01*
Y1242D01*
Y1242D01*
X1037D01*
Y1243D01*
Y1243D01*
X1036D01*
Y1244D01*
Y1244D01*
X1036D01*
Y1244D01*
Y1245D01*
X1036D01*
Y1245D01*
Y1246D01*
Y1246D01*
X1035D01*
Y1246D01*
Y1247D01*
X1035D01*
Y1247D01*
X1034D01*
Y1248D01*
Y1248D01*
Y1248D01*
Y1249D01*
Y1249D01*
Y1250D01*
Y1250D01*
Y1251D01*
Y1251D01*
Y1251D01*
Y1252D01*
Y1252D01*
Y1253D01*
Y1253D01*
Y1253D01*
Y1254D01*
Y1254D01*
Y1255D01*
Y1255D01*
Y1256D01*
Y1256D01*
Y1256D01*
Y1257D01*
Y1257D01*
Y1258D01*
Y1258D01*
Y1258D01*
Y1259D01*
Y1259D01*
Y1260D01*
Y1260D01*
Y1261D01*
Y1261D01*
Y1261D01*
Y1262D01*
Y1262D01*
Y1263D01*
Y1263D01*
Y1263D01*
Y1264D01*
Y1264D01*
Y1265D01*
Y1265D01*
Y1266D01*
Y1266D01*
X1035D01*
Y1266D01*
D02*
G37*
G36*
X987Y1197D02*
X987D01*
Y1197D01*
Y1197D01*
Y1196D01*
X988D01*
Y1196D01*
X987D01*
Y1195D01*
Y1195D01*
Y1195D01*
X987D01*
Y1194D01*
X985D01*
Y1195D01*
X984D01*
Y1195D01*
X984D01*
Y1195D01*
Y1196D01*
X984D01*
Y1196D01*
X984D01*
Y1197D01*
Y1197D01*
X984D01*
Y1197D01*
X985D01*
Y1198D01*
X987D01*
Y1197D01*
D02*
G37*
G36*
X1180Y1195D02*
X1181D01*
Y1195D01*
Y1195D01*
X1181D01*
Y1194D01*
Y1194D01*
X1181D01*
Y1193D01*
Y1193D01*
Y1192D01*
X1180D01*
Y1192D01*
X1180D01*
Y1192D01*
X1179D01*
Y1192D01*
X1178D01*
Y1192D01*
X1177D01*
Y1193D01*
Y1193D01*
Y1194D01*
Y1194D01*
Y1195D01*
Y1195D01*
X1178D01*
Y1195D01*
X1179D01*
Y1196D01*
X1180D01*
Y1195D01*
D02*
G37*
G36*
X1037Y1196D02*
X1037D01*
Y1196D01*
Y1195D01*
Y1195D01*
Y1195D01*
Y1194D01*
Y1194D01*
Y1193D01*
Y1193D01*
Y1192D01*
Y1192D01*
Y1192D01*
Y1191D01*
Y1191D01*
Y1190D01*
Y1190D01*
Y1190D01*
Y1189D01*
Y1189D01*
Y1188D01*
Y1188D01*
Y1187D01*
Y1187D01*
Y1187D01*
X1036D01*
Y1187D01*
X1036D01*
Y1187D01*
X1035D01*
Y1188D01*
Y1188D01*
Y1189D01*
X1034D01*
Y1189D01*
X1034D01*
Y1190D01*
Y1190D01*
Y1190D01*
Y1191D01*
Y1191D01*
Y1192D01*
Y1192D01*
Y1192D01*
Y1193D01*
Y1193D01*
Y1194D01*
Y1194D01*
X1034D01*
Y1195D01*
Y1195D01*
Y1195D01*
X1035D01*
Y1196D01*
X1035D01*
Y1196D01*
X1036D01*
Y1197D01*
X1037D01*
Y1196D01*
D02*
G37*
G36*
X1001Y1197D02*
X1001D01*
Y1197D01*
X1002D01*
Y1197D01*
X1002D01*
Y1196D01*
X1002D01*
Y1196D01*
X1002D01*
Y1195D01*
X1003D01*
Y1195D01*
Y1195D01*
X1003D01*
Y1194D01*
Y1194D01*
Y1193D01*
X1004D01*
Y1193D01*
X1004D01*
Y1192D01*
Y1192D01*
Y1192D01*
Y1191D01*
X1004D01*
Y1191D01*
X1005D01*
Y1190D01*
Y1190D01*
X1005D01*
Y1190D01*
Y1189D01*
X1006D01*
Y1189D01*
Y1188D01*
Y1188D01*
X1006D01*
Y1187D01*
X1006D01*
Y1187D01*
Y1187D01*
Y1186D01*
X1007D01*
Y1186D01*
X1007D01*
Y1185D01*
Y1185D01*
Y1185D01*
Y1184D01*
X1008D01*
Y1184D01*
X1008D01*
Y1183D01*
Y1183D01*
X1009D01*
Y1182D01*
Y1182D01*
Y1182D01*
X1009D01*
Y1181D01*
Y1181D01*
X1009D01*
Y1180D01*
Y1180D01*
X1009D01*
Y1180D01*
Y1179D01*
X1009D01*
Y1179D01*
X1008D01*
Y1178D01*
X1007D01*
Y1179D01*
X1006D01*
Y1179D01*
X1006D01*
Y1180D01*
X1006D01*
Y1180D01*
Y1180D01*
X1005D01*
Y1181D01*
X1005D01*
Y1181D01*
Y1182D01*
Y1182D01*
X1004D01*
Y1182D01*
X1004D01*
Y1183D01*
Y1183D01*
X1004D01*
Y1184D01*
Y1184D01*
Y1185D01*
X1003D01*
Y1185D01*
X1003D01*
Y1185D01*
Y1186D01*
Y1186D01*
Y1187D01*
X1002D01*
Y1187D01*
X1002D01*
Y1187D01*
Y1188D01*
Y1188D01*
Y1189D01*
X1001D01*
Y1189D01*
X1001D01*
Y1190D01*
Y1190D01*
X1001D01*
Y1190D01*
X1000D01*
Y1191D01*
X1000D01*
Y1190D01*
Y1190D01*
X999D01*
Y1190D01*
X999D01*
Y1189D01*
Y1189D01*
Y1188D01*
X999D01*
Y1188D01*
X998D01*
Y1187D01*
Y1187D01*
Y1187D01*
Y1186D01*
X998D01*
Y1186D01*
X997D01*
Y1185D01*
Y1185D01*
X997D01*
Y1185D01*
Y1184D01*
Y1184D01*
X996D01*
Y1183D01*
X996D01*
Y1183D01*
Y1182D01*
Y1182D01*
Y1182D01*
X996D01*
Y1181D01*
X995D01*
Y1181D01*
Y1180D01*
X995D01*
Y1180D01*
Y1180D01*
Y1179D01*
X994D01*
Y1179D01*
Y1178D01*
X994D01*
Y1178D01*
Y1178D01*
X994D01*
Y1177D01*
Y1177D01*
X993D01*
Y1176D01*
X993D01*
Y1176D01*
Y1175D01*
Y1175D01*
Y1175D01*
X992D01*
Y1174D01*
X992D01*
Y1174D01*
Y1173D01*
X992D01*
Y1173D01*
X991D01*
Y1173D01*
X989D01*
Y1173D01*
X989D01*
Y1173D01*
Y1174D01*
X988D01*
Y1174D01*
X989D01*
Y1175D01*
X988D01*
Y1175D01*
X989D01*
Y1175D01*
Y1176D01*
X989D01*
Y1176D01*
Y1177D01*
X989D01*
Y1177D01*
Y1178D01*
Y1178D01*
X990D01*
Y1178D01*
Y1179D01*
X990D01*
Y1179D01*
Y1180D01*
Y1180D01*
X991D01*
Y1180D01*
X991D01*
Y1181D01*
X992D01*
Y1181D01*
Y1182D01*
Y1182D01*
X992D01*
Y1182D01*
Y1183D01*
X992D01*
Y1183D01*
Y1184D01*
Y1184D01*
X993D01*
Y1185D01*
Y1185D01*
X993D01*
Y1185D01*
Y1186D01*
X994D01*
Y1186D01*
Y1187D01*
Y1187D01*
X994D01*
Y1187D01*
X994D01*
Y1188D01*
Y1188D01*
Y1189D01*
X995D01*
Y1189D01*
X995D01*
Y1190D01*
Y1190D01*
X996D01*
Y1190D01*
Y1191D01*
Y1191D01*
X996D01*
Y1192D01*
Y1192D01*
X996D01*
Y1192D01*
Y1193D01*
Y1193D01*
X997D01*
Y1194D01*
Y1194D01*
X997D01*
Y1195D01*
X998D01*
Y1195D01*
Y1195D01*
Y1196D01*
X998D01*
Y1196D01*
X999D01*
Y1197D01*
Y1197D01*
Y1197D01*
X999D01*
Y1198D01*
X1001D01*
Y1197D01*
D02*
G37*
G36*
X1112Y1197D02*
X1113D01*
Y1196D01*
X1114D01*
Y1196D01*
X1114D01*
Y1195D01*
X1114D01*
Y1195D01*
X1115D01*
Y1195D01*
X1115D01*
Y1194D01*
X1116D01*
Y1194D01*
Y1193D01*
X1116D01*
Y1193D01*
Y1192D01*
X1117D01*
Y1192D01*
Y1192D01*
X1117D01*
Y1191D01*
Y1191D01*
Y1190D01*
Y1190D01*
X1118D01*
Y1190D01*
Y1189D01*
X1118D01*
Y1189D01*
Y1188D01*
Y1188D01*
Y1187D01*
Y1187D01*
Y1187D01*
Y1186D01*
Y1186D01*
Y1185D01*
Y1185D01*
Y1185D01*
Y1184D01*
Y1184D01*
Y1183D01*
Y1183D01*
Y1182D01*
X1118D01*
Y1182D01*
Y1182D01*
X1117D01*
Y1181D01*
Y1181D01*
Y1180D01*
X1117D01*
Y1180D01*
X1116D01*
Y1180D01*
X1116D01*
Y1179D01*
X1116D01*
Y1179D01*
X1116D01*
Y1178D01*
X1116D01*
Y1178D01*
X1115D01*
Y1178D01*
X1115D01*
Y1177D01*
X1114D01*
Y1177D01*
X1114D01*
Y1176D01*
X1114D01*
Y1176D01*
X1113D01*
Y1175D01*
X1112D01*
Y1175D01*
X1111D01*
Y1175D01*
X1111D01*
Y1174D01*
X1109D01*
Y1174D01*
X1109D01*
Y1173D01*
X1102D01*
Y1174D01*
X1101D01*
Y1174D01*
X1100D01*
Y1175D01*
X1099D01*
Y1175D01*
X1099D01*
Y1175D01*
X1098D01*
Y1176D01*
X1098D01*
Y1176D01*
X1097D01*
Y1177D01*
X1097D01*
Y1177D01*
X1097D01*
Y1178D01*
X1096D01*
Y1178D01*
Y1178D01*
X1095D01*
Y1179D01*
Y1179D01*
Y1180D01*
X1095D01*
Y1180D01*
X1094D01*
Y1180D01*
X1094D01*
Y1181D01*
X1094D01*
Y1181D01*
X1094D01*
Y1182D01*
X1094D01*
Y1182D01*
Y1182D01*
X1093D01*
Y1183D01*
Y1183D01*
Y1184D01*
Y1184D01*
Y1185D01*
Y1185D01*
Y1185D01*
Y1186D01*
Y1186D01*
Y1187D01*
Y1187D01*
Y1187D01*
Y1188D01*
Y1188D01*
Y1189D01*
X1094D01*
Y1189D01*
X1094D01*
Y1190D01*
X1096D01*
Y1189D01*
X1097D01*
Y1189D01*
Y1188D01*
X1097D01*
Y1188D01*
Y1187D01*
Y1187D01*
Y1187D01*
Y1186D01*
Y1186D01*
Y1185D01*
Y1185D01*
Y1185D01*
Y1184D01*
Y1184D01*
X1097D01*
Y1183D01*
Y1183D01*
X1098D01*
Y1182D01*
Y1182D01*
Y1182D01*
X1098D01*
Y1181D01*
Y1181D01*
X1099D01*
Y1180D01*
Y1180D01*
X1099D01*
Y1180D01*
X1100D01*
Y1179D01*
X1100D01*
Y1179D01*
X1101D01*
Y1178D01*
X1101D01*
Y1178D01*
X1103D01*
Y1178D01*
X1104D01*
Y1177D01*
X1107D01*
Y1178D01*
X1109D01*
Y1178D01*
X1110D01*
Y1178D01*
X1110D01*
Y1179D01*
X1111D01*
Y1179D01*
X1111D01*
Y1180D01*
X1112D01*
Y1180D01*
X1112D01*
Y1180D01*
X1113D01*
Y1181D01*
X1113D01*
Y1181D01*
Y1182D01*
X1114D01*
Y1182D01*
Y1182D01*
Y1183D01*
X1114D01*
Y1183D01*
Y1184D01*
X1114D01*
Y1184D01*
Y1185D01*
Y1185D01*
Y1185D01*
Y1186D01*
Y1186D01*
Y1187D01*
Y1187D01*
Y1187D01*
Y1188D01*
Y1188D01*
X1114D01*
Y1189D01*
Y1189D01*
X1114D01*
Y1190D01*
Y1190D01*
Y1190D01*
X1113D01*
Y1191D01*
X1113D01*
Y1191D01*
Y1192D01*
X1112D01*
Y1192D01*
X1112D01*
Y1192D01*
X1111D01*
Y1193D01*
X1111D01*
Y1193D01*
X1110D01*
Y1194D01*
X1110D01*
Y1194D01*
X1109D01*
Y1195D01*
Y1195D01*
X1109D01*
Y1195D01*
Y1196D01*
X1109D01*
Y1196D01*
Y1197D01*
X1110D01*
Y1197D01*
X1112D01*
Y1197D01*
D02*
G37*
G36*
X1173Y1198D02*
X1174D01*
Y1197D01*
X1175D01*
Y1197D01*
Y1197D01*
X1175D01*
Y1196D01*
Y1196D01*
X1175D01*
Y1195D01*
Y1195D01*
X1174D01*
Y1195D01*
X1173D01*
Y1194D01*
X1172D01*
Y1194D01*
X1170D01*
Y1193D01*
X1169D01*
Y1193D01*
X1168D01*
Y1192D01*
Y1192D01*
X1168D01*
Y1192D01*
Y1191D01*
Y1191D01*
Y1190D01*
Y1190D01*
Y1190D01*
Y1189D01*
X1169D01*
Y1189D01*
X1169D01*
Y1188D01*
X1170D01*
Y1188D01*
X1171D01*
Y1187D01*
X1172D01*
Y1187D01*
X1174D01*
Y1187D01*
X1175D01*
Y1186D01*
X1176D01*
Y1186D01*
X1177D01*
Y1185D01*
X1178D01*
Y1185D01*
X1179D01*
Y1185D01*
X1180D01*
Y1184D01*
X1180D01*
Y1184D01*
X1180D01*
Y1183D01*
X1181D01*
Y1183D01*
Y1182D01*
X1181D01*
Y1182D01*
X1181D01*
Y1182D01*
X1181D01*
Y1181D01*
Y1181D01*
Y1180D01*
Y1180D01*
Y1180D01*
Y1179D01*
Y1179D01*
Y1178D01*
Y1178D01*
Y1178D01*
X1181D01*
Y1177D01*
Y1177D01*
Y1176D01*
X1180D01*
Y1176D01*
Y1175D01*
X1180D01*
Y1175D01*
X1179D01*
Y1175D01*
X1178D01*
Y1174D01*
X1178D01*
Y1174D01*
X1177D01*
Y1173D01*
X1175D01*
Y1173D01*
X1174D01*
Y1173D01*
X1170D01*
Y1173D01*
X1169D01*
Y1173D01*
X1168D01*
Y1174D01*
X1167D01*
Y1174D01*
X1166D01*
Y1175D01*
X1166D01*
Y1175D01*
X1165D01*
Y1175D01*
X1165D01*
Y1176D01*
X1165D01*
Y1176D01*
Y1177D01*
X1164D01*
Y1177D01*
Y1178D01*
Y1178D01*
X1165D01*
Y1178D01*
X1165D01*
Y1179D01*
X1167D01*
Y1178D01*
X1168D01*
Y1178D01*
X1169D01*
Y1178D01*
X1169D01*
Y1177D01*
X1170D01*
Y1177D01*
X1175D01*
Y1177D01*
X1176D01*
Y1178D01*
X1176D01*
Y1178D01*
X1177D01*
Y1178D01*
Y1179D01*
X1177D01*
Y1179D01*
Y1180D01*
Y1180D01*
Y1180D01*
Y1181D01*
Y1181D01*
X1177D01*
Y1182D01*
X1176D01*
Y1182D01*
X1176D01*
Y1182D01*
X1173D01*
Y1183D01*
X1172D01*
Y1183D01*
X1171D01*
Y1184D01*
X1170D01*
Y1184D01*
X1169D01*
Y1185D01*
X1167D01*
Y1185D01*
X1167D01*
Y1185D01*
X1166D01*
Y1186D01*
X1166D01*
Y1186D01*
X1165D01*
Y1187D01*
X1165D01*
Y1187D01*
Y1187D01*
X1165D01*
Y1188D01*
Y1188D01*
X1164D01*
Y1189D01*
Y1189D01*
Y1190D01*
Y1190D01*
Y1190D01*
Y1191D01*
Y1191D01*
Y1192D01*
Y1192D01*
Y1192D01*
Y1193D01*
Y1193D01*
X1165D01*
Y1194D01*
X1165D01*
Y1194D01*
Y1195D01*
Y1195D01*
X1165D01*
Y1195D01*
X1166D01*
Y1196D01*
X1166D01*
Y1196D01*
X1167D01*
Y1197D01*
X1167D01*
Y1197D01*
X1168D01*
Y1197D01*
X1170D01*
Y1198D01*
X1170D01*
Y1198D01*
X1173D01*
Y1198D01*
D02*
G37*
G36*
X1018Y1196D02*
X1019D01*
Y1196D01*
X1019D01*
Y1195D01*
X1020D01*
Y1195D01*
X1021D01*
Y1195D01*
X1021D01*
Y1194D01*
X1021D01*
Y1194D01*
X1022D01*
Y1193D01*
X1022D01*
Y1193D01*
X1023D01*
Y1192D01*
X1023D01*
Y1192D01*
X1024D01*
Y1192D01*
X1024D01*
Y1191D01*
X1025D01*
Y1191D01*
X1025D01*
Y1190D01*
X1026D01*
Y1190D01*
X1026D01*
Y1190D01*
X1026D01*
Y1189D01*
X1027D01*
Y1189D01*
X1027D01*
Y1188D01*
X1028D01*
Y1188D01*
X1028D01*
Y1187D01*
X1028D01*
Y1187D01*
X1029D01*
Y1187D01*
X1029D01*
Y1186D01*
X1030D01*
Y1186D01*
X1030D01*
Y1185D01*
X1031D01*
Y1185D01*
X1031D01*
Y1185D01*
X1031D01*
Y1184D01*
X1032D01*
Y1184D01*
X1032D01*
Y1183D01*
X1033D01*
Y1183D01*
X1033D01*
Y1182D01*
X1033D01*
Y1182D01*
X1034D01*
Y1182D01*
Y1181D01*
X1034D01*
Y1181D01*
X1035D01*
Y1180D01*
X1035D01*
Y1180D01*
X1036D01*
Y1180D01*
X1036D01*
Y1179D01*
Y1179D01*
X1036D01*
Y1178D01*
Y1178D01*
X1037D01*
Y1178D01*
Y1177D01*
Y1177D01*
X1038D01*
Y1176D01*
Y1176D01*
Y1175D01*
X1038D01*
Y1175D01*
Y1175D01*
X1037D01*
Y1174D01*
X1036D01*
Y1175D01*
X1036D01*
Y1175D01*
X1036D01*
Y1175D01*
X1035D01*
Y1176D01*
Y1176D01*
X1034D01*
Y1177D01*
Y1177D01*
X1033D01*
Y1178D01*
X1033D01*
Y1178D01*
X1032D01*
Y1178D01*
X1032D01*
Y1179D01*
X1031D01*
Y1179D01*
X1031D01*
Y1180D01*
X1031D01*
Y1180D01*
X1030D01*
Y1180D01*
X1030D01*
Y1181D01*
X1029D01*
Y1181D01*
X1029D01*
Y1182D01*
X1028D01*
Y1182D01*
X1028D01*
Y1182D01*
X1028D01*
Y1183D01*
X1027D01*
Y1183D01*
X1027D01*
Y1184D01*
X1026D01*
Y1184D01*
X1026D01*
Y1185D01*
X1026D01*
Y1185D01*
X1025D01*
Y1185D01*
X1025D01*
Y1186D01*
X1024D01*
Y1186D01*
X1024D01*
Y1187D01*
X1023D01*
Y1187D01*
X1023D01*
Y1187D01*
X1022D01*
Y1188D01*
Y1188D01*
Y1189D01*
X1021D01*
Y1189D01*
X1021D01*
Y1189D01*
Y1188D01*
Y1188D01*
Y1187D01*
Y1187D01*
Y1187D01*
Y1186D01*
Y1186D01*
Y1185D01*
Y1185D01*
Y1185D01*
Y1184D01*
X1020D01*
Y1184D01*
Y1183D01*
Y1183D01*
Y1182D01*
Y1182D01*
Y1182D01*
Y1181D01*
Y1181D01*
Y1180D01*
Y1180D01*
X1021D01*
Y1180D01*
Y1179D01*
Y1179D01*
Y1178D01*
Y1178D01*
Y1178D01*
Y1177D01*
Y1177D01*
X1020D01*
Y1176D01*
Y1176D01*
Y1175D01*
X1020D01*
Y1175D01*
Y1175D01*
X1019D01*
Y1174D01*
X1019D01*
Y1174D01*
X1018D01*
Y1173D01*
X1017D01*
Y1174D01*
Y1174D01*
Y1175D01*
Y1175D01*
Y1175D01*
Y1176D01*
Y1176D01*
Y1177D01*
Y1177D01*
Y1178D01*
Y1178D01*
Y1178D01*
Y1179D01*
Y1179D01*
Y1180D01*
Y1180D01*
Y1180D01*
Y1181D01*
Y1181D01*
Y1182D01*
Y1182D01*
Y1182D01*
Y1183D01*
Y1183D01*
Y1184D01*
Y1184D01*
Y1185D01*
Y1185D01*
Y1185D01*
Y1186D01*
Y1186D01*
Y1187D01*
Y1187D01*
Y1187D01*
Y1188D01*
Y1188D01*
Y1189D01*
Y1189D01*
Y1190D01*
Y1190D01*
Y1190D01*
Y1191D01*
Y1191D01*
Y1192D01*
Y1192D01*
Y1192D01*
Y1193D01*
Y1193D01*
Y1194D01*
Y1194D01*
Y1195D01*
Y1195D01*
Y1195D01*
Y1196D01*
Y1196D01*
Y1197D01*
X1018D01*
Y1196D01*
D02*
G37*
G36*
X1150Y1197D02*
X1151D01*
Y1197D01*
X1153D01*
Y1197D01*
X1153D01*
Y1196D01*
X1154D01*
Y1196D01*
X1154D01*
Y1195D01*
X1155D01*
Y1195D01*
X1155D01*
Y1195D01*
X1155D01*
Y1194D01*
Y1194D01*
X1156D01*
Y1193D01*
X1156D01*
Y1193D01*
X1157D01*
Y1192D01*
Y1192D01*
X1157D01*
Y1192D01*
Y1191D01*
X1158D01*
Y1191D01*
Y1190D01*
Y1190D01*
X1158D01*
Y1190D01*
Y1189D01*
Y1189D01*
X1158D01*
Y1188D01*
Y1188D01*
Y1187D01*
Y1187D01*
Y1187D01*
Y1186D01*
Y1186D01*
Y1185D01*
Y1185D01*
Y1185D01*
Y1184D01*
Y1184D01*
Y1183D01*
Y1183D01*
Y1182D01*
Y1182D01*
Y1182D01*
X1158D01*
Y1181D01*
Y1181D01*
Y1180D01*
X1158D01*
Y1180D01*
Y1180D01*
Y1179D01*
X1157D01*
Y1179D01*
Y1178D01*
X1157D01*
Y1178D01*
X1156D01*
Y1178D01*
Y1177D01*
X1156D01*
Y1177D01*
X1155D01*
Y1176D01*
Y1176D01*
X1155D01*
Y1175D01*
X1155D01*
Y1175D01*
X1154D01*
Y1175D01*
X1153D01*
Y1174D01*
X1153D01*
Y1174D01*
X1152D01*
Y1173D01*
X1151D01*
Y1173D01*
X1150D01*
Y1173D01*
X1137D01*
Y1173D01*
X1137D01*
Y1173D01*
X1136D01*
Y1174D01*
Y1174D01*
Y1175D01*
Y1175D01*
Y1175D01*
Y1176D01*
X1137D01*
Y1176D01*
X1148D01*
Y1177D01*
X1150D01*
Y1177D01*
X1151D01*
Y1178D01*
X1152D01*
Y1178D01*
X1152D01*
Y1178D01*
X1153D01*
Y1179D01*
Y1179D01*
X1153D01*
Y1180D01*
X1153D01*
Y1180D01*
X1154D01*
Y1180D01*
Y1181D01*
Y1181D01*
Y1182D01*
Y1182D01*
X1154D01*
Y1182D01*
Y1183D01*
X1155D01*
Y1183D01*
Y1184D01*
Y1184D01*
Y1185D01*
Y1185D01*
Y1185D01*
Y1186D01*
Y1186D01*
Y1187D01*
Y1187D01*
Y1187D01*
Y1188D01*
X1154D01*
Y1188D01*
Y1189D01*
X1154D01*
Y1189D01*
Y1190D01*
Y1190D01*
Y1190D01*
X1153D01*
Y1191D01*
X1153D01*
Y1191D01*
X1153D01*
Y1192D01*
Y1192D01*
X1152D01*
Y1192D01*
X1152D01*
Y1193D01*
X1151D01*
Y1193D01*
X1150D01*
Y1194D01*
X1140D01*
Y1193D01*
Y1193D01*
Y1192D01*
Y1192D01*
Y1192D01*
Y1191D01*
Y1191D01*
Y1190D01*
Y1190D01*
Y1190D01*
Y1189D01*
Y1189D01*
Y1188D01*
X1139D01*
Y1188D01*
X1139D01*
Y1187D01*
X1137D01*
Y1188D01*
X1137D01*
Y1188D01*
X1136D01*
Y1189D01*
Y1189D01*
Y1190D01*
Y1190D01*
X1136D01*
Y1190D01*
Y1191D01*
Y1191D01*
Y1192D01*
Y1192D01*
Y1192D01*
Y1193D01*
Y1193D01*
Y1194D01*
Y1194D01*
Y1195D01*
Y1195D01*
Y1195D01*
X1136D01*
Y1196D01*
Y1196D01*
Y1197D01*
Y1197D01*
Y1197D01*
X1137D01*
Y1198D01*
X1150D01*
Y1197D01*
D02*
G37*
G36*
X1128D02*
X1128D01*
Y1197D01*
Y1197D01*
Y1196D01*
X1129D01*
Y1196D01*
Y1195D01*
Y1195D01*
Y1195D01*
Y1194D01*
Y1194D01*
Y1193D01*
Y1193D01*
Y1192D01*
Y1192D01*
Y1192D01*
Y1191D01*
Y1191D01*
Y1190D01*
Y1190D01*
Y1190D01*
Y1189D01*
Y1189D01*
Y1188D01*
Y1188D01*
Y1187D01*
Y1187D01*
Y1187D01*
Y1186D01*
Y1186D01*
Y1185D01*
Y1185D01*
Y1185D01*
Y1184D01*
Y1184D01*
Y1183D01*
Y1183D01*
Y1182D01*
Y1182D01*
Y1182D01*
Y1181D01*
Y1181D01*
Y1180D01*
Y1180D01*
Y1180D01*
Y1179D01*
Y1179D01*
Y1178D01*
Y1178D01*
Y1178D01*
Y1177D01*
Y1177D01*
Y1176D01*
Y1176D01*
Y1175D01*
Y1175D01*
Y1175D01*
Y1174D01*
X1128D01*
Y1174D01*
Y1173D01*
X1128D01*
Y1173D01*
X1128D01*
Y1173D01*
X1126D01*
Y1173D01*
X1126D01*
Y1173D01*
X1125D01*
Y1174D01*
Y1174D01*
Y1175D01*
Y1175D01*
Y1175D01*
Y1176D01*
Y1176D01*
Y1177D01*
Y1177D01*
Y1178D01*
Y1178D01*
Y1178D01*
Y1179D01*
Y1179D01*
Y1180D01*
Y1180D01*
Y1180D01*
Y1181D01*
Y1181D01*
Y1182D01*
Y1182D01*
Y1182D01*
Y1183D01*
Y1183D01*
Y1184D01*
Y1184D01*
Y1185D01*
Y1185D01*
Y1185D01*
Y1186D01*
Y1186D01*
Y1187D01*
Y1187D01*
Y1187D01*
Y1188D01*
Y1188D01*
Y1189D01*
Y1189D01*
Y1190D01*
Y1190D01*
Y1190D01*
Y1191D01*
Y1191D01*
Y1192D01*
Y1192D01*
Y1192D01*
Y1193D01*
Y1193D01*
Y1194D01*
Y1194D01*
Y1195D01*
Y1195D01*
Y1195D01*
Y1196D01*
Y1196D01*
Y1197D01*
Y1197D01*
X1126D01*
Y1197D01*
X1126D01*
Y1198D01*
X1128D01*
Y1197D01*
D02*
G37*
G36*
X1083Y1180D02*
X1084D01*
Y1180D01*
Y1180D01*
X1084D01*
Y1179D01*
Y1179D01*
X1084D01*
Y1178D01*
Y1178D01*
X1085D01*
Y1178D01*
X1085D01*
Y1177D01*
Y1177D01*
Y1176D01*
X1086D01*
Y1176D01*
X1086D01*
Y1175D01*
Y1175D01*
X1087D01*
Y1175D01*
Y1174D01*
Y1174D01*
X1086D01*
Y1173D01*
X1086D01*
Y1173D01*
X1085D01*
Y1173D01*
X1084D01*
Y1173D01*
X1083D01*
Y1173D01*
X1083D01*
Y1174D01*
X1082D01*
Y1174D01*
Y1175D01*
X1082D01*
Y1175D01*
Y1175D01*
Y1176D01*
X1082D01*
Y1176D01*
Y1177D01*
X1081D01*
Y1177D01*
X1081D01*
Y1178D01*
Y1178D01*
Y1178D01*
X1080D01*
Y1179D01*
Y1179D01*
Y1180D01*
X1081D01*
Y1180D01*
Y1180D01*
X1081D01*
Y1181D01*
X1083D01*
Y1180D01*
D02*
G37*
G36*
X1081Y1197D02*
X1082D01*
Y1197D01*
X1083D01*
Y1197D01*
X1084D01*
Y1196D01*
X1084D01*
Y1196D01*
Y1195D01*
X1085D01*
Y1195D01*
X1085D01*
Y1195D01*
Y1194D01*
Y1194D01*
X1086D01*
Y1193D01*
X1086D01*
Y1193D01*
Y1192D01*
Y1192D01*
X1087D01*
Y1192D01*
X1086D01*
Y1191D01*
Y1191D01*
Y1190D01*
Y1190D01*
X1087D01*
Y1190D01*
X1086D01*
Y1189D01*
Y1189D01*
Y1188D01*
X1086D01*
Y1188D01*
Y1187D01*
X1085D01*
Y1187D01*
Y1187D01*
Y1186D01*
X1085D01*
Y1186D01*
X1084D01*
Y1185D01*
X1084D01*
Y1185D01*
X1084D01*
Y1185D01*
X1083D01*
Y1184D01*
X1082D01*
Y1184D01*
X1081D01*
Y1183D01*
X1072D01*
Y1183D01*
Y1182D01*
Y1182D01*
Y1182D01*
Y1181D01*
Y1181D01*
Y1180D01*
Y1180D01*
Y1180D01*
Y1179D01*
Y1179D01*
Y1178D01*
Y1178D01*
Y1178D01*
Y1177D01*
Y1177D01*
Y1176D01*
Y1176D01*
Y1175D01*
Y1175D01*
Y1175D01*
X1072D01*
Y1174D01*
Y1174D01*
Y1173D01*
X1071D01*
Y1173D01*
X1071D01*
Y1173D01*
X1069D01*
Y1173D01*
X1069D01*
Y1173D01*
X1068D01*
Y1174D01*
Y1174D01*
X1068D01*
Y1175D01*
Y1175D01*
Y1175D01*
Y1176D01*
Y1176D01*
Y1177D01*
Y1177D01*
Y1178D01*
Y1178D01*
Y1178D01*
Y1179D01*
Y1179D01*
Y1180D01*
Y1180D01*
Y1180D01*
Y1181D01*
Y1181D01*
Y1182D01*
Y1182D01*
Y1182D01*
Y1183D01*
Y1183D01*
Y1184D01*
Y1184D01*
Y1185D01*
Y1185D01*
Y1185D01*
Y1186D01*
X1068D01*
Y1186D01*
Y1187D01*
X1069D01*
Y1187D01*
X1080D01*
Y1187D01*
X1081D01*
Y1188D01*
X1082D01*
Y1188D01*
X1082D01*
Y1189D01*
Y1189D01*
X1082D01*
Y1190D01*
Y1190D01*
Y1190D01*
Y1191D01*
Y1191D01*
Y1192D01*
Y1192D01*
X1082D01*
Y1192D01*
Y1193D01*
X1082D01*
Y1193D01*
X1081D01*
Y1194D01*
X1079D01*
Y1194D01*
X1078D01*
Y1195D01*
X1078D01*
Y1195D01*
X1077D01*
Y1195D01*
Y1196D01*
X1077D01*
Y1196D01*
X1077D01*
Y1197D01*
Y1197D01*
X1078D01*
Y1197D01*
X1078D01*
Y1198D01*
X1081D01*
Y1197D01*
D02*
G37*
G36*
X1056D02*
X1058D01*
Y1197D01*
X1059D01*
Y1197D01*
X1060D01*
Y1196D01*
X1060D01*
Y1196D01*
X1061D01*
Y1195D01*
X1061D01*
Y1195D01*
X1062D01*
Y1195D01*
Y1194D01*
X1062D01*
Y1194D01*
X1062D01*
Y1193D01*
X1063D01*
Y1193D01*
X1063D01*
Y1192D01*
Y1192D01*
X1064D01*
Y1192D01*
Y1191D01*
Y1191D01*
Y1190D01*
X1064D01*
Y1190D01*
Y1190D01*
X1065D01*
Y1189D01*
Y1189D01*
X1065D01*
Y1188D01*
X1065D01*
Y1188D01*
Y1187D01*
Y1187D01*
X1065D01*
Y1187D01*
Y1186D01*
Y1186D01*
Y1185D01*
Y1185D01*
Y1185D01*
Y1184D01*
Y1184D01*
Y1183D01*
X1065D01*
Y1183D01*
Y1182D01*
Y1182D01*
X1065D01*
Y1182D01*
X1065D01*
Y1181D01*
Y1181D01*
X1064D01*
Y1180D01*
Y1180D01*
X1064D01*
Y1180D01*
Y1179D01*
Y1179D01*
Y1178D01*
X1063D01*
Y1178D01*
Y1178D01*
Y1177D01*
X1062D01*
Y1177D01*
X1062D01*
Y1176D01*
X1062D01*
Y1176D01*
Y1175D01*
X1061D01*
Y1175D01*
X1061D01*
Y1175D01*
X1060D01*
Y1174D01*
X1059D01*
Y1174D01*
X1059D01*
Y1173D01*
X1057D01*
Y1173D01*
X1056D01*
Y1173D01*
X1044D01*
Y1173D01*
X1043D01*
Y1173D01*
Y1174D01*
Y1174D01*
X1043D01*
Y1175D01*
Y1175D01*
Y1175D01*
X1043D01*
Y1176D01*
X1043D01*
Y1176D01*
X1054D01*
Y1177D01*
X1056D01*
Y1177D01*
X1057D01*
Y1178D01*
X1058D01*
Y1178D01*
X1059D01*
Y1178D01*
Y1179D01*
X1059D01*
Y1179D01*
X1060D01*
Y1180D01*
Y1180D01*
X1060D01*
Y1180D01*
X1060D01*
Y1181D01*
Y1181D01*
Y1182D01*
Y1182D01*
X1061D01*
Y1182D01*
Y1183D01*
Y1183D01*
X1061D01*
Y1184D01*
Y1184D01*
Y1185D01*
Y1185D01*
Y1185D01*
Y1186D01*
Y1186D01*
Y1187D01*
Y1187D01*
Y1187D01*
X1061D01*
Y1188D01*
Y1188D01*
Y1189D01*
X1060D01*
Y1189D01*
Y1190D01*
Y1190D01*
X1060D01*
Y1190D01*
Y1191D01*
X1060D01*
Y1191D01*
X1059D01*
Y1192D01*
Y1192D01*
X1059D01*
Y1192D01*
X1058D01*
Y1193D01*
X1057D01*
Y1193D01*
X1057D01*
Y1194D01*
X1046D01*
Y1193D01*
Y1193D01*
Y1192D01*
Y1192D01*
Y1192D01*
Y1191D01*
Y1191D01*
Y1190D01*
Y1190D01*
Y1190D01*
Y1189D01*
Y1189D01*
Y1188D01*
X1046D01*
Y1188D01*
X1045D01*
Y1187D01*
X1044D01*
Y1188D01*
X1043D01*
Y1188D01*
X1043D01*
Y1189D01*
Y1189D01*
Y1190D01*
X1043D01*
Y1190D01*
Y1190D01*
Y1191D01*
Y1191D01*
Y1192D01*
Y1192D01*
Y1192D01*
Y1193D01*
Y1193D01*
Y1194D01*
Y1194D01*
Y1195D01*
Y1195D01*
Y1195D01*
Y1196D01*
Y1196D01*
X1043D01*
Y1197D01*
X1043D01*
Y1197D01*
X1043D01*
Y1197D01*
X1043D01*
Y1198D01*
X1056D01*
Y1197D01*
D02*
G37*
G36*
X979D02*
X980D01*
Y1197D01*
Y1197D01*
X980D01*
Y1196D01*
Y1196D01*
Y1195D01*
Y1195D01*
Y1195D01*
Y1194D01*
Y1194D01*
Y1193D01*
Y1193D01*
Y1192D01*
Y1192D01*
Y1192D01*
Y1191D01*
Y1191D01*
Y1190D01*
Y1190D01*
Y1190D01*
Y1189D01*
Y1189D01*
Y1188D01*
Y1188D01*
Y1187D01*
Y1187D01*
Y1187D01*
Y1186D01*
Y1186D01*
Y1185D01*
Y1185D01*
Y1185D01*
Y1184D01*
Y1184D01*
Y1183D01*
Y1183D01*
Y1182D01*
Y1182D01*
Y1182D01*
Y1181D01*
Y1181D01*
Y1180D01*
Y1180D01*
Y1180D01*
Y1179D01*
Y1179D01*
Y1178D01*
Y1178D01*
Y1178D01*
Y1177D01*
Y1177D01*
Y1176D01*
Y1176D01*
Y1175D01*
Y1175D01*
Y1175D01*
Y1174D01*
X980D01*
Y1174D01*
Y1173D01*
Y1173D01*
X979D01*
Y1173D01*
X977D01*
Y1173D01*
X977D01*
Y1173D01*
X977D01*
Y1174D01*
Y1174D01*
X976D01*
Y1175D01*
Y1175D01*
Y1175D01*
Y1176D01*
Y1176D01*
Y1177D01*
Y1177D01*
Y1178D01*
Y1178D01*
Y1178D01*
Y1179D01*
Y1179D01*
Y1180D01*
Y1180D01*
Y1180D01*
Y1181D01*
Y1181D01*
Y1182D01*
Y1182D01*
Y1182D01*
Y1183D01*
Y1183D01*
Y1184D01*
Y1184D01*
Y1185D01*
Y1185D01*
Y1185D01*
Y1186D01*
Y1186D01*
Y1187D01*
Y1187D01*
Y1187D01*
Y1188D01*
Y1188D01*
Y1189D01*
Y1189D01*
Y1190D01*
Y1190D01*
Y1190D01*
Y1191D01*
Y1191D01*
Y1192D01*
Y1192D01*
Y1192D01*
Y1193D01*
Y1193D01*
Y1194D01*
X971D01*
Y1194D01*
X970D01*
Y1195D01*
X969D01*
Y1195D01*
Y1195D01*
Y1196D01*
X969D01*
Y1196D01*
Y1197D01*
X969D01*
Y1197D01*
Y1197D01*
X970D01*
Y1198D01*
X979D01*
Y1197D01*
D02*
G37*
G36*
X962D02*
X962D01*
Y1197D01*
Y1197D01*
Y1196D01*
Y1196D01*
X962D01*
Y1195D01*
Y1195D01*
Y1195D01*
Y1194D01*
Y1194D01*
Y1193D01*
Y1193D01*
Y1192D01*
Y1192D01*
Y1192D01*
Y1191D01*
Y1191D01*
Y1190D01*
Y1190D01*
Y1190D01*
Y1189D01*
Y1189D01*
Y1188D01*
Y1188D01*
Y1187D01*
Y1187D01*
Y1187D01*
Y1186D01*
Y1186D01*
Y1185D01*
Y1185D01*
Y1185D01*
Y1184D01*
Y1184D01*
Y1183D01*
Y1183D01*
Y1182D01*
Y1182D01*
Y1182D01*
Y1181D01*
Y1181D01*
Y1180D01*
Y1180D01*
Y1180D01*
Y1179D01*
Y1179D01*
Y1178D01*
Y1178D01*
Y1178D01*
Y1177D01*
Y1177D01*
Y1176D01*
Y1176D01*
Y1175D01*
Y1175D01*
Y1175D01*
X962D01*
Y1174D01*
Y1174D01*
Y1173D01*
X962D01*
Y1173D01*
X961D01*
Y1173D01*
X959D01*
Y1173D01*
X959D01*
Y1173D01*
Y1174D01*
X958D01*
Y1174D01*
X959D01*
Y1175D01*
Y1175D01*
Y1175D01*
Y1176D01*
Y1176D01*
Y1177D01*
Y1177D01*
Y1178D01*
Y1178D01*
Y1178D01*
Y1179D01*
Y1179D01*
Y1180D01*
Y1180D01*
Y1180D01*
Y1181D01*
Y1181D01*
Y1182D01*
Y1182D01*
Y1182D01*
Y1183D01*
Y1183D01*
Y1184D01*
Y1184D01*
Y1185D01*
Y1185D01*
Y1185D01*
Y1186D01*
Y1186D01*
Y1187D01*
Y1187D01*
Y1187D01*
Y1188D01*
Y1188D01*
Y1189D01*
Y1189D01*
Y1190D01*
Y1190D01*
Y1190D01*
Y1191D01*
Y1191D01*
Y1192D01*
Y1192D01*
Y1192D01*
Y1193D01*
Y1193D01*
Y1194D01*
Y1194D01*
Y1195D01*
Y1195D01*
Y1195D01*
Y1196D01*
Y1196D01*
X958D01*
Y1197D01*
X959D01*
Y1197D01*
Y1197D01*
X959D01*
Y1198D01*
X962D01*
Y1197D01*
D02*
G37*
G36*
X2550Y339D02*
X2550Y339D01*
X2531D01*
Y358D01*
X2550D01*
Y339D01*
D02*
G37*
G36*
X1901D02*
X1901Y339D01*
X1881D01*
Y358D01*
X1901D01*
Y339D01*
D02*
G37*
G36*
X2373Y339D02*
X2531D01*
Y289D01*
X2373D01*
Y339D01*
X2353D01*
Y358D01*
X2373D01*
Y339D01*
D02*
G37*
G36*
X1723D02*
X1881D01*
Y289D01*
X1723D01*
Y339D01*
X1704D01*
Y358D01*
X1723D01*
Y339D01*
D02*
G37*
G36*
X2531Y181D02*
X2550D01*
Y161D01*
X2550Y161D01*
X2531D01*
Y181D01*
X2373D01*
Y230D01*
X2531D01*
Y181D01*
D02*
G37*
G36*
X2373Y161D02*
X2353D01*
Y181D01*
X2373D01*
Y161D01*
D02*
G37*
G36*
X1881Y181D02*
X1901D01*
Y161D01*
X1901Y161D01*
X1881D01*
Y181D01*
X1723D01*
Y230D01*
X1881D01*
Y181D01*
D02*
G37*
G36*
X1723Y161D02*
X1704D01*
Y181D01*
X1723D01*
Y161D01*
D02*
G37*
%LPC*%
G36*
X1071Y1251D02*
X1070D01*
Y1251D01*
Y1250D01*
Y1250D01*
Y1249D01*
Y1249D01*
Y1248D01*
Y1248D01*
Y1248D01*
Y1247D01*
Y1247D01*
Y1246D01*
Y1246D01*
Y1246D01*
Y1245D01*
Y1245D01*
Y1244D01*
Y1244D01*
Y1244D01*
Y1243D01*
X1071D01*
Y1244D01*
Y1244D01*
Y1244D01*
Y1245D01*
Y1245D01*
Y1246D01*
Y1246D01*
Y1246D01*
Y1247D01*
Y1247D01*
Y1248D01*
Y1248D01*
Y1248D01*
Y1249D01*
Y1249D01*
Y1250D01*
Y1250D01*
Y1251D01*
Y1251D01*
D02*
G37*
G36*
X1067D02*
X1066D01*
Y1251D01*
Y1250D01*
Y1250D01*
Y1249D01*
Y1249D01*
Y1248D01*
Y1248D01*
Y1248D01*
Y1247D01*
Y1247D01*
Y1246D01*
Y1246D01*
Y1246D01*
Y1245D01*
Y1245D01*
Y1244D01*
Y1244D01*
Y1244D01*
Y1243D01*
X1067D01*
Y1244D01*
Y1244D01*
Y1244D01*
Y1245D01*
Y1245D01*
Y1246D01*
Y1246D01*
Y1246D01*
Y1247D01*
Y1247D01*
Y1248D01*
Y1248D01*
Y1248D01*
Y1249D01*
Y1249D01*
Y1250D01*
Y1250D01*
Y1251D01*
Y1251D01*
D02*
G37*
%LPD*%
D10*
X2760Y1043D02*
G03*
X2759Y1043I-1J74D01*
G01*
X220Y1154D02*
G03*
X220Y1154I-4J0D01*
G01*
D11*
X216Y611D02*
Y658D01*
X271Y611D02*
Y658D01*
X433Y933D02*
X480D01*
X433Y988D02*
X480D01*
X161Y984D02*
X209D01*
X161Y929D02*
X209D01*
X1087Y638D02*
Y685D01*
X1142Y638D02*
Y685D01*
X2861Y1202D02*
X2879D01*
X2861Y1032D02*
X2878D01*
X2861Y1032D02*
Y1202D01*
X2639D02*
X2655D01*
X2639Y1032D02*
X2655D01*
X2655Y1032D02*
Y1202D01*
X1520Y256D02*
X1567D01*
X1520Y311D02*
X1567D01*
X1079Y287D02*
Y335D01*
X1024Y287D02*
Y335D01*
X1327Y402D02*
X1374D01*
X1327Y346D02*
X1374D01*
D12*
X209Y523D02*
X780D01*
X209Y11D02*
Y523D01*
Y11D02*
X780D01*
Y523D01*
X774Y891D02*
Y1006D01*
X1185D01*
Y750D02*
Y1006D01*
X774Y750D02*
X1185D01*
X774D02*
Y891D01*
X1870Y720D02*
Y886D01*
X2190D01*
Y596D02*
Y886D01*
X1870Y596D02*
X2190D01*
X1870D02*
Y720D01*
X404Y796D02*
X475D01*
X522D01*
X404Y685D02*
Y796D01*
X522Y594D02*
Y796D01*
X404Y594D02*
X522D01*
X404D02*
Y685D01*
X420Y598D02*
Y796D01*
X1881Y161D02*
X2373D01*
X1881Y358D02*
X2373D01*
X2334Y181D02*
X2373D01*
X2334D02*
Y339D01*
X2373D01*
X2531Y181D02*
X2609D01*
X2531Y339D02*
X2609D01*
X2531Y142D02*
Y181D01*
X2373Y142D02*
X2531D01*
X2373D02*
Y181D01*
X2531Y339D02*
Y378D01*
X2373D02*
X2531D01*
X2373Y339D02*
Y378D01*
Y181D02*
X2531D01*
Y339D01*
X2373D02*
X2531D01*
X2373Y181D02*
Y339D01*
X1881Y181D02*
X1920D01*
Y339D01*
X1881D02*
X1920D01*
X1881Y142D02*
Y181D01*
X1723Y142D02*
X1881D01*
X1723D02*
Y181D01*
X1881Y339D02*
Y378D01*
X1723D02*
X1881D01*
X1723Y339D02*
Y378D01*
Y181D02*
X1881D01*
Y339D01*
X1723D02*
X1881D01*
X1645Y181D02*
X1723D01*
Y339D01*
X1645D02*
X1723D01*
X1645Y63D02*
X2609D01*
Y457D01*
X1645D02*
X2609D01*
X1645Y63D02*
Y457D01*
X2719Y1245D02*
X2729Y1255D01*
X2788D01*
X2798Y1245D01*
X2719Y989D02*
X2729Y979D01*
X2788D02*
X2798Y989D01*
X2729Y979D02*
X2788D01*
X2639Y989D02*
Y1245D01*
X2879Y989D02*
Y1245D01*
X520Y1276D02*
X559D01*
X500D02*
Y1335D01*
X461Y1276D02*
Y1335D01*
X421Y1276D02*
X461D01*
X421D02*
Y1335D01*
X343Y1276D02*
Y1335D01*
X303Y1276D02*
X343D01*
X303D02*
Y1335D01*
X264Y1276D02*
Y1335D01*
X205Y1276D02*
X244D01*
X579Y1138D02*
Y1197D01*
Y1335D01*
X362Y1118D02*
X500D01*
X185Y1335D02*
X579D01*
X559Y1118D02*
X579Y1138D01*
X500Y1118D02*
X559D01*
X205D02*
X362D01*
X185Y1138D02*
X205Y1118D01*
X185Y1138D02*
Y1335D01*
Y1276D02*
X205D01*
X244D02*
X264D01*
X500D02*
X520D01*
X559D02*
X579D01*
X2766Y653D02*
Y660D01*
X2561D02*
X2766D01*
X2561Y560D02*
Y660D01*
Y560D02*
X2766D01*
Y653D01*
X2228Y1319D02*
X2425D01*
X2228Y1161D02*
Y1319D01*
Y1161D02*
X2248Y1142D01*
X2425D01*
X2425Y1319D02*
X2622D01*
X2425Y1142D02*
X2602D01*
Y1142D02*
X2622Y1161D01*
Y1319D01*
X2228Y1287D02*
X2622D01*
X1791Y1323D02*
X1988D01*
X1791Y1165D02*
Y1323D01*
Y1165D02*
X1811Y1146D01*
X1988D01*
X1988Y1323D02*
X2185D01*
X1988Y1146D02*
X2165D01*
Y1146D02*
X2185Y1165D01*
Y1323D01*
X1791Y1291D02*
X2185D01*
X836Y627D02*
X976D01*
Y686D01*
X836D02*
X976D01*
X836Y627D02*
Y686D01*
X1032Y392D02*
X1095D01*
Y552D01*
X1015D02*
X1095D01*
X1015Y392D02*
Y552D01*
Y392D02*
X1032D01*
X1446Y149D02*
Y163D01*
X1286Y149D02*
X1446D01*
X1286D02*
Y229D01*
X1446D01*
Y163D02*
Y229D01*
X2829Y732D02*
Y831D01*
X2494Y732D02*
X2829D01*
X2494D02*
Y890D01*
X2829D01*
Y831D02*
Y890D01*
D13*
X1677Y1100D02*
X1727D01*
X1677D02*
Y1260D01*
X1727D01*
X1340Y1033D02*
Y1333D01*
Y1033D02*
X1734D01*
Y1333D01*
X1340D02*
X1734D01*
X2883Y267D02*
X2928D01*
X2883Y367D02*
X2933D01*
X3233Y247D02*
X3253Y267D01*
X3043Y247D02*
X3233D01*
Y387D02*
X3253Y367D01*
X3043Y387D02*
X3233D01*
X3303Y277D02*
Y357D01*
X3293Y267D02*
X3303Y277D01*
X3043Y267D02*
X3293D01*
Y367D02*
X3303Y357D01*
X3273Y367D02*
X3293D01*
X3043D02*
X3273D01*
X2923Y217D02*
X3043D01*
Y417D01*
X2923D02*
X3043D01*
X2903Y217D02*
X2923D01*
X2903D02*
Y247D01*
X2933D01*
Y257D01*
X2903Y287D02*
Y347D01*
Y287D02*
X2933D01*
Y257D02*
Y287D01*
X2903Y347D02*
X2933D01*
X2903Y417D02*
X2923D01*
X2903Y387D02*
Y417D01*
Y387D02*
X2933D01*
Y347D02*
Y387D01*
X2913Y591D02*
X2992D01*
Y906D01*
X2913D02*
X2992D01*
X2913Y1057D02*
X3307D01*
Y439D02*
Y1057D01*
X2913Y439D02*
X3307D01*
X2913D02*
Y1057D01*
D14*
X976Y1164D02*
Y1142D01*
Y1149D01*
X991Y1164D01*
X980Y1153D01*
X991Y1142D01*
X998D02*
X1005D01*
X1001D01*
Y1156D01*
X998D01*
X1030D02*
X1019D01*
X1016Y1153D01*
Y1146D01*
X1019Y1142D01*
X1030D01*
X1037D02*
Y1164D01*
Y1149D02*
X1048Y1156D01*
X1037Y1149D02*
X1048Y1142D01*
X1059Y1164D02*
Y1142D01*
X1069D01*
X1073Y1146D01*
Y1149D01*
Y1153D01*
X1069Y1156D01*
X1059D01*
X1084Y1142D02*
X1091D01*
X1094Y1146D01*
Y1153D01*
X1091Y1156D01*
X1084D01*
X1080Y1153D01*
Y1146D01*
X1084Y1142D01*
X1105Y1156D02*
X1112D01*
X1116Y1153D01*
Y1142D01*
X1105D01*
X1102Y1146D01*
X1105Y1149D01*
X1116D01*
X1123Y1156D02*
Y1142D01*
Y1149D01*
X1127Y1153D01*
X1130Y1156D01*
X1134D01*
X1159Y1164D02*
Y1142D01*
X1148D01*
X1145Y1146D01*
Y1153D01*
X1148Y1156D01*
X1159D01*
D15*
X1031Y1126D02*
X1038D01*
X1034D01*
Y1114D01*
X1048D02*
X1044D01*
X1042Y1116D01*
Y1120D01*
X1044Y1122D01*
X1048D01*
X1050Y1120D01*
Y1118D01*
X1042D01*
X1054Y1114D02*
X1060D01*
X1062Y1116D01*
X1060Y1118D01*
X1056D01*
X1054Y1120D01*
X1056Y1122D01*
X1062D01*
X1068Y1124D02*
Y1122D01*
X1066D01*
X1070D01*
X1068D01*
Y1116D01*
X1070Y1114D01*
X1082D02*
X1078D01*
X1076Y1116D01*
Y1120D01*
X1078Y1122D01*
X1082D01*
X1084Y1120D01*
Y1118D01*
X1076D01*
X1099Y1114D02*
X1103D01*
X1101D01*
Y1126D01*
X1099Y1124D01*
D16*
X1380Y1101D02*
X1406D01*
X1380Y1259D02*
X1406D01*
X1393Y1272D02*
Y1245D01*
X2963Y367D02*
X2989D01*
X2963Y267D02*
X2989D01*
X2976Y280D02*
Y254D01*
X104Y560D02*
X44D01*
Y590D01*
X54Y600D01*
X74D01*
X84Y590D01*
Y560D01*
Y580D02*
X104Y600D01*
Y620D02*
Y640D01*
Y630D01*
X44D01*
X54Y620D01*
X44Y670D02*
Y710D01*
X54D01*
X94Y670D01*
X104D01*
X531Y598D02*
Y548D01*
X541Y538D01*
X561D01*
X571Y548D01*
Y598D01*
X591Y538D02*
X611D01*
X601D01*
Y598D01*
X591Y588D01*
X2918Y1157D02*
X2958Y1097D01*
Y1157D02*
X2918Y1097D01*
X3018D02*
X2978D01*
X3018Y1137D01*
Y1147D01*
X3008Y1157D01*
X2988D01*
X2978Y1147D01*
X1642Y1005D02*
X1682Y945D01*
Y1005D02*
X1642Y945D01*
X1702D02*
X1722D01*
X1712D01*
Y1005D01*
X1702Y995D01*
X2962Y1238D02*
X2952Y1248D01*
X2932D01*
X2922Y1238D01*
Y1228D01*
X2932Y1218D01*
X2952D01*
X2962Y1208D01*
Y1198D01*
X2952Y1188D01*
X2932D01*
X2922Y1198D01*
X2982Y1188D02*
X3002D01*
X2992D01*
Y1248D01*
X2982Y1238D01*
X1065Y567D02*
X1005D01*
Y597D01*
X1015Y607D01*
X1035D01*
X1045Y597D01*
Y567D01*
Y587D02*
X1065Y607D01*
Y627D02*
Y647D01*
Y637D01*
X1005D01*
X1015Y627D01*
X1005Y717D02*
X1015Y697D01*
X1035Y677D01*
X1055D01*
X1065Y687D01*
Y707D01*
X1055Y717D01*
X1045D01*
X1035Y707D01*
Y677D01*
X1422Y352D02*
Y412D01*
X1452D01*
X1462Y402D01*
Y382D01*
X1452Y372D01*
X1422D01*
X1442D02*
X1462Y352D01*
X1482Y402D02*
X1492Y412D01*
X1512D01*
X1522Y402D01*
Y392D01*
X1512Y382D01*
X1522Y372D01*
Y362D01*
X1512Y352D01*
X1492D01*
X1482Y362D01*
Y372D01*
X1492Y382D01*
X1482Y392D01*
Y402D01*
X1492Y382D02*
X1512D01*
X1498Y167D02*
Y227D01*
X1528D01*
X1538Y217D01*
Y197D01*
X1528Y187D01*
X1498D01*
X1518D02*
X1538Y167D01*
X1558Y227D02*
X1598D01*
Y217D01*
X1558Y177D01*
Y167D01*
X299Y1007D02*
Y1067D01*
X329D01*
X339Y1057D01*
Y1037D01*
X329Y1027D01*
X299D01*
X319D02*
X339Y1007D01*
X399Y1067D02*
X379Y1057D01*
X359Y1037D01*
Y1017D01*
X369Y1007D01*
X389D01*
X399Y1017D01*
Y1027D01*
X389Y1037D01*
X359D01*
X2500Y924D02*
Y984D01*
X2530D01*
X2540Y974D01*
Y954D01*
X2530Y944D01*
X2500D01*
X2520D02*
X2540Y924D01*
X2590D02*
Y984D01*
X2560Y954D01*
X2600D01*
X1014Y163D02*
Y223D01*
X1044D01*
X1054Y213D01*
Y193D01*
X1044Y183D01*
X1014D01*
X1034D02*
X1054Y163D01*
X1074Y213D02*
X1084Y223D01*
X1104D01*
X1114Y213D01*
Y203D01*
X1104Y193D01*
X1094D01*
X1104D01*
X1114Y183D01*
Y173D01*
X1104Y163D01*
X1084D01*
X1074Y173D01*
X123Y1012D02*
Y1072D01*
X153D01*
X163Y1062D01*
Y1042D01*
X153Y1032D01*
X123D01*
X143D02*
X163Y1012D01*
X223D02*
X183D01*
X223Y1052D01*
Y1062D01*
X213Y1072D01*
X193D01*
X183Y1062D01*
X2364Y1012D02*
Y1051D01*
X2354Y1061D01*
X2334D01*
X2324Y1051D01*
Y1012D01*
X2334Y1002D01*
X2354D01*
X2344Y1021D02*
X2364Y1002D01*
X2354D02*
X2364Y1012D01*
X2384Y1051D02*
X2394Y1061D01*
X2414D01*
X2424Y1051D01*
Y1041D01*
X2414Y1031D01*
X2404D01*
X2414D01*
X2424Y1021D01*
Y1012D01*
X2414Y1002D01*
X2394D01*
X2384Y1012D01*
X1907Y1069D02*
Y1109D01*
X1897Y1119D01*
X1877D01*
X1867Y1109D01*
Y1069D01*
X1877Y1059D01*
X1897D01*
X1887Y1079D02*
X1907Y1059D01*
X1897D02*
X1907Y1069D01*
X1967Y1059D02*
X1927D01*
X1967Y1099D01*
Y1109D01*
X1957Y1119D01*
X1937D01*
X1927Y1109D01*
X138Y1252D02*
Y1292D01*
X128Y1302D01*
X108D01*
X98Y1292D01*
Y1252D01*
X108Y1242D01*
X128D01*
X118Y1262D02*
X138Y1242D01*
X128D02*
X138Y1252D01*
X158Y1242D02*
X178D01*
X168D01*
Y1302D01*
X158Y1292D01*
X103Y204D02*
Y144D01*
X143D01*
X163D02*
X183D01*
X173D01*
Y204D01*
X163Y194D01*
X2958Y197D02*
X2938D01*
X2948D01*
Y147D01*
X2938Y137D01*
X2928D01*
X2918Y147D01*
X2978Y137D02*
X2998D01*
X2988D01*
Y197D01*
X2978Y187D01*
X1905Y538D02*
X1865D01*
Y508D01*
X1885D01*
X1865D01*
Y478D01*
X1925D02*
X1945D01*
X1935D01*
Y538D01*
X1925Y528D01*
X902Y980D02*
Y920D01*
X932D01*
X942Y930D01*
Y970D01*
X932Y980D01*
X902D01*
X962Y920D02*
X982D01*
X972D01*
Y980D01*
X962Y970D01*
X1205Y175D02*
X1195Y185D01*
X1175D01*
X1165Y175D01*
Y135D01*
X1175Y125D01*
X1195D01*
X1205Y135D01*
X1265Y185D02*
X1225D01*
Y155D01*
X1245Y165D01*
X1255D01*
X1265Y155D01*
Y135D01*
X1255Y125D01*
X1235D01*
X1225Y135D01*
X929Y456D02*
X919Y466D01*
X899D01*
X889Y456D01*
Y416D01*
X899Y406D01*
X919D01*
X929Y416D01*
X979Y406D02*
Y466D01*
X949Y436D01*
X989D01*
X851Y603D02*
X841Y613D01*
X821D01*
X811Y603D01*
Y563D01*
X821Y553D01*
X841D01*
X851Y563D01*
X871Y603D02*
X881Y613D01*
X901D01*
X911Y603D01*
Y593D01*
X901Y583D01*
X891D01*
X901D01*
X911Y573D01*
Y563D01*
X901Y553D01*
X881D01*
X871Y563D01*
X2035Y954D02*
X2025Y964D01*
X2005D01*
X1995Y954D01*
Y914D01*
X2005Y904D01*
X2025D01*
X2035Y914D01*
X2095Y904D02*
X2055D01*
X2095Y944D01*
Y954D01*
X2085Y964D01*
X2065D01*
X2055Y954D01*
X2820Y631D02*
X2810Y641D01*
X2790D01*
X2780Y631D01*
Y591D01*
X2790Y581D01*
X2810D01*
X2820Y591D01*
X2840Y581D02*
X2860D01*
X2850D01*
Y641D01*
X2840Y631D01*
D17*
X1161Y878D02*
D03*
M02*
