G04*
G04 #@! TF.GenerationSoftware,Altium Limited,Altium Designer,21.6.1 (37)*
G04*
G04 Layer_Color=12632256*
%FSLAX23Y23*%
%MOIN*%
G70*
G04*
G04 #@! TF.SameCoordinates,C1C5D9C5-2355-4A3C-9FD6-11C0A888820F*
G04*
G04*
G04 #@! TF.FilePolarity,Positive*
G04*
G01*
G75*
%ADD53C,0.047*%
%ADD54C,0.079*%
%ADD55C,0.059*%
%ADD56O,0.205X0.100*%
%ADD57O,0.060X0.118*%
%ADD58O,0.120X0.060*%
%ADD59O,0.079X0.122*%
D53*
X1273Y492D02*
D03*
Y592D02*
D03*
Y692D02*
D03*
Y792D02*
D03*
X1373Y492D02*
D03*
Y592D02*
D03*
Y692D02*
D03*
Y792D02*
D03*
D54*
X3150Y1173D02*
D03*
Y150D02*
D03*
X866Y1173D02*
D03*
Y150D02*
D03*
D55*
X1684Y260D02*
D03*
X2570D02*
D03*
X2670Y989D02*
D03*
Y1245D02*
D03*
X2847Y989D02*
D03*
Y1245D02*
D03*
D56*
X1537Y1102D02*
D03*
Y1258D02*
D03*
X3110Y670D02*
D03*
Y514D02*
D03*
Y826D02*
D03*
Y982D02*
D03*
D57*
X382Y1197D02*
D03*
X283D02*
D03*
X480D02*
D03*
D58*
X2813Y267D02*
D03*
Y367D02*
D03*
D59*
X2525Y1201D02*
D03*
X2325D02*
D03*
X2425D02*
D03*
X2088Y1205D02*
D03*
X1888D02*
D03*
X1988D02*
D03*
M02*
