G04*
G04 #@! TF.GenerationSoftware,Altium Limited,Altium Designer,21.6.1 (37)*
G04*
G04 Layer_Color=16711935*
%FSLAX23Y23*%
%MOIN*%
G70*
G04*
G04 #@! TF.SameCoordinates,C1C5D9C5-2355-4A3C-9FD6-11C0A888820F*
G04*
G04*
G04 #@! TF.FilePolarity,Negative*
G04*
G01*
G75*
%ADD30R,0.059X0.036*%
%ADD32R,0.097X0.157*%
%ADD36R,0.036X0.059*%
%ADD42C,0.055*%
%ADD43C,0.087*%
%ADD44C,0.067*%
%ADD45O,0.213X0.108*%
%ADD46O,0.068X0.126*%
%ADD47O,0.128X0.068*%
%ADD48O,0.087X0.130*%
%ADD49C,0.032*%
%ADD69R,0.134X0.148*%
%ADD70R,0.157X0.097*%
%ADD71R,0.093X0.116*%
%ADD72O,0.051X0.031*%
%ADD73O,0.059X0.057*%
%ADD74R,0.028X0.032*%
%ADD75C,0.058*%
%ADD76C,0.048*%
D30*
X1291Y256D02*
D03*
Y169D02*
D03*
X1740Y1134D02*
D03*
Y1220D02*
D03*
D32*
X551Y315D02*
D03*
X295D02*
D03*
D36*
X1071Y602D02*
D03*
X984D02*
D03*
X1539Y445D02*
D03*
X1626D02*
D03*
X2327Y1059D02*
D03*
X2240D02*
D03*
X570Y1242D02*
D03*
X656D02*
D03*
X1630Y618D02*
D03*
X1543D02*
D03*
D42*
X1273Y492D02*
D03*
Y592D02*
D03*
Y692D02*
D03*
Y792D02*
D03*
X1373Y492D02*
D03*
Y592D02*
D03*
Y692D02*
D03*
Y792D02*
D03*
D43*
X3150Y1173D02*
D03*
Y150D02*
D03*
X866Y1173D02*
D03*
Y150D02*
D03*
D44*
X1684Y260D02*
D03*
X2570D02*
D03*
X2670Y989D02*
D03*
Y1245D02*
D03*
X2847Y989D02*
D03*
Y1245D02*
D03*
D45*
X1537Y1102D02*
D03*
Y1258D02*
D03*
X3110Y670D02*
D03*
Y514D02*
D03*
Y826D02*
D03*
Y982D02*
D03*
D46*
X382Y1197D02*
D03*
X283D02*
D03*
X480D02*
D03*
D47*
X2813Y267D02*
D03*
Y367D02*
D03*
D48*
X2525Y1201D02*
D03*
X2325D02*
D03*
X2425D02*
D03*
X2088Y1205D02*
D03*
X1888D02*
D03*
X1988D02*
D03*
D49*
X467Y640D02*
D03*
X2007Y795D02*
D03*
X1168Y477D02*
D03*
X1480Y441D02*
D03*
X1316Y924D02*
D03*
X1793Y790D02*
D03*
X789Y1042D02*
D03*
X2433Y597D02*
D03*
X841Y479D02*
D03*
X1201Y272D02*
D03*
X1462Y970D02*
D03*
X343Y836D02*
D03*
X598Y824D02*
D03*
X1694Y482D02*
D03*
X1977Y233D02*
D03*
X1118Y1074D02*
D03*
X1282Y304D02*
D03*
X631Y618D02*
D03*
X138Y886D02*
D03*
X669Y787D02*
D03*
X1313Y1113D02*
D03*
X1157Y201D02*
D03*
X1720Y657D02*
D03*
X961Y850D02*
D03*
D69*
X236Y580D02*
D03*
Y759D02*
D03*
D70*
X2431Y446D02*
D03*
Y702D02*
D03*
X2716Y598D02*
D03*
Y854D02*
D03*
D71*
X484Y1008D02*
D03*
X658D02*
D03*
D72*
X1028Y1011D02*
D03*
Y1061D02*
D03*
Y1111D02*
D03*
Y1161D02*
D03*
X1248Y1011D02*
D03*
Y1061D02*
D03*
Y1111D02*
D03*
Y1161D02*
D03*
D73*
X2181Y190D02*
D03*
X1819D02*
D03*
X2181Y290D02*
D03*
X1819D02*
D03*
X2169Y537D02*
D03*
X1807D02*
D03*
X2169Y637D02*
D03*
X1807D02*
D03*
D74*
X170Y1039D02*
D03*
X205Y969D02*
D03*
X240Y1039D02*
D03*
D75*
X2686Y342D02*
D03*
X2638Y451D02*
D03*
X2256Y685D02*
D03*
D76*
X1374Y979D02*
D03*
M02*
