G04*
G04 #@! TF.GenerationSoftware,Altium Limited,Altium Designer,21.6.1 (37)*
G04*
G04 Layer_Physical_Order=1*
G04 Layer_Color=255*
%FSLAX23Y23*%
%MOIN*%
G70*
G04*
G04 #@! TF.SameCoordinates,0FF5D6F2-8617-485F-BAA8-9F26F2E2BD2E*
G04*
G04*
G04 #@! TF.FilePolarity,Positive*
G04*
G01*
G75*
%ADD10C,0.015*%
%ADD15C,0.010*%
%ADD17R,0.118X0.138*%
%ADD18R,0.152X0.217*%
%ADD19R,0.089X0.149*%
%ADD20R,0.050X0.256*%
%ADD21R,0.047X0.020*%
%ADD22O,0.047X0.020*%
%ADD23R,0.028X0.051*%
%ADD24R,0.051X0.028*%
%ADD25R,0.039X0.067*%
%ADD26R,0.031X0.028*%
%ADD27R,0.053X0.047*%
%ADD28R,0.039X0.047*%
%ADD50C,0.010*%
%ADD51C,0.020*%
%ADD52C,0.050*%
%ADD53O,0.205X0.100*%
%ADD54C,0.047*%
%ADD55C,0.079*%
%ADD56C,0.059*%
%ADD57O,0.060X0.118*%
%ADD58O,0.120X0.060*%
%ADD59O,0.079X0.122*%
%ADD60C,0.050*%
%ADD61C,0.024*%
%ADD62C,0.040*%
G36*
X162Y800D02*
X148Y806D01*
X128Y762D01*
D01*
X148Y738D01*
X162Y772D01*
Y800D01*
D02*
G37*
G36*
X2327Y548D02*
D01*
X2238Y498D01*
X2273Y483D01*
X2334Y516D01*
X2327Y498D01*
X2327Y548D01*
D02*
G37*
G36*
X2759Y1270D02*
D01*
X2684Y1220D01*
X2734Y1170D01*
X2784D01*
X2834Y1220D01*
X2759Y1270D01*
D02*
G37*
D10*
X907Y510D02*
Y628D01*
X930Y651D01*
X907Y510D02*
X1039D01*
X1049Y520D01*
X930Y651D02*
X937Y657D01*
X2074Y811D02*
X2076D01*
X1049Y520D02*
X1055Y514D01*
D15*
X1279Y432D02*
X1288Y437D01*
X1313Y1111D02*
Y1113D01*
X1587Y272D02*
Y283D01*
X1394Y362D02*
Y368D01*
X1385Y353D02*
X1394Y362D01*
X1379Y353D02*
X1385D01*
X561Y621D02*
X563Y620D01*
X629D02*
X631Y618D01*
X547Y771D02*
X561D01*
X1102Y705D02*
X1114D01*
D17*
X2760Y811D02*
D03*
X2563D02*
D03*
D18*
X690Y267D02*
D03*
X298D02*
D03*
D19*
X1085Y878D02*
D03*
X829D02*
D03*
D20*
X2150Y736D02*
D03*
X1920D02*
D03*
D21*
X364Y771D02*
D03*
D22*
Y721D02*
D03*
Y671D02*
D03*
Y621D02*
D03*
X561Y771D02*
D03*
Y721D02*
D03*
Y671D02*
D03*
Y621D02*
D03*
D23*
X500Y961D02*
D03*
X413D02*
D03*
X142Y957D02*
D03*
X228D02*
D03*
X1587Y283D02*
D03*
X1500D02*
D03*
X1307Y374D02*
D03*
X1394D02*
D03*
D24*
X1114Y618D02*
D03*
Y705D02*
D03*
X1051Y354D02*
D03*
Y268D02*
D03*
D25*
X2724Y610D02*
D03*
X2598D02*
D03*
D26*
X874Y657D02*
D03*
X937D02*
D03*
D27*
X1055Y431D02*
D03*
Y514D02*
D03*
D28*
X1327Y189D02*
D03*
X1406D02*
D03*
D50*
X1279Y432D02*
D03*
D51*
X1288Y437D02*
G03*
X1324Y476I-54J86D01*
G01*
X875Y765D02*
X961Y850D01*
X874Y660D02*
X875Y661D01*
Y765D01*
X874Y657D02*
Y660D01*
X360Y913D02*
X406D01*
X547Y771D01*
X138Y427D02*
Y762D01*
Y427D02*
X298Y267D01*
X138Y762D02*
X257Y881D01*
X372D01*
X138Y762D02*
Y886D01*
Y929D01*
X1004Y999D02*
X1079Y1074D01*
X1118D01*
X1324Y476D02*
Y829D01*
X1201Y353D02*
X1279Y432D01*
X1201Y272D02*
Y353D01*
X1298Y979D02*
X1374D01*
X1004Y803D02*
X1102Y705D01*
X1004Y803D02*
Y999D01*
X1273Y369D02*
X1303D01*
X1307Y373D01*
X1420Y925D02*
Y1004D01*
X1324Y829D02*
X1420Y925D01*
X1313Y1111D02*
X1420Y1004D01*
X1462Y916D02*
Y970D01*
Y916D02*
X1720Y657D01*
X1330Y304D02*
X1379Y353D01*
X372Y881D02*
X406Y846D01*
X317Y957D02*
X360Y913D01*
X2530Y609D02*
X2598D01*
X1328Y125D02*
Y189D01*
X366Y558D02*
Y621D01*
X388Y986D02*
X413Y961D01*
X353Y986D02*
X388D01*
X228Y957D02*
X317D01*
X406Y814D02*
Y846D01*
X364Y771D02*
X406Y814D01*
X307Y721D02*
X364D01*
X241Y787D02*
X307Y721D01*
X241Y787D02*
Y813D01*
X264Y836D01*
X343D01*
X496Y976D02*
X500Y972D01*
Y961D02*
Y972D01*
X598Y824D02*
Y849D01*
X580Y868D02*
X598Y849D01*
X580Y868D02*
Y869D01*
X500Y949D02*
X580Y869D01*
X500Y949D02*
Y961D01*
X691Y268D02*
X1051D01*
X690Y267D02*
X691Y268D01*
X1675Y482D02*
X1694D01*
X1466Y692D02*
X1675Y482D01*
X1587Y272D02*
X1741Y117D01*
X2039D01*
X2204Y281D01*
X1874Y233D02*
X1977D01*
X2204Y281D02*
Y400D01*
X2327Y523D01*
X1373Y592D02*
X1516D01*
X1874Y233D01*
X1213Y893D02*
X1298Y979D01*
X1213Y705D02*
Y893D01*
X1282Y304D02*
X1330D01*
X563Y620D02*
X629D01*
X498Y771D02*
X548Y721D01*
X561D01*
X364Y771D02*
X498D01*
X561Y671D02*
X575D01*
X669Y765D01*
Y787D01*
X669Y787D01*
X138Y953D02*
X142Y957D01*
X138Y929D02*
X138Y930D01*
Y953D01*
X1051Y354D02*
X1051D01*
X1055Y358D01*
Y431D01*
X1051Y354D02*
X1063D01*
X1394Y205D02*
Y362D01*
X1114Y244D02*
X1157Y201D01*
X1114Y244D02*
Y618D01*
X1126D02*
X1213Y705D01*
X1114Y618D02*
X1126D01*
X364Y671D02*
X435D01*
X467Y640D01*
X1373Y692D02*
X1466D01*
X1406Y189D02*
Y193D01*
X1480Y268D01*
X1496D01*
X1500Y272D01*
Y283D01*
X1394Y205D02*
X1406Y193D01*
X1327Y189D02*
Y193D01*
D52*
X828Y877D02*
X829Y878D01*
X691Y562D02*
X828Y700D01*
Y877D01*
X2676Y339D02*
Y370D01*
X2820Y514D02*
X3110D01*
X2676Y370D02*
X2820Y514D01*
X2624Y523D02*
X2660Y487D01*
X2668D01*
X2327Y523D02*
X2624D01*
X2668Y453D02*
Y487D01*
X2724Y543D01*
Y607D01*
X1085Y878D02*
X1104Y897D01*
Y991D01*
X1361Y1248D01*
X2724Y607D02*
X2787Y670D01*
X1920Y633D02*
X1942D01*
X2787Y670D02*
X3110D01*
X2076Y811D02*
X2150Y736D01*
X691Y268D02*
Y562D01*
X1590Y1258D02*
X1920Y927D01*
X1537Y1258D02*
X1590D01*
X1920Y736D02*
Y927D01*
Y633D02*
Y736D01*
X2052Y523D02*
X2327D01*
X2724Y607D02*
Y610D01*
X2664Y674D02*
Y895D01*
Y674D02*
X2724Y613D01*
Y610D02*
Y613D01*
X1942Y633D02*
X2052Y523D01*
X2846Y988D02*
X2847Y989D01*
X2846Y907D02*
Y988D01*
X2759Y1245D02*
X2847D01*
X2670D02*
X2759D01*
X2664Y895D02*
X2686Y917D01*
X2692D01*
X2759Y984D01*
Y1245D01*
X2760Y821D02*
X2846Y907D01*
X1361Y1248D02*
X1528D01*
X701Y878D02*
X829D01*
X478Y1101D02*
X701Y878D01*
X453Y1101D02*
X478D01*
X382Y1171D02*
Y1197D01*
Y1171D02*
X390Y1163D01*
X391D01*
X453Y1101D01*
X2760Y811D02*
Y821D01*
X2256Y685D02*
Y908D01*
X1988Y1175D02*
X2256Y908D01*
X1988Y1175D02*
Y1205D01*
X2760Y811D02*
X2794Y845D01*
X2525Y1171D02*
Y1201D01*
Y859D02*
Y1171D01*
Y859D02*
X2563Y821D01*
Y811D02*
Y821D01*
X2248Y1148D02*
Y1155D01*
X2203Y1201D02*
X2248Y1155D01*
X2457Y1103D02*
X2525Y1171D01*
X2092Y1201D02*
X2203D01*
X2294Y1103D02*
X2457D01*
X2088Y1205D02*
X2092Y1201D01*
X2248Y1148D02*
X2294Y1103D01*
D53*
X3110Y982D02*
D03*
Y826D02*
D03*
Y514D02*
D03*
Y670D02*
D03*
X1537Y1102D02*
D03*
Y1258D02*
D03*
D54*
X1273Y492D02*
D03*
Y592D02*
D03*
Y692D02*
D03*
Y792D02*
D03*
X1373Y492D02*
D03*
Y592D02*
D03*
Y692D02*
D03*
Y792D02*
D03*
D55*
X3150Y1173D02*
D03*
Y150D02*
D03*
X866Y1173D02*
D03*
Y150D02*
D03*
D56*
X1684Y260D02*
D03*
X2570D02*
D03*
X2670Y989D02*
D03*
Y1245D02*
D03*
X2847Y989D02*
D03*
Y1245D02*
D03*
D57*
X382Y1197D02*
D03*
X283D02*
D03*
X480D02*
D03*
D58*
X2810Y267D02*
D03*
Y367D02*
D03*
D59*
X2525Y1201D02*
D03*
X2325D02*
D03*
X2425D02*
D03*
X2088Y1205D02*
D03*
X1888D02*
D03*
X1988D02*
D03*
D60*
X2668Y453D02*
D03*
X2676Y339D02*
D03*
X2074Y811D02*
D03*
X2256Y685D02*
D03*
D61*
X1201Y272D02*
D03*
X907Y510D02*
D03*
X1273Y369D02*
D03*
X1462Y970D02*
D03*
X2530Y609D02*
D03*
X1328Y125D02*
D03*
X366Y558D02*
D03*
X353Y986D02*
D03*
X343Y836D02*
D03*
X598Y824D02*
D03*
X1694Y482D02*
D03*
X1977Y233D02*
D03*
X1118Y1074D02*
D03*
X1282Y304D02*
D03*
X631Y618D02*
D03*
X138Y886D02*
D03*
X669Y787D02*
D03*
X1313Y1113D02*
D03*
X1157Y201D02*
D03*
X467Y640D02*
D03*
X1720Y657D02*
D03*
X961Y850D02*
D03*
D62*
X1374Y979D02*
D03*
M02*
