G04*
G04 #@! TF.GenerationSoftware,Altium Limited,Altium Designer,21.6.1 (37)*
G04*
G04 Layer_Physical_Order=2*
G04 Layer_Color=16711680*
%FSLAX23Y23*%
%MOIN*%
G70*
G04*
G04 #@! TF.SameCoordinates,0FF5D6F2-8617-485F-BAA8-9F26F2E2BD2E*
G04*
G04*
G04 #@! TF.FilePolarity,Positive*
G04*
G01*
G75*
%ADD15C,0.010*%
%ADD19R,0.089X0.149*%
%ADD23R,0.028X0.051*%
%ADD24R,0.051X0.028*%
%ADD51C,0.020*%
%ADD52C,0.050*%
%ADD53O,0.205X0.100*%
%ADD54C,0.047*%
%ADD55C,0.079*%
%ADD56C,0.059*%
%ADD57O,0.060X0.118*%
%ADD58O,0.120X0.060*%
%ADD59O,0.079X0.122*%
%ADD60C,0.050*%
%ADD61C,0.024*%
%ADD62C,0.040*%
%ADD63R,0.126X0.140*%
%ADD64R,0.149X0.089*%
%ADD65R,0.085X0.108*%
%ADD66O,0.043X0.023*%
%ADD67O,0.051X0.049*%
%ADD68R,0.020X0.024*%
G36*
X3287Y39D02*
X39D01*
Y1319D01*
X1457D01*
X1459Y1314D01*
X1450Y1309D01*
X1441Y1302D01*
X1433Y1292D01*
X1428Y1282D01*
X1424Y1270D01*
X1423Y1258D01*
X1424Y1246D01*
X1428Y1234D01*
X1433Y1223D01*
X1441Y1214D01*
X1449Y1207D01*
X1447Y1202D01*
X1366D01*
X1346Y1221D01*
X1339Y1226D01*
X1331Y1228D01*
X1331Y1228D01*
X1132D01*
X1132Y1228D01*
X1124Y1226D01*
X1117Y1221D01*
X1117Y1221D01*
X1065Y1169D01*
X1059Y1171D01*
X1055Y1178D01*
X1047Y1183D01*
X1038Y1185D01*
X1017D01*
X1008Y1183D01*
X1001Y1178D01*
X995Y1170D01*
X994Y1161D01*
X995Y1152D01*
X1001Y1144D01*
X1008Y1139D01*
X1011Y1139D01*
Y1133D01*
X1008Y1133D01*
X1001Y1128D01*
X995Y1120D01*
X994Y1111D01*
X995Y1102D01*
X1001Y1094D01*
X1008Y1089D01*
X1011Y1089D01*
Y1083D01*
X1008Y1083D01*
X1001Y1078D01*
X996Y1071D01*
X910Y985D01*
X838D01*
X838Y985D01*
X829Y983D01*
X822Y978D01*
X822Y978D01*
X653Y810D01*
X623D01*
X620Y814D01*
X621Y815D01*
X623Y824D01*
X621Y833D01*
X621Y833D01*
Y866D01*
Y888D01*
X621Y888D01*
X619Y896D01*
X614Y904D01*
X614Y904D01*
X539Y979D01*
Y1053D01*
X543Y1055D01*
X558Y1040D01*
X558Y1040D01*
X565Y1036D01*
X574Y1034D01*
X574Y1034D01*
X602D01*
X604Y1033D01*
Y942D01*
X713D01*
Y1074D01*
X679D01*
Y1205D01*
X682D01*
Y1280D01*
X631D01*
Y1205D01*
X634D01*
Y1074D01*
X628D01*
X626Y1074D01*
X626Y1074D01*
X622D01*
X619Y1077D01*
X610Y1078D01*
X610Y1078D01*
X583D01*
X555Y1106D01*
X548Y1111D01*
X539Y1113D01*
X539Y1113D01*
X421D01*
X421Y1113D01*
X413Y1111D01*
X405Y1106D01*
X405Y1106D01*
X361Y1062D01*
X299D01*
X297Y1066D01*
X299Y1069D01*
X299Y1069D01*
X304Y1076D01*
X306Y1084D01*
X306Y1084D01*
Y1132D01*
X313Y1138D01*
X320Y1147D01*
X324Y1157D01*
X326Y1168D01*
Y1226D01*
X324Y1237D01*
X320Y1247D01*
X313Y1256D01*
X305Y1262D01*
X294Y1267D01*
X283Y1268D01*
X273Y1267D01*
X262Y1262D01*
X254Y1256D01*
X247Y1247D01*
X243Y1237D01*
X241Y1226D01*
Y1168D01*
X243Y1157D01*
X247Y1147D01*
X254Y1138D01*
X261Y1132D01*
Y1094D01*
X231Y1063D01*
X219D01*
Y1046D01*
X216Y1044D01*
X214Y1044D01*
X204Y1053D01*
X197Y1058D01*
X191Y1059D01*
Y1063D01*
X148D01*
Y1042D01*
X147Y1039D01*
Y1038D01*
X147Y1038D01*
X148Y1035D01*
Y1016D01*
X168D01*
X170Y1015D01*
X179D01*
X200Y995D01*
X198Y990D01*
X185D01*
Y979D01*
X205D01*
Y969D01*
X215D01*
Y947D01*
X225D01*
Y963D01*
X229Y965D01*
X320Y874D01*
Y845D01*
X320Y845D01*
X318Y836D01*
X320Y826D01*
X325Y819D01*
X333Y813D01*
X343Y812D01*
X352Y813D01*
X360Y819D01*
X365Y826D01*
X367Y836D01*
X365Y845D01*
X365Y845D01*
Y883D01*
X365Y883D01*
X363Y892D01*
X358Y899D01*
X358Y899D01*
X246Y1011D01*
X248Y1016D01*
X262D01*
Y1017D01*
X370D01*
X370Y1017D01*
X378Y1019D01*
X386Y1024D01*
X425Y1063D01*
X430Y1061D01*
Y942D01*
X513D01*
X576Y879D01*
Y833D01*
X576Y833D01*
X574Y824D01*
X576Y815D01*
X577Y814D01*
X574Y810D01*
X444D01*
X444Y810D01*
X435Y808D01*
X428Y803D01*
X428Y803D01*
X316Y691D01*
X311Y693D01*
Y841D01*
X193D01*
X161Y873D01*
Y880D01*
X162Y886D01*
X160Y895D01*
X155Y903D01*
X147Y908D01*
X138Y910D01*
X128Y908D01*
X121Y903D01*
X115Y895D01*
X114Y886D01*
X115Y877D01*
X116Y876D01*
Y864D01*
X116Y864D01*
X118Y855D01*
X123Y848D01*
X161Y809D01*
Y677D01*
X296D01*
X298Y673D01*
X286Y661D01*
X161D01*
Y498D01*
X214D01*
Y404D01*
X214Y404D01*
X216Y396D01*
X220Y389D01*
X239Y370D01*
Y229D01*
X351D01*
Y401D01*
X271D01*
X258Y414D01*
Y498D01*
X311D01*
Y623D01*
X312Y624D01*
X453Y765D01*
X660D01*
X660Y765D01*
X669Y763D01*
X679Y765D01*
X686Y770D01*
X692Y778D01*
X693Y787D01*
X847Y940D01*
X919D01*
X919Y940D01*
X927Y942D01*
X935Y947D01*
X991Y1003D01*
X996Y1001D01*
X1001Y994D01*
X1008Y989D01*
X1017Y987D01*
X1030D01*
X1164Y853D01*
X1164Y853D01*
X1171Y849D01*
X1180Y847D01*
X1180Y847D01*
X2051D01*
X2051Y847D01*
X2060Y849D01*
X2067Y853D01*
X2153Y939D01*
X2230Y1016D01*
X2231D01*
X2240Y1018D01*
X2245Y1022D01*
X2266D01*
Y1096D01*
X2215D01*
Y1060D01*
X2212Y1059D01*
X2205Y1054D01*
X2205Y1054D01*
X2121Y970D01*
X2121Y970D01*
X2042Y891D01*
X1189D01*
X1059Y1021D01*
X1055Y1028D01*
X1049Y1032D01*
X1048Y1037D01*
X1048Y1038D01*
X1049Y1039D01*
X1074D01*
X1151Y962D01*
X1151Y962D01*
X1158Y957D01*
X1166Y955D01*
X1352D01*
X1358Y951D01*
X1366Y948D01*
X1374Y947D01*
X1383Y948D01*
X1390Y951D01*
X1397Y956D01*
X1402Y963D01*
X1405Y970D01*
X1406Y979D01*
X1405Y987D01*
X1404Y989D01*
X1409Y992D01*
X1439Y961D01*
X1439Y961D01*
X1445Y953D01*
X1452Y948D01*
X1462Y946D01*
X1471Y948D01*
X1479Y953D01*
X1484Y961D01*
X1486Y970D01*
X1484Y980D01*
X1479Y988D01*
X1471Y993D01*
X1471Y993D01*
X1426Y1037D01*
X1419Y1042D01*
X1410Y1044D01*
X1410Y1044D01*
X1279D01*
X1276Y1049D01*
X1277Y1051D01*
X1248D01*
X1219D01*
X1222Y1046D01*
X1229Y1041D01*
X1236Y1039D01*
Y1034D01*
X1230Y1033D01*
X1189D01*
X1163Y1059D01*
X1162Y1062D01*
X1140Y1083D01*
X1140Y1083D01*
X1135Y1091D01*
X1127Y1096D01*
X1118Y1098D01*
X1109Y1096D01*
X1101Y1091D01*
X1096Y1083D01*
X1090Y1082D01*
X1083Y1083D01*
X1083Y1083D01*
X1045D01*
X1044Y1083D01*
Y1089D01*
X1047Y1089D01*
X1055Y1094D01*
X1059Y1101D01*
X1142Y1183D01*
X1221D01*
X1222Y1178D01*
X1221Y1178D01*
X1216Y1170D01*
X1214Y1161D01*
X1216Y1152D01*
X1221Y1144D01*
X1229Y1139D01*
X1231Y1139D01*
Y1133D01*
X1229Y1133D01*
X1221Y1128D01*
X1216Y1120D01*
X1214Y1111D01*
X1216Y1102D01*
X1221Y1094D01*
X1229Y1089D01*
X1236Y1088D01*
Y1083D01*
X1229Y1081D01*
X1222Y1077D01*
X1219Y1071D01*
X1248D01*
X1277D01*
X1274Y1077D01*
X1267Y1081D01*
X1260Y1083D01*
Y1088D01*
X1267Y1089D01*
X1268Y1090D01*
X1307D01*
X1313Y1089D01*
X1322Y1090D01*
X1330Y1096D01*
X1335Y1103D01*
X1337Y1113D01*
X1335Y1122D01*
X1330Y1130D01*
X1322Y1135D01*
X1313Y1137D01*
X1303Y1135D01*
X1302Y1134D01*
X1268D01*
X1267Y1139D01*
X1267Y1139D01*
X1275Y1144D01*
X1280Y1152D01*
X1282Y1161D01*
X1280Y1170D01*
X1275Y1178D01*
X1274Y1178D01*
X1276Y1183D01*
X1321D01*
X1341Y1164D01*
X1341Y1164D01*
X1348Y1160D01*
X1356Y1158D01*
X1356Y1158D01*
X1449D01*
X1450Y1153D01*
X1441Y1146D01*
X1433Y1136D01*
X1428Y1126D01*
X1424Y1114D01*
X1423Y1102D01*
X1424Y1090D01*
X1428Y1078D01*
X1433Y1067D01*
X1441Y1058D01*
X1450Y1050D01*
X1461Y1045D01*
X1473Y1041D01*
X1485Y1040D01*
X1586D01*
X1650Y976D01*
X1658Y970D01*
X1666Y966D01*
X1676Y965D01*
X1983D01*
X1993Y966D01*
X2002Y970D01*
X2010Y976D01*
X2114Y1081D01*
X2120Y1088D01*
X2124Y1097D01*
X2125Y1107D01*
Y1147D01*
X2133Y1157D01*
X2138Y1170D01*
X2140Y1183D01*
Y1226D01*
X2138Y1240D01*
X2133Y1252D01*
X2125Y1263D01*
X2114Y1271D01*
X2102Y1276D01*
X2088Y1278D01*
X2075Y1276D01*
X2062Y1271D01*
X2052Y1263D01*
X2043Y1252D01*
X2041Y1246D01*
X2035D01*
X2033Y1252D01*
X2025Y1263D01*
X2014Y1271D01*
X2002Y1276D01*
X1988Y1278D01*
X1975Y1276D01*
X1962Y1271D01*
X1952Y1263D01*
X1943Y1252D01*
X1941Y1246D01*
X1935D01*
X1933Y1252D01*
X1925Y1263D01*
X1914Y1271D01*
X1902Y1276D01*
X1888Y1278D01*
X1875Y1276D01*
X1862Y1271D01*
X1852Y1263D01*
X1843Y1252D01*
X1838Y1240D01*
X1837Y1227D01*
X1778D01*
Y1246D01*
X1703D01*
Y1195D01*
X1746D01*
X1752Y1189D01*
X1752Y1189D01*
X1759Y1184D01*
X1768Y1182D01*
X1768Y1182D01*
X1837D01*
X1838Y1170D01*
X1843Y1157D01*
X1852Y1147D01*
X1862Y1138D01*
X1875Y1133D01*
X1888Y1131D01*
X1902Y1133D01*
X1914Y1138D01*
X1925Y1147D01*
X1933Y1157D01*
X1935Y1164D01*
X1941D01*
X1943Y1157D01*
X1952Y1147D01*
X1962Y1138D01*
X1975Y1133D01*
X1988Y1131D01*
X2002Y1133D01*
X2014Y1138D01*
X2025Y1147D01*
X2033Y1157D01*
X2035Y1164D01*
X2041D01*
X2043Y1157D01*
X2051Y1147D01*
Y1122D01*
X1968Y1039D01*
X1691D01*
X1648Y1082D01*
X1651Y1090D01*
X1652Y1102D01*
X1651Y1114D01*
X1647Y1124D01*
X1652Y1127D01*
X1660Y1118D01*
X1660Y1118D01*
X1668Y1114D01*
X1676Y1112D01*
X1703D01*
Y1108D01*
X1778D01*
Y1159D01*
X1703D01*
Y1156D01*
X1685D01*
X1646Y1196D01*
X1639Y1201D01*
X1630Y1202D01*
X1630Y1202D01*
X1627D01*
X1626Y1207D01*
X1634Y1214D01*
X1641Y1223D01*
X1647Y1234D01*
X1651Y1246D01*
X1652Y1258D01*
X1651Y1270D01*
X1647Y1282D01*
X1641Y1292D01*
X1634Y1302D01*
X1624Y1309D01*
X1616Y1314D01*
X1617Y1319D01*
X3287D01*
Y39D01*
D02*
G37*
%LPC*%
G36*
X594Y1278D02*
X580D01*
Y1252D01*
X594D01*
Y1278D01*
D02*
G37*
G36*
X560D02*
X546D01*
Y1252D01*
X560D01*
Y1278D01*
D02*
G37*
G36*
X2525Y1274D02*
X2512Y1272D01*
X2499Y1267D01*
X2489Y1259D01*
X2480Y1248D01*
X2478Y1242D01*
X2472D01*
X2470Y1248D01*
X2462Y1259D01*
X2451Y1267D01*
X2439Y1272D01*
X2425Y1274D01*
X2412Y1272D01*
X2399Y1267D01*
X2389Y1259D01*
X2380Y1248D01*
X2378Y1242D01*
X2372D01*
X2370Y1248D01*
X2362Y1259D01*
X2351Y1267D01*
X2339Y1272D01*
X2325Y1274D01*
X2312Y1272D01*
X2299Y1267D01*
X2289Y1259D01*
X2280Y1248D01*
X2275Y1236D01*
X2274Y1222D01*
Y1179D01*
X2275Y1166D01*
X2280Y1153D01*
X2289Y1143D01*
X2299Y1134D01*
X2304Y1133D01*
Y1096D01*
X2301D01*
Y1022D01*
X2352D01*
Y1096D01*
X2348D01*
Y1133D01*
X2351Y1134D01*
X2362Y1143D01*
X2370Y1153D01*
X2372Y1160D01*
X2378D01*
X2380Y1153D01*
X2389Y1143D01*
X2399Y1134D01*
X2412Y1129D01*
X2415Y1129D01*
X2511Y1033D01*
Y991D01*
X2512Y982D01*
X2516Y973D01*
X2522Y965D01*
X2629Y858D01*
Y798D01*
X2802D01*
Y817D01*
X2893D01*
X2902Y818D01*
X2911Y822D01*
X2919Y828D01*
X3022Y931D01*
X3023Y930D01*
X3034Y925D01*
X3046Y921D01*
X3058Y920D01*
X3163D01*
X3175Y921D01*
X3186Y925D01*
X3197Y930D01*
X3207Y938D01*
X3214Y947D01*
X3220Y958D01*
X3224Y970D01*
X3225Y982D01*
X3224Y994D01*
X3220Y1006D01*
X3214Y1016D01*
X3207Y1026D01*
X3197Y1034D01*
X3186Y1039D01*
X3175Y1043D01*
X3163Y1044D01*
X3058D01*
X3046Y1043D01*
X3034Y1039D01*
X3029Y1036D01*
X3020Y1033D01*
X3013Y1027D01*
X2877Y891D01*
X2802D01*
Y910D01*
X2682D01*
X2585Y1007D01*
Y1048D01*
X2584Y1058D01*
X2580Y1067D01*
X2575Y1075D01*
X2526Y1123D01*
X2528Y1128D01*
X2539Y1129D01*
X2551Y1134D01*
X2562Y1143D01*
X2570Y1153D01*
X2575Y1166D01*
X2577Y1179D01*
Y1222D01*
X2575Y1236D01*
X2570Y1248D01*
X2562Y1259D01*
X2551Y1267D01*
X2539Y1272D01*
X2525Y1274D01*
D02*
G37*
G36*
X490Y1265D02*
Y1207D01*
X521D01*
Y1226D01*
X519Y1236D01*
X515Y1246D01*
X509Y1254D01*
X500Y1261D01*
X491Y1265D01*
X490Y1265D01*
D02*
G37*
G36*
X470D02*
X470Y1265D01*
X460Y1261D01*
X452Y1254D01*
X445Y1246D01*
X441Y1236D01*
X440Y1226D01*
Y1207D01*
X470D01*
Y1265D01*
D02*
G37*
G36*
X594Y1232D02*
X580D01*
Y1207D01*
X594D01*
Y1232D01*
D02*
G37*
G36*
X560D02*
X546D01*
Y1207D01*
X560D01*
Y1232D01*
D02*
G37*
G36*
X2847Y1287D02*
X2837Y1285D01*
X2827Y1281D01*
X2818Y1275D01*
X2811Y1266D01*
X2807Y1256D01*
X2806Y1245D01*
X2807Y1234D01*
X2811Y1224D01*
X2818Y1216D01*
X2827Y1209D01*
X2837Y1205D01*
X2847Y1203D01*
X2858Y1205D01*
X2868Y1209D01*
X2877Y1216D01*
X2884Y1224D01*
X2888Y1234D01*
X2889Y1245D01*
X2888Y1256D01*
X2884Y1266D01*
X2877Y1275D01*
X2868Y1281D01*
X2858Y1285D01*
X2847Y1287D01*
D02*
G37*
G36*
X2670D02*
X2659Y1285D01*
X2649Y1281D01*
X2641Y1275D01*
X2634Y1266D01*
X2630Y1256D01*
X2629Y1245D01*
X2630Y1234D01*
X2634Y1224D01*
X2641Y1216D01*
X2649Y1209D01*
X2659Y1205D01*
X2670Y1203D01*
X2681Y1205D01*
X2691Y1209D01*
X2700Y1216D01*
X2706Y1224D01*
X2711Y1234D01*
X2712Y1245D01*
X2711Y1256D01*
X2706Y1266D01*
X2700Y1275D01*
X2691Y1281D01*
X2681Y1285D01*
X2670Y1287D01*
D02*
G37*
G36*
X521Y1187D02*
X490D01*
Y1129D01*
X491Y1129D01*
X500Y1133D01*
X509Y1139D01*
X515Y1148D01*
X519Y1157D01*
X521Y1168D01*
Y1187D01*
D02*
G37*
G36*
X470D02*
X440D01*
Y1168D01*
X441Y1157D01*
X445Y1148D01*
X452Y1139D01*
X460Y1133D01*
X470Y1129D01*
X470Y1129D01*
Y1187D01*
D02*
G37*
G36*
X382Y1268D02*
X371Y1267D01*
X361Y1262D01*
X352Y1256D01*
X345Y1247D01*
X341Y1237D01*
X340Y1226D01*
Y1168D01*
X341Y1157D01*
X345Y1147D01*
X352Y1138D01*
X361Y1131D01*
X371Y1127D01*
X382Y1126D01*
X393Y1127D01*
X403Y1131D01*
X412Y1138D01*
X418Y1147D01*
X423Y1157D01*
X424Y1168D01*
Y1226D01*
X423Y1237D01*
X418Y1247D01*
X412Y1256D01*
X403Y1262D01*
X393Y1267D01*
X382Y1268D01*
D02*
G37*
G36*
X3150Y1248D02*
X3135Y1247D01*
X3121Y1243D01*
X3108Y1236D01*
X3096Y1226D01*
X3087Y1215D01*
X3080Y1202D01*
X3076Y1188D01*
X3074Y1173D01*
X3076Y1159D01*
X3080Y1144D01*
X3087Y1131D01*
X3096Y1120D01*
X3108Y1111D01*
X3121Y1104D01*
X3135Y1100D01*
X3150Y1098D01*
X3164Y1100D01*
X3178Y1104D01*
X3191Y1111D01*
X3203Y1120D01*
X3212Y1131D01*
X3219Y1144D01*
X3223Y1159D01*
X3225Y1173D01*
X3223Y1188D01*
X3219Y1202D01*
X3212Y1215D01*
X3203Y1226D01*
X3191Y1236D01*
X3178Y1243D01*
X3164Y1247D01*
X3150Y1248D01*
D02*
G37*
G36*
X866D02*
X851Y1247D01*
X837Y1243D01*
X824Y1236D01*
X813Y1226D01*
X804Y1215D01*
X797Y1202D01*
X792Y1188D01*
X791Y1173D01*
X792Y1159D01*
X797Y1144D01*
X804Y1131D01*
X813Y1120D01*
X824Y1111D01*
X837Y1104D01*
X851Y1100D01*
X866Y1098D01*
X881Y1100D01*
X895Y1104D01*
X908Y1111D01*
X919Y1120D01*
X929Y1131D01*
X936Y1144D01*
X940Y1159D01*
X941Y1173D01*
X940Y1188D01*
X936Y1202D01*
X929Y1215D01*
X919Y1226D01*
X908Y1236D01*
X895Y1243D01*
X881Y1247D01*
X866Y1248D01*
D02*
G37*
G36*
X2847Y1031D02*
X2837Y1029D01*
X2827Y1025D01*
X2818Y1019D01*
X2812Y1011D01*
X2705D01*
X2700Y1019D01*
X2691Y1025D01*
X2681Y1029D01*
X2670Y1031D01*
X2659Y1029D01*
X2649Y1025D01*
X2641Y1019D01*
X2634Y1010D01*
X2630Y1000D01*
X2629Y989D01*
X2630Y978D01*
X2634Y968D01*
X2641Y960D01*
X2649Y953D01*
X2659Y949D01*
X2670Y947D01*
X2681Y949D01*
X2691Y953D01*
X2700Y960D01*
X2705Y967D01*
X2812D01*
X2818Y960D01*
X2827Y953D01*
X2837Y949D01*
X2847Y947D01*
X2858Y949D01*
X2868Y953D01*
X2877Y960D01*
X2884Y968D01*
X2888Y978D01*
X2889Y989D01*
X2888Y1000D01*
X2884Y1010D01*
X2877Y1019D01*
X2868Y1025D01*
X2858Y1029D01*
X2847Y1031D01*
D02*
G37*
G36*
X363Y1006D02*
Y996D01*
X373D01*
X369Y1002D01*
X363Y1006D01*
D02*
G37*
G36*
X343D02*
X338Y1002D01*
X334Y996D01*
X343D01*
Y1006D01*
D02*
G37*
G36*
X373Y976D02*
X363D01*
Y967D01*
X369Y970D01*
X373Y976D01*
D02*
G37*
G36*
X343D02*
X334D01*
X338Y970D01*
X343Y967D01*
Y976D01*
D02*
G37*
G36*
X195Y959D02*
X185D01*
Y947D01*
X195D01*
Y959D01*
D02*
G37*
G36*
X961Y874D02*
X951Y873D01*
X951Y873D01*
X839D01*
X839Y873D01*
X830Y871D01*
X823Y866D01*
X823Y866D01*
X664Y707D01*
X512D01*
X512Y707D01*
X503Y706D01*
X496Y701D01*
X496Y701D01*
X457Y662D01*
X457Y662D01*
X450Y657D01*
X444Y649D01*
X443Y640D01*
X444Y631D01*
X450Y623D01*
X457Y618D01*
X467Y616D01*
X476Y618D01*
X484Y623D01*
X489Y631D01*
X489Y631D01*
X521Y663D01*
X673D01*
X673Y663D01*
X682Y664D01*
X689Y669D01*
X848Y828D01*
X951D01*
X951Y828D01*
X961Y826D01*
X970Y828D01*
X978Y833D01*
X983Y841D01*
X985Y850D01*
X983Y860D01*
X978Y867D01*
X970Y873D01*
X961Y874D01*
D02*
G37*
G36*
X2084Y845D02*
Y821D01*
X2108D01*
X2104Y829D01*
X2099Y836D01*
X2091Y842D01*
X2084Y845D01*
D02*
G37*
G36*
X2064D02*
X2056Y842D01*
X2049Y836D01*
X2043Y829D01*
X2040Y821D01*
X2064D01*
Y845D01*
D02*
G37*
G36*
X1283Y824D02*
Y802D01*
X1305D01*
X1302Y809D01*
X1297Y816D01*
X1290Y821D01*
X1283Y824D01*
D02*
G37*
G36*
X1263D02*
X1256Y821D01*
X1249Y816D01*
X1243Y809D01*
X1241Y802D01*
X1263D01*
Y824D01*
D02*
G37*
G36*
X2108Y801D02*
X2084D01*
Y777D01*
X2091Y780D01*
X2099Y786D01*
X2104Y793D01*
X2108Y801D01*
D02*
G37*
G36*
X2064D02*
X2040D01*
X2043Y793D01*
X2049Y786D01*
X2056Y780D01*
X2064Y777D01*
Y801D01*
D02*
G37*
G36*
X1373Y827D02*
X1364Y826D01*
X1355Y823D01*
X1348Y817D01*
X1342Y810D01*
X1340Y805D01*
X1336Y802D01*
X1336Y802D01*
X1307Y774D01*
X1303Y776D01*
X1305Y782D01*
X1241D01*
X1243Y775D01*
X1248Y768D01*
X1247Y763D01*
X1198D01*
X1189Y762D01*
X1182Y757D01*
X1182Y757D01*
X1065Y640D01*
X1045D01*
Y595D01*
X1040Y593D01*
X1038Y596D01*
X1029Y605D01*
X1022Y610D01*
X1013Y612D01*
X1010Y615D01*
Y640D01*
X959D01*
Y581D01*
X954Y579D01*
X900Y634D01*
X892Y639D01*
X884Y640D01*
X884Y640D01*
X640D01*
X640Y640D01*
X631Y642D01*
X622Y640D01*
X614Y635D01*
X609Y627D01*
X607Y618D01*
X609Y609D01*
X614Y601D01*
X622Y596D01*
X631Y594D01*
X640Y596D01*
X640Y596D01*
X875D01*
X1148Y323D01*
X1148Y323D01*
X1155Y318D01*
X1163Y316D01*
X1163Y316D01*
X1191D01*
X1207Y300D01*
X1205Y295D01*
X1201Y296D01*
X1192Y294D01*
X1184Y289D01*
X1180Y283D01*
X1174Y282D01*
X1074Y382D01*
X1067Y387D01*
X1059Y388D01*
X1059Y388D01*
X607D01*
Y401D01*
X495D01*
Y229D01*
X607D01*
Y344D01*
X1050D01*
X1165Y228D01*
X1162Y224D01*
X1157Y225D01*
X1148Y223D01*
X1140Y218D01*
X1135Y210D01*
X1133Y201D01*
X1135Y192D01*
X1140Y184D01*
X1148Y179D01*
X1157Y177D01*
X1167Y179D01*
X1167Y179D01*
X1192D01*
X1217Y154D01*
X1217Y154D01*
X1224Y149D01*
X1233Y147D01*
X1233Y147D01*
X1254D01*
Y144D01*
X1308D01*
X1311Y139D01*
X1308Y135D01*
X1347D01*
X1343Y141D01*
X1336Y146D01*
X1329Y147D01*
Y183D01*
X1629D01*
X1629Y183D01*
X1638Y184D01*
X1645Y189D01*
X1675Y219D01*
X1684Y218D01*
X1695Y220D01*
X1705Y224D01*
X1714Y230D01*
X1720Y239D01*
X1724Y249D01*
X1726Y260D01*
X1724Y271D01*
X1720Y281D01*
X1714Y289D01*
X1705Y296D01*
X1703Y297D01*
X1704Y302D01*
X1776D01*
X1782Y296D01*
X1781Y290D01*
X1782Y281D01*
X1786Y272D01*
X1792Y264D01*
X1800Y258D01*
X1808Y255D01*
X1818Y253D01*
X1820D01*
X1829Y255D01*
X1838Y258D01*
X1846Y264D01*
X1852Y272D01*
X1855Y281D01*
X1857Y290D01*
X1855Y300D01*
X1852Y309D01*
X1846Y316D01*
X1838Y322D01*
X1829Y326D01*
X1820Y327D01*
X1818D01*
X1814Y326D01*
X1801Y340D01*
X1794Y344D01*
X1785Y346D01*
X1785Y346D01*
X1371D01*
X1371Y346D01*
X1363Y344D01*
X1355Y340D01*
X1355Y340D01*
X1309Y294D01*
X1305Y296D01*
X1307Y304D01*
X1305Y313D01*
X1300Y321D01*
X1292Y326D01*
X1282Y328D01*
X1273Y326D01*
X1273Y326D01*
X1243D01*
X1216Y354D01*
X1208Y359D01*
X1200Y361D01*
X1200Y361D01*
X1173D01*
X973Y560D01*
X975Y565D01*
X1000D01*
X1004Y563D01*
X1006Y554D01*
X1010Y547D01*
X1022Y535D01*
X1022Y535D01*
X1029Y531D01*
X1038Y529D01*
X1122D01*
X1122Y529D01*
X1131Y531D01*
X1138Y535D01*
X1217Y615D01*
X1243D01*
X1245Y610D01*
X1243Y609D01*
X1241Y602D01*
X1305D01*
X1302Y609D01*
X1301Y610D01*
X1303Y615D01*
X1340D01*
X1343Y610D01*
X1342Y610D01*
X1338Y601D01*
X1337Y592D01*
X1338Y582D01*
X1342Y574D01*
X1348Y566D01*
X1355Y561D01*
X1364Y557D01*
X1373Y556D01*
X1382Y557D01*
X1391Y561D01*
X1398Y566D01*
X1404Y574D01*
X1407Y582D01*
X1409Y592D01*
X1407Y601D01*
X1406Y605D01*
X1409Y610D01*
X1453D01*
X1455Y605D01*
X1377Y527D01*
X1373Y527D01*
X1364Y526D01*
X1355Y523D01*
X1348Y517D01*
X1342Y510D01*
X1338Y501D01*
X1337Y492D01*
X1338Y482D01*
X1342Y474D01*
X1348Y466D01*
X1355Y461D01*
X1364Y457D01*
X1373Y456D01*
X1382Y457D01*
X1391Y461D01*
X1398Y466D01*
X1404Y474D01*
X1407Y482D01*
X1409Y492D01*
X1408Y496D01*
X1508Y596D01*
X1518D01*
Y581D01*
X1521D01*
Y539D01*
X1521Y539D01*
X1523Y531D01*
X1528Y524D01*
X1564Y487D01*
X1562Y482D01*
X1562Y482D01*
X1562Y482D01*
X1561Y482D01*
X1514D01*
Y407D01*
X1565D01*
X1566Y401D01*
X1571Y394D01*
X1606Y358D01*
X1606Y358D01*
X1614Y353D01*
X1622Y352D01*
X1622Y352D01*
X2088D01*
X2144Y296D01*
X2143Y290D01*
X2145Y281D01*
X2148Y272D01*
X2154Y264D01*
X2162Y258D01*
X2171Y255D01*
X2180Y253D01*
X2182D01*
X2192Y255D01*
X2200Y258D01*
X2208Y264D01*
X2214Y272D01*
X2218Y281D01*
X2219Y290D01*
X2218Y300D01*
X2214Y309D01*
X2208Y316D01*
X2200Y322D01*
X2192Y326D01*
X2182Y327D01*
X2180D01*
X2176Y326D01*
X2113Y390D01*
X2106Y395D01*
X2097Y396D01*
X2097Y396D01*
X1631D01*
X1625Y403D01*
X1627Y407D01*
X1652D01*
Y482D01*
X1632D01*
X1566Y549D01*
Y581D01*
X1569D01*
Y656D01*
X1518D01*
Y654D01*
X1405D01*
X1400Y658D01*
X1396Y659D01*
X1395Y664D01*
X1398Y666D01*
X1404Y674D01*
X1407Y682D01*
X1409Y692D01*
X1407Y701D01*
X1404Y710D01*
X1398Y717D01*
X1391Y723D01*
X1382Y726D01*
X1373Y727D01*
X1364Y726D01*
X1355Y723D01*
X1348Y717D01*
X1342Y710D01*
X1338Y701D01*
X1337Y692D01*
X1338Y682D01*
X1342Y674D01*
X1348Y666D01*
X1350Y664D01*
X1349Y659D01*
X1294D01*
X1292Y664D01*
X1297Y668D01*
X1302Y675D01*
X1305Y682D01*
X1241D01*
X1243Y675D01*
X1249Y668D01*
X1253Y664D01*
X1252Y659D01*
X1208D01*
X1208Y659D01*
X1200Y658D01*
X1192Y653D01*
X1192Y653D01*
X1113Y573D01*
X1096D01*
Y608D01*
X1207Y719D01*
X1245D01*
X1247Y714D01*
X1243Y709D01*
X1241Y702D01*
X1305D01*
X1302Y709D01*
X1298Y714D01*
X1301Y719D01*
X1306D01*
X1306Y719D01*
X1315Y721D01*
X1322Y725D01*
X1357Y760D01*
X1364Y757D01*
X1373Y756D01*
X1382Y757D01*
X1391Y761D01*
X1398Y766D01*
X1404Y774D01*
X1407Y782D01*
X1409Y792D01*
X1407Y801D01*
X1404Y810D01*
X1398Y817D01*
X1391Y823D01*
X1382Y826D01*
X1373Y827D01*
D02*
G37*
G36*
X3163Y888D02*
X3058D01*
X3046Y887D01*
X3034Y883D01*
X3023Y878D01*
X3014Y870D01*
X3006Y860D01*
X3000Y850D01*
X2997Y838D01*
X2996Y826D01*
X2997Y814D01*
X3000Y802D01*
X3006Y791D01*
X3014Y782D01*
X3023Y774D01*
X3034Y769D01*
X3046Y765D01*
X3058Y764D01*
X3094D01*
Y732D01*
X3058D01*
X3046Y731D01*
X3034Y727D01*
X3023Y722D01*
X3014Y714D01*
X3008Y706D01*
X2926D01*
X2916Y705D01*
X2907Y701D01*
X2900Y696D01*
X2850Y646D01*
X2802D01*
Y655D01*
X2682D01*
X2608Y728D01*
X2600Y734D01*
X2591Y738D01*
X2582Y739D01*
X2518D01*
Y758D01*
X2345D01*
Y646D01*
X2518D01*
Y665D01*
X2567D01*
X2629Y602D01*
Y595D01*
X2603Y568D01*
X2597Y561D01*
X2593Y552D01*
X2592Y542D01*
X2593Y532D01*
X2597Y523D01*
X2603Y516D01*
X2631Y487D01*
Y453D01*
X2632Y443D01*
X2636Y434D01*
X2642Y427D01*
X2650Y421D01*
X2659Y417D01*
X2668Y416D01*
X2678Y417D01*
X2687Y421D01*
X2695Y427D01*
X2700Y434D01*
X2704Y443D01*
X2705Y453D01*
Y503D01*
X2704Y512D01*
X2700Y521D01*
X2695Y529D01*
X2686Y537D01*
X2688Y542D01*
X2802D01*
Y572D01*
X2865D01*
X2875Y573D01*
X2884Y577D01*
X2891Y582D01*
X2941Y632D01*
X3009D01*
X3014Y626D01*
X3023Y618D01*
X3034Y613D01*
X3046Y609D01*
X3058Y608D01*
X3163D01*
X3175Y609D01*
X3186Y613D01*
X3197Y618D01*
X3207Y626D01*
X3214Y636D01*
X3220Y646D01*
X3224Y658D01*
X3225Y670D01*
X3224Y682D01*
X3220Y694D01*
X3214Y705D01*
X3207Y714D01*
X3197Y722D01*
X3186Y727D01*
X3175Y731D01*
X3168Y732D01*
Y764D01*
X3175Y765D01*
X3186Y769D01*
X3197Y774D01*
X3207Y782D01*
X3214Y791D01*
X3220Y802D01*
X3224Y814D01*
X3225Y826D01*
X3224Y838D01*
X3220Y850D01*
X3214Y860D01*
X3207Y870D01*
X3197Y878D01*
X3186Y883D01*
X3175Y887D01*
X3163Y888D01*
D02*
G37*
G36*
X1720Y682D02*
X1711Y680D01*
X1703Y675D01*
X1698Y667D01*
X1696Y657D01*
X1698Y648D01*
X1703Y640D01*
X1711Y635D01*
X1711Y635D01*
X1722Y625D01*
X1720Y620D01*
X1656D01*
Y656D01*
X1604D01*
Y581D01*
X1625D01*
X1630Y577D01*
X1639Y575D01*
X1724D01*
X1725Y575D01*
X1733Y573D01*
X1773D01*
X1778Y570D01*
X1783Y569D01*
X1784Y563D01*
X1781Y561D01*
X1776Y554D01*
X1773Y547D01*
X1807D01*
X1841D01*
X1838Y554D01*
X1833Y561D01*
X1830Y563D01*
X1831Y569D01*
X1836Y570D01*
X1843Y574D01*
X1922D01*
X1922Y574D01*
X1931Y576D01*
X1938Y581D01*
X1972Y614D01*
X2139D01*
X2142Y611D01*
X2150Y605D01*
X2159Y601D01*
X2168Y600D01*
X2170D01*
X2180Y601D01*
X2189Y605D01*
X2196Y611D01*
X2202Y618D01*
X2206Y627D01*
X2207Y637D01*
X2206Y646D01*
X2202Y655D01*
X2196Y663D01*
X2189Y668D01*
X2180Y672D01*
X2170Y673D01*
X2168D01*
X2159Y672D01*
X2150Y668D01*
X2142Y663D01*
X2139Y659D01*
X1962D01*
X1962Y659D01*
X1954Y657D01*
X1947Y652D01*
X1947Y652D01*
X1913Y619D01*
X1845D01*
X1842Y623D01*
X1844Y627D01*
X1845Y637D01*
X1844Y646D01*
X1840Y655D01*
X1834Y663D01*
X1826Y668D01*
X1818Y672D01*
X1808Y673D01*
X1806D01*
X1797Y672D01*
X1788Y668D01*
X1780Y663D01*
X1777Y659D01*
X1751D01*
X1743Y667D01*
X1743Y667D01*
X1738Y675D01*
X1730Y680D01*
X1720Y682D01*
D02*
G37*
G36*
X2540Y629D02*
Y619D01*
X2549D01*
X2545Y625D01*
X2540Y629D01*
D02*
G37*
G36*
X2520D02*
X2514Y625D01*
X2510Y619D01*
X2520D01*
Y629D01*
D02*
G37*
G36*
X2549Y599D02*
X2540D01*
Y590D01*
X2545Y594D01*
X2549Y599D01*
D02*
G37*
G36*
X2520D02*
X2510D01*
X2514Y594D01*
X2520Y590D01*
Y599D01*
D02*
G37*
G36*
X376Y578D02*
Y568D01*
X386D01*
X382Y574D01*
X376Y578D01*
D02*
G37*
G36*
X356D02*
X350Y574D01*
X347Y568D01*
X356D01*
Y578D01*
D02*
G37*
G36*
X1305Y582D02*
X1283D01*
Y559D01*
X1290Y562D01*
X1297Y568D01*
X1302Y575D01*
X1305Y582D01*
D02*
G37*
G36*
X1263D02*
X1241D01*
X1243Y575D01*
X1249Y568D01*
X1256Y562D01*
X1263Y559D01*
Y582D01*
D02*
G37*
G36*
X2170Y573D02*
X2168D01*
X2159Y572D01*
X2150Y568D01*
X2142Y563D01*
X2139Y559D01*
X1959D01*
X1959Y559D01*
X1951Y557D01*
X1944Y552D01*
X1944Y552D01*
X1896Y505D01*
X1831D01*
X1830Y510D01*
X1833Y512D01*
X1838Y519D01*
X1841Y527D01*
X1807D01*
X1773D01*
X1776Y519D01*
X1781Y512D01*
X1785Y510D01*
X1783Y505D01*
X1703D01*
X1703Y505D01*
X1694Y506D01*
X1685Y505D01*
X1677Y499D01*
X1672Y491D01*
X1670Y482D01*
X1672Y473D01*
X1677Y465D01*
X1685Y460D01*
X1694Y458D01*
X1703Y460D01*
X1703Y460D01*
X1905D01*
X1905Y460D01*
X1914Y462D01*
X1921Y467D01*
X1969Y514D01*
X2139D01*
X2142Y511D01*
X2150Y505D01*
X2159Y501D01*
X2168Y500D01*
X2170D01*
X2180Y501D01*
X2189Y505D01*
X2196Y511D01*
X2202Y518D01*
X2206Y527D01*
X2207Y537D01*
X2206Y546D01*
X2202Y555D01*
X2196Y563D01*
X2189Y568D01*
X2180Y572D01*
X2170Y573D01*
D02*
G37*
G36*
X386Y548D02*
X376D01*
Y539D01*
X382Y542D01*
X386Y548D01*
D02*
G37*
G36*
X356D02*
X347D01*
X350Y542D01*
X356Y539D01*
Y548D01*
D02*
G37*
G36*
X917Y529D02*
Y520D01*
X927D01*
X923Y526D01*
X917Y529D01*
D02*
G37*
G36*
X897D02*
X892Y526D01*
X888Y520D01*
X897D01*
Y529D01*
D02*
G37*
G36*
X927Y500D02*
X917D01*
Y490D01*
X923Y494D01*
X927Y500D01*
D02*
G37*
G36*
X897D02*
X888D01*
X892Y494D01*
X897Y490D01*
Y500D01*
D02*
G37*
G36*
X1273Y527D02*
X1264Y526D01*
X1255Y523D01*
X1248Y517D01*
X1242Y510D01*
X1238Y501D01*
X1237Y492D01*
X1238Y482D01*
X1242Y474D01*
X1248Y466D01*
X1255Y461D01*
X1264Y457D01*
X1273Y456D01*
X1282Y457D01*
X1291Y461D01*
X1298Y466D01*
X1304Y474D01*
X1307Y482D01*
X1309Y492D01*
X1307Y501D01*
X1304Y510D01*
X1298Y517D01*
X1291Y523D01*
X1282Y526D01*
X1273Y527D01*
D02*
G37*
G36*
X3163Y576D02*
X3058D01*
X3046Y575D01*
X3034Y572D01*
X3023Y566D01*
X3014Y558D01*
X3006Y549D01*
X3000Y538D01*
X2997Y526D01*
X2996Y514D01*
X2997Y502D01*
X3000Y490D01*
X3006Y480D01*
X3014Y470D01*
X3023Y463D01*
X3034Y457D01*
X3046Y453D01*
X3058Y452D01*
X3163D01*
X3175Y453D01*
X3186Y457D01*
X3197Y463D01*
X3207Y470D01*
X3214Y480D01*
X3220Y490D01*
X3224Y502D01*
X3225Y514D01*
X3224Y526D01*
X3220Y538D01*
X3214Y549D01*
X3207Y558D01*
X3197Y566D01*
X3186Y572D01*
X3175Y575D01*
X3163Y576D01*
D02*
G37*
G36*
X1283Y389D02*
Y379D01*
X1292D01*
X1288Y385D01*
X1283Y389D01*
D02*
G37*
G36*
X1263D02*
X1257Y385D01*
X1253Y379D01*
X1263D01*
Y389D01*
D02*
G37*
G36*
X2840Y408D02*
X2820D01*
Y377D01*
X2879D01*
X2879Y378D01*
X2875Y387D01*
X2869Y396D01*
X2860Y402D01*
X2850Y406D01*
X2840Y408D01*
D02*
G37*
G36*
X2800D02*
X2780D01*
X2770Y406D01*
X2760Y402D01*
X2752Y396D01*
X2745Y387D01*
X2741Y378D01*
X2741Y377D01*
X2800D01*
Y408D01*
D02*
G37*
G36*
X1292Y359D02*
X1283D01*
Y350D01*
X1288Y353D01*
X1292Y359D01*
D02*
G37*
G36*
X1263D02*
X1253D01*
X1257Y353D01*
X1263Y350D01*
Y359D01*
D02*
G37*
G36*
X2879Y357D02*
X2820D01*
Y327D01*
X2840D01*
X2850Y328D01*
X2860Y332D01*
X2869Y339D01*
X2875Y347D01*
X2879Y357D01*
X2879Y357D01*
D02*
G37*
G36*
X2800D02*
X2741D01*
X2741Y357D01*
X2745Y347D01*
X2752Y339D01*
X2760Y332D01*
X2770Y328D01*
X2780Y327D01*
X2800D01*
Y357D01*
D02*
G37*
G36*
X2256Y722D02*
X2246Y721D01*
X2237Y717D01*
X2230Y711D01*
X2224Y704D01*
X2220Y695D01*
X2219Y685D01*
Y493D01*
X2220Y484D01*
X2224Y475D01*
X2230Y467D01*
X2258Y439D01*
X2265Y433D01*
X2274Y429D01*
X2284Y428D01*
X2345D01*
Y390D01*
X2448D01*
X2450Y389D01*
X2487D01*
X2564Y312D01*
X2572Y306D01*
X2572Y306D01*
X2571Y301D01*
X2570Y302D01*
X2559Y300D01*
X2549Y296D01*
X2540Y289D01*
X2534Y281D01*
X2530Y271D01*
X2528Y260D01*
X2530Y249D01*
X2534Y239D01*
X2540Y230D01*
X2549Y224D01*
X2559Y220D01*
X2570Y218D01*
X2581Y220D01*
X2588Y223D01*
X2780D01*
X2789Y224D01*
X2792Y225D01*
X2840D01*
X2851Y226D01*
X2861Y231D01*
X2870Y237D01*
X2877Y246D01*
X2881Y256D01*
X2882Y267D01*
X2881Y278D01*
X2877Y288D01*
X2870Y297D01*
X2861Y304D01*
X2851Y308D01*
X2840Y309D01*
X2780D01*
X2769Y308D01*
X2759Y304D01*
X2750Y297D01*
X2750Y297D01*
X2680D01*
X2680Y302D01*
X2686Y303D01*
X2695Y306D01*
X2702Y312D01*
X2708Y320D01*
X2712Y329D01*
X2713Y339D01*
X2712Y348D01*
X2708Y357D01*
X2702Y365D01*
X2695Y371D01*
X2686Y374D01*
X2676Y376D01*
X2606D01*
X2529Y453D01*
X2521Y459D01*
X2518Y460D01*
Y502D01*
X2414D01*
X2412Y502D01*
X2299D01*
X2293Y509D01*
Y685D01*
X2292Y695D01*
X2288Y704D01*
X2282Y711D01*
X2274Y717D01*
X2266Y721D01*
X2256Y722D01*
D02*
G37*
G36*
X1829Y224D02*
Y200D01*
X1853D01*
X1850Y208D01*
X1845Y215D01*
X1837Y220D01*
X1829Y224D01*
X1829Y224D01*
D02*
G37*
G36*
X1809D02*
X1809Y224D01*
X1800Y220D01*
X1793Y215D01*
X1788Y208D01*
X1785Y200D01*
X1809D01*
Y224D01*
D02*
G37*
G36*
X1853Y180D02*
X1829D01*
Y156D01*
X1829Y156D01*
X1837Y160D01*
X1845Y165D01*
X1850Y173D01*
X1853Y180D01*
D02*
G37*
G36*
X1809D02*
X1785D01*
X1788Y173D01*
X1793Y165D01*
X1800Y160D01*
X1809Y156D01*
X1809Y156D01*
Y180D01*
D02*
G37*
G36*
X1977Y257D02*
X1968Y256D01*
X1960Y250D01*
X1955Y242D01*
X1953Y233D01*
X1955Y224D01*
X1960Y216D01*
X1968Y211D01*
X1968Y211D01*
X2003Y176D01*
X2003Y176D01*
X2011Y171D01*
X2019Y169D01*
X2150D01*
X2154Y164D01*
X2162Y158D01*
X2171Y155D01*
X2180Y153D01*
X2182D01*
X2192Y155D01*
X2200Y158D01*
X2208Y164D01*
X2214Y172D01*
X2218Y181D01*
X2219Y190D01*
X2218Y200D01*
X2214Y209D01*
X2208Y216D01*
X2200Y222D01*
X2192Y226D01*
X2182Y227D01*
X2180D01*
X2171Y226D01*
X2162Y222D01*
X2154Y216D01*
X2152Y214D01*
X2028D01*
X2000Y242D01*
X2000Y242D01*
X1994Y250D01*
X1987Y256D01*
X1977Y257D01*
D02*
G37*
G36*
X1347Y115D02*
X1338D01*
Y105D01*
X1343Y109D01*
X1347Y115D01*
D02*
G37*
G36*
X1318D02*
X1308D01*
X1312Y109D01*
X1318Y105D01*
Y115D01*
D02*
G37*
G36*
X3150Y225D02*
X3135Y224D01*
X3121Y219D01*
X3108Y212D01*
X3096Y203D01*
X3087Y192D01*
X3080Y179D01*
X3076Y164D01*
X3074Y150D01*
X3076Y135D01*
X3080Y121D01*
X3087Y108D01*
X3096Y97D01*
X3108Y87D01*
X3121Y80D01*
X3135Y76D01*
X3150Y75D01*
X3164Y76D01*
X3178Y80D01*
X3191Y87D01*
X3203Y97D01*
X3212Y108D01*
X3219Y121D01*
X3223Y135D01*
X3225Y150D01*
X3223Y164D01*
X3219Y179D01*
X3212Y192D01*
X3203Y203D01*
X3191Y212D01*
X3178Y219D01*
X3164Y224D01*
X3150Y225D01*
D02*
G37*
G36*
X866Y225D02*
X851Y223D01*
X837Y219D01*
X824Y212D01*
X813Y203D01*
X804Y191D01*
X797Y178D01*
X792Y164D01*
X791Y150D01*
X792Y135D01*
X797Y121D01*
X804Y108D01*
X813Y96D01*
X824Y87D01*
X837Y80D01*
X851Y76D01*
X866Y74D01*
X881Y76D01*
X895Y80D01*
X908Y87D01*
X919Y96D01*
X929Y108D01*
X936Y121D01*
X940Y135D01*
X941Y150D01*
X940Y164D01*
X936Y178D01*
X929Y191D01*
X919Y203D01*
X908Y212D01*
X895Y219D01*
X881Y223D01*
X866Y225D01*
D02*
G37*
%LPD*%
G36*
X1665Y297D02*
X1663Y296D01*
X1655Y289D01*
X1648Y281D01*
X1644Y271D01*
X1642Y260D01*
X1644Y251D01*
X1620Y227D01*
X1332D01*
X1329Y230D01*
Y250D01*
X1380Y302D01*
X1664D01*
X1665Y297D01*
D02*
G37*
D15*
X1347Y1022D02*
X1352Y1026D01*
X1146Y1045D02*
Y1046D01*
X1731Y598D02*
X1733Y595D01*
X1630Y606D02*
X1639Y598D01*
X1630Y606D02*
Y618D01*
X1022Y575D02*
Y581D01*
X484Y1002D02*
Y1008D01*
Y996D02*
Y1002D01*
X2137Y955D02*
Y955D01*
X2240Y1047D02*
Y1059D01*
X2231Y1038D02*
X2240Y1047D01*
X1028Y1111D02*
X1038D01*
X621Y1057D02*
X656Y1021D01*
X1248Y1111D02*
X1249Y1112D01*
X1312D02*
X1313Y1113D01*
X1028Y1011D02*
X1038D01*
X2180Y192D02*
X2181Y190D01*
X1740Y1134D02*
X1740Y1134D01*
Y1220D02*
X1752D01*
X2325Y1201D02*
X2326Y1200D01*
Y1060D02*
X2327Y1059D01*
X2181Y290D02*
X2181D01*
X1626Y445D02*
Y457D01*
X1535Y632D02*
X1543Y623D01*
Y618D02*
Y623D01*
X1071Y602D02*
Y614D01*
X240Y1039D02*
Y1041D01*
D19*
X551Y315D02*
D03*
X295D02*
D03*
D23*
X1071Y602D02*
D03*
X984D02*
D03*
X1539Y445D02*
D03*
X1626D02*
D03*
X2327Y1059D02*
D03*
X2240D02*
D03*
X570Y1242D02*
D03*
X656D02*
D03*
X1630Y618D02*
D03*
X1543D02*
D03*
D24*
X1291Y256D02*
D03*
Y169D02*
D03*
X1740Y1134D02*
D03*
Y1220D02*
D03*
D51*
X170Y1038D02*
Y1039D01*
Y1038D02*
X170Y1038D01*
X188D01*
X343Y883D01*
Y836D02*
Y883D01*
X1071Y614D02*
X1198Y741D01*
X1306D02*
X1351Y787D01*
X1198Y741D02*
X1306D01*
X1368Y787D02*
X1373Y792D01*
X1351Y787D02*
X1368D01*
X1038Y1111D02*
X1132Y1206D01*
X1356Y1180D02*
X1630D01*
X1331Y1206D02*
X1356Y1180D01*
X1132Y1206D02*
X1331D01*
X1630Y1180D02*
X1676Y1134D01*
X1740D01*
X884Y618D02*
X1163Y339D01*
X1234Y304D02*
X1282D01*
X1163Y339D02*
X1200D01*
X1234Y304D01*
X1201Y272D02*
X1230D01*
X421Y1091D02*
X539D01*
X574Y1056D01*
X610D02*
X614Y1052D01*
X651Y1015D02*
Y1027D01*
X574Y1056D02*
X610D01*
X651Y1015D02*
X658Y1008D01*
X626Y1052D02*
X651Y1027D01*
X614Y1052D02*
X626D01*
X370Y1039D02*
X421Y1091D01*
X1410Y1022D02*
X1462Y970D01*
X1347Y1022D02*
X1410D01*
X1259Y1011D02*
X1270Y1022D01*
X1347D01*
X1180Y1011D02*
X1259D01*
X1166Y978D02*
X1373D01*
X1374Y979D01*
X1146Y1045D02*
X1180Y1011D01*
X1733Y595D02*
X1782D01*
X1787Y590D01*
X1922Y596D02*
X1962Y637D01*
X1834Y596D02*
X1922D01*
X1787Y590D02*
X1827D01*
X1834Y596D01*
X1639Y598D02*
X1731D01*
X1962Y637D02*
X2169D01*
X1543Y618D02*
Y628D01*
X1540Y632D02*
X1543Y628D01*
X1397Y632D02*
X1540D01*
X1122Y551D02*
X1208Y637D01*
X1292D01*
X1292Y637D01*
X1354D02*
X1354Y637D01*
X1292Y637D02*
X1354D01*
X1354Y637D02*
X1392D01*
X1038Y551D02*
X1122D01*
X1392Y637D02*
X1397Y632D01*
X984Y593D02*
Y602D01*
X1022Y575D02*
X1026Y572D01*
Y563D02*
Y572D01*
Y563D02*
X1038Y551D01*
X984Y593D02*
X988Y590D01*
X1013D01*
X1022Y581D01*
X1245Y256D02*
X1303D01*
X484Y1002D02*
X598Y888D01*
X481Y1005D02*
X484Y1002D01*
X598Y866D02*
Y888D01*
Y824D02*
Y866D01*
X1180Y869D02*
X2051D01*
X1038Y1011D02*
X1180Y869D01*
X2051D02*
X2137Y955D01*
Y955D02*
X2221Y1038D01*
X2231D01*
X1694Y482D02*
X1905D01*
X1959Y537D01*
X2794Y274D02*
X2835D01*
X2780Y260D02*
X2794Y274D01*
X1629Y205D02*
X1684Y260D01*
X1242Y205D02*
X1629D01*
X1303Y256D02*
X1371Y324D01*
X1785D02*
X1819Y290D01*
X1371Y324D02*
X1785D01*
X2019Y192D02*
X2180D01*
X1977Y233D02*
X2019Y192D01*
X656Y1021D02*
Y1242D01*
X666Y791D02*
X838Y963D01*
X919D01*
X1017Y1061D01*
X1028D02*
X1083D01*
X1118Y1074D02*
X1146Y1046D01*
X1083Y1061D02*
X1166Y978D01*
X1249Y1112D02*
X1312D01*
X1017Y1061D02*
X1028D01*
X1059Y366D02*
X1192Y233D01*
X551Y315D02*
Y332D01*
X585Y366D01*
X1059D01*
X631Y618D02*
X884D01*
X236Y580D02*
Y587D01*
X289Y640D01*
X296D01*
X444Y787D01*
X669D01*
X236Y404D02*
Y580D01*
Y404D02*
X295Y345D01*
X467Y640D02*
X512Y685D01*
X673D01*
X295Y315D02*
Y345D01*
X236Y759D02*
Y766D01*
X138Y864D02*
X236Y766D01*
X138Y864D02*
Y885D01*
X138Y886D02*
X138Y885D01*
X1192Y233D02*
X1215D01*
X1242Y205D01*
X1230Y272D02*
X1245Y256D01*
X1233Y169D02*
X1291D01*
X1201Y201D02*
X1233Y169D01*
X1157Y201D02*
X1201D01*
X1499Y618D02*
X1543D01*
X1373Y492D02*
X1499Y618D01*
X673Y685D02*
X839Y850D01*
X1622Y374D02*
X2097D01*
X1587Y409D02*
Y426D01*
Y409D02*
X1622Y374D01*
X1568Y445D02*
X1587Y426D01*
X2097Y374D02*
X2181Y290D01*
X839Y850D02*
X961D01*
X240Y1039D02*
X370D01*
X1768Y1205D02*
X1888D01*
X1752Y1220D02*
X1768Y1205D01*
X2326Y1060D02*
Y1200D01*
X1741Y637D02*
X1807D01*
X1720Y657D02*
X1741Y637D01*
X1959Y537D02*
X2169D01*
X2670Y989D02*
X2847D01*
X1539Y445D02*
X1568D01*
X1543Y539D02*
Y618D01*
Y539D02*
X1626Y457D01*
X283Y1084D02*
Y1197D01*
X240Y1041D02*
X283Y1084D01*
D52*
X2629Y542D02*
X2668Y503D01*
Y453D02*
Y503D01*
X2629Y542D02*
X2683Y596D01*
X2591Y339D02*
X2676D01*
X2450Y427D02*
X2503D01*
X2591Y339D01*
X2412Y465D02*
X2450Y427D01*
X3131Y670D02*
Y806D01*
X2926Y669D02*
X3130D01*
X2675Y609D02*
X2865D01*
X1676Y1002D02*
X1983D01*
X1576Y1102D02*
X1676Y1002D01*
X2088Y1107D02*
Y1205D01*
X1983Y1002D02*
X2088Y1107D01*
X1537Y1102D02*
X1576D01*
X2570Y260D02*
X2780D01*
X2431Y702D02*
X2582D01*
X2675Y609D01*
X2683Y596D02*
X2714D01*
X2284Y465D02*
X2412D01*
X2256Y493D02*
X2284Y465D01*
X2865Y609D02*
X2926Y669D01*
X2431Y702D02*
X2433Y704D01*
X2425Y1171D02*
Y1201D01*
Y1171D02*
X2548Y1048D01*
Y991D02*
Y1048D01*
Y991D02*
X2685Y854D01*
X2716D01*
X2893D01*
X3039Y1001D01*
X3125D01*
X3110Y826D02*
X3131Y806D01*
X3130Y669D02*
X3131Y670D01*
X2256Y493D02*
Y685D01*
D53*
X3110Y982D02*
D03*
Y826D02*
D03*
Y514D02*
D03*
Y670D02*
D03*
X1537Y1102D02*
D03*
Y1258D02*
D03*
D54*
X1273Y492D02*
D03*
Y592D02*
D03*
Y692D02*
D03*
Y792D02*
D03*
X1373Y492D02*
D03*
Y592D02*
D03*
Y692D02*
D03*
Y792D02*
D03*
D55*
X3150Y1173D02*
D03*
Y150D02*
D03*
X866Y1173D02*
D03*
Y150D02*
D03*
D56*
X1684Y260D02*
D03*
X2570D02*
D03*
X2670Y989D02*
D03*
Y1245D02*
D03*
X2847Y989D02*
D03*
Y1245D02*
D03*
D57*
X382Y1197D02*
D03*
X283D02*
D03*
X480D02*
D03*
D58*
X2810Y267D02*
D03*
Y367D02*
D03*
D59*
X2525Y1201D02*
D03*
X2325D02*
D03*
X2425D02*
D03*
X2088Y1205D02*
D03*
X1888D02*
D03*
X1988D02*
D03*
D60*
X2668Y453D02*
D03*
X2676Y339D02*
D03*
X2074Y811D02*
D03*
X2256Y685D02*
D03*
D61*
X1201Y272D02*
D03*
X907Y510D02*
D03*
X1273Y369D02*
D03*
X1462Y970D02*
D03*
X2530Y609D02*
D03*
X1328Y125D02*
D03*
X366Y558D02*
D03*
X353Y986D02*
D03*
X343Y836D02*
D03*
X598Y824D02*
D03*
X1694Y482D02*
D03*
X1977Y233D02*
D03*
X1118Y1074D02*
D03*
X1282Y304D02*
D03*
X631Y618D02*
D03*
X138Y886D02*
D03*
X669Y787D02*
D03*
X1313Y1113D02*
D03*
X1157Y201D02*
D03*
X467Y640D02*
D03*
X1720Y657D02*
D03*
X961Y850D02*
D03*
D62*
X1374Y979D02*
D03*
D63*
X236Y580D02*
D03*
Y759D02*
D03*
D64*
X2431Y446D02*
D03*
Y702D02*
D03*
X2716Y598D02*
D03*
Y854D02*
D03*
D65*
X484Y1008D02*
D03*
X658D02*
D03*
D66*
X1028Y1011D02*
D03*
Y1061D02*
D03*
Y1111D02*
D03*
Y1161D02*
D03*
X1248Y1011D02*
D03*
Y1061D02*
D03*
Y1111D02*
D03*
Y1161D02*
D03*
D67*
X2181Y190D02*
D03*
X1819D02*
D03*
X2181Y290D02*
D03*
X1819D02*
D03*
X2169Y537D02*
D03*
X1807D02*
D03*
X2169Y637D02*
D03*
X1807D02*
D03*
D68*
X170Y1039D02*
D03*
X205Y969D02*
D03*
X240Y1039D02*
D03*
M02*
