G04*
G04 #@! TF.GenerationSoftware,Altium Limited,Altium Designer,21.6.1 (37)*
G04*
G04 Layer_Color=128*
%FSLAX23Y23*%
%MOIN*%
G70*
G04*
G04 #@! TF.SameCoordinates,0FF5D6F2-8617-485F-BAA8-9F26F2E2BD2E*
G04*
G04*
G04 #@! TF.FilePolarity,Positive*
G04*
G01*
G75*
%ADD19R,0.089X0.149*%
%ADD23R,0.028X0.051*%
%ADD24R,0.051X0.028*%
%ADD63R,0.126X0.140*%
%ADD64R,0.149X0.089*%
%ADD65R,0.085X0.108*%
%ADD66O,0.043X0.023*%
%ADD67O,0.051X0.049*%
%ADD68R,0.020X0.024*%
D19*
X551Y315D02*
D03*
X295D02*
D03*
D23*
X1071Y602D02*
D03*
X984D02*
D03*
X1539Y445D02*
D03*
X1626D02*
D03*
X2327Y1059D02*
D03*
X2240D02*
D03*
X570Y1242D02*
D03*
X656D02*
D03*
X1630Y618D02*
D03*
X1543D02*
D03*
D24*
X1291Y256D02*
D03*
Y169D02*
D03*
X1740Y1134D02*
D03*
Y1220D02*
D03*
D63*
X236Y580D02*
D03*
Y759D02*
D03*
D64*
X2431Y446D02*
D03*
Y702D02*
D03*
X2716Y598D02*
D03*
Y854D02*
D03*
D65*
X484Y1008D02*
D03*
X658D02*
D03*
D66*
X1028Y1011D02*
D03*
Y1061D02*
D03*
Y1111D02*
D03*
Y1161D02*
D03*
X1248Y1011D02*
D03*
Y1061D02*
D03*
Y1111D02*
D03*
Y1161D02*
D03*
D67*
X2181Y190D02*
D03*
X1819D02*
D03*
X2181Y290D02*
D03*
X1819D02*
D03*
X2169Y537D02*
D03*
X1807D02*
D03*
X2169Y637D02*
D03*
X1807D02*
D03*
D68*
X170Y1039D02*
D03*
X205Y969D02*
D03*
X240Y1039D02*
D03*
M02*
