G04*
G04 #@! TF.GenerationSoftware,Altium Limited,Altium Designer,21.6.1 (37)*
G04*
G04 Layer_Color=32896*
%FSLAX23Y23*%
%MOIN*%
G70*
G04*
G04 #@! TF.SameCoordinates,0FF5D6F2-8617-485F-BAA8-9F26F2E2BD2E*
G04*
G04*
G04 #@! TF.FilePolarity,Positive*
G04*
G01*
G75*
%ADD10C,0.015*%
%ADD11C,0.008*%
%ADD13C,0.004*%
%ADD15C,0.010*%
%ADD16R,0.048X0.256*%
%ADD76R,0.256X0.048*%
%ADD77R,0.039X0.157*%
D10*
X154Y1012D02*
G03*
X154Y1012I-4J0D01*
G01*
D11*
X2035Y315D02*
G03*
X2085Y315I25J0D01*
G01*
X2023Y662D02*
G03*
X2073Y662I25J0D01*
G01*
X154Y488D02*
X323D01*
X154Y850D02*
X323D01*
X154Y488D02*
Y850D01*
X323Y488D02*
Y850D01*
X2303Y391D02*
X2444D01*
X2303D02*
Y802D01*
X2559D01*
Y391D02*
Y802D01*
X2444Y391D02*
X2559D01*
X2588Y909D02*
X2703D01*
X2588Y498D02*
Y909D01*
Y498D02*
X2844D01*
Y909D01*
X2703D02*
X2844D01*
X606Y187D02*
Y328D01*
X195Y187D02*
X606D01*
X195D02*
Y443D01*
X606D01*
Y328D02*
Y443D01*
X414Y1015D02*
Y1087D01*
X758D01*
Y929D02*
Y1087D01*
X414Y929D02*
X758D01*
X414D02*
Y1015D01*
X1201Y425D02*
X1445D01*
Y858D01*
X1201D02*
X1445D01*
X1201Y425D02*
Y858D01*
X1284Y986D02*
Y1041D01*
X993Y986D02*
X1283D01*
X993Y1191D02*
X1284D01*
Y1141D02*
Y1191D01*
Y1041D02*
Y1141D01*
X993Y986D02*
Y1191D01*
X2215Y110D02*
Y360D01*
X1780Y110D02*
X2215D01*
X1780D02*
Y360D01*
X2215D01*
X2130Y135D02*
Y330D01*
X1860Y135D02*
X2130D01*
X1860D02*
Y330D01*
X2130D01*
X2035Y316D02*
Y330D01*
X2085Y316D02*
Y330D01*
X2203Y457D02*
Y707D01*
X1768Y457D02*
X2203D01*
X1768D02*
Y707D01*
X2203D01*
X2118Y482D02*
Y677D01*
X1848Y482D02*
X2118D01*
X1848D02*
Y677D01*
X2118D01*
X2023Y663D02*
Y677D01*
X2073Y663D02*
Y677D01*
X126Y945D02*
X284D01*
Y1063D01*
X126D02*
X284D01*
X126Y945D02*
Y1063D01*
D13*
X1004Y630D02*
X1051D01*
X1004Y575D02*
X1051D01*
X1559Y417D02*
X1606D01*
X1559Y472D02*
X1606D01*
X1264Y189D02*
Y236D01*
X1319Y189D02*
Y236D01*
X2260Y1087D02*
X2307D01*
X2260Y1031D02*
X2307D01*
X1768Y1154D02*
Y1201D01*
X1713Y1154D02*
Y1201D01*
X590Y1215D02*
X637D01*
X590Y1270D02*
X637D01*
X1563Y646D02*
X1610D01*
X1563Y591D02*
X1610D01*
D15*
X1278Y1284D02*
X1258D01*
X1268D01*
Y1224D01*
X1278D01*
X1258D01*
X1188Y1274D02*
X1198Y1284D01*
X1218D01*
X1228Y1274D01*
Y1234D01*
X1218Y1224D01*
X1198D01*
X1188Y1234D01*
X1128Y1224D02*
X1168D01*
X1128Y1264D01*
Y1274D01*
X1138Y1284D01*
X1158D01*
X1168Y1274D01*
X238Y1144D02*
X198D01*
X218D01*
Y1084D01*
X178D02*
X158D01*
X168D01*
Y1144D01*
X178Y1134D01*
X1134Y822D02*
X1144Y832D01*
X1164D01*
X1174Y822D01*
Y812D01*
X1164Y802D01*
X1144D01*
X1134Y792D01*
Y782D01*
X1144Y772D01*
X1164D01*
X1174Y782D01*
X1114Y832D02*
Y792D01*
X1094Y772D01*
X1074Y792D01*
Y832D01*
X1054Y772D02*
X1034D01*
X1044D01*
Y832D01*
X1054Y822D01*
X1686Y678D02*
Y738D01*
X1656D01*
X1646Y728D01*
Y708D01*
X1656Y698D01*
X1686D01*
X1666D02*
X1646Y678D01*
X1626D02*
X1606D01*
X1616D01*
Y738D01*
X1626Y728D01*
X1536Y738D02*
X1576D01*
Y708D01*
X1556Y718D01*
X1546D01*
X1536Y708D01*
Y688D01*
X1546Y678D01*
X1566D01*
X1576Y688D01*
X2387Y955D02*
Y1015D01*
X2357D01*
X2347Y1005D01*
Y985D01*
X2357Y975D01*
X2387D01*
X2367D02*
X2347Y955D01*
X2327D02*
X2307D01*
X2317D01*
Y1015D01*
X2327Y1005D01*
X2247Y955D02*
Y1015D01*
X2277Y985D01*
X2237D01*
X1855Y1045D02*
Y1105D01*
X1825D01*
X1816Y1095D01*
Y1075D01*
X1825Y1065D01*
X1855D01*
X1835D02*
X1816Y1045D01*
X1796D02*
X1776D01*
X1786D01*
Y1105D01*
X1796Y1095D01*
X1746D02*
X1736Y1105D01*
X1716D01*
X1706Y1095D01*
Y1085D01*
X1716Y1075D01*
X1726D01*
X1716D01*
X1706Y1065D01*
Y1055D01*
X1716Y1045D01*
X1736D01*
X1746Y1055D01*
X1514Y232D02*
Y292D01*
X1484D01*
X1474Y282D01*
Y262D01*
X1484Y252D01*
X1514D01*
X1494D02*
X1474Y232D01*
X1454D02*
X1434D01*
X1444D01*
Y292D01*
X1454Y282D01*
X1364Y232D02*
X1404D01*
X1364Y272D01*
Y282D01*
X1374Y292D01*
X1394D01*
X1404Y282D01*
X1091Y662D02*
Y722D01*
X1061D01*
X1051Y712D01*
Y692D01*
X1061Y682D01*
X1091D01*
X1071D02*
X1051Y662D01*
X1031D02*
X1011D01*
X1021D01*
Y722D01*
X1031Y712D01*
X981Y662D02*
X961D01*
X971D01*
Y722D01*
X981Y712D01*
X1578Y344D02*
Y404D01*
X1548D01*
X1538Y394D01*
Y374D01*
X1548Y364D01*
X1578D01*
X1558D02*
X1538Y344D01*
X1518Y354D02*
X1508Y344D01*
X1488D01*
X1478Y354D01*
Y394D01*
X1488Y404D01*
X1508D01*
X1518Y394D01*
Y384D01*
X1508Y374D01*
X1478D01*
X624Y1136D02*
Y1196D01*
X594D01*
X584Y1186D01*
Y1166D01*
X594Y1156D01*
X624D01*
X604D02*
X584Y1136D01*
X524Y1196D02*
X564D01*
Y1166D01*
X544Y1176D01*
X534D01*
X524Y1166D01*
Y1146D01*
X534Y1136D01*
X554D01*
X564Y1146D01*
X424Y577D02*
Y637D01*
X394D01*
X384Y627D01*
Y607D01*
X394Y597D01*
X424D01*
X404D02*
X384Y577D01*
X364D02*
X344D01*
X354D01*
Y637D01*
X364Y627D01*
X2053Y790D02*
X2033D01*
X2043D01*
Y730D01*
X2053D01*
X2033D01*
X1963Y780D02*
X1973Y790D01*
X1993D01*
X2003Y780D01*
Y740D01*
X1993Y730D01*
X1973D01*
X1963Y740D01*
X1913Y730D02*
Y790D01*
X1943Y760D01*
X1903D01*
X2367Y240D02*
X2347D01*
X2357D01*
Y180D01*
X2367D01*
X2347D01*
X2277Y230D02*
X2287Y240D01*
X2307D01*
X2317Y230D01*
Y190D01*
X2307Y180D01*
X2287D01*
X2277Y190D01*
X2257Y180D02*
X2237D01*
X2247D01*
Y240D01*
X2257Y230D01*
X604Y527D02*
Y467D01*
X574D01*
X564Y477D01*
Y517D01*
X574Y527D01*
X604D01*
X504D02*
X544D01*
Y497D01*
X524Y507D01*
X514D01*
X504Y497D01*
Y477D01*
X514Y467D01*
X534D01*
X544Y477D01*
X2961Y551D02*
Y491D01*
X2931D01*
X2921Y501D01*
Y541D01*
X2931Y551D01*
X2961D01*
X2871Y491D02*
Y551D01*
X2901Y521D01*
X2861D01*
X2442Y350D02*
Y290D01*
X2412D01*
X2402Y300D01*
Y340D01*
X2412Y350D01*
X2442D01*
X2382Y340D02*
X2372Y350D01*
X2352D01*
X2342Y340D01*
Y330D01*
X2352Y320D01*
X2362D01*
X2352D01*
X2342Y310D01*
Y300D01*
X2352Y290D01*
X2372D01*
X2382Y300D01*
X622Y906D02*
Y846D01*
X592D01*
X582Y856D01*
Y896D01*
X592Y906D01*
X622D01*
X522Y846D02*
X562D01*
X522Y886D01*
Y896D01*
X532Y906D01*
X552D01*
X562Y896D01*
D16*
X219Y315D02*
D03*
D76*
X2431Y778D02*
D03*
X2716Y522D02*
D03*
D77*
X739Y1008D02*
D03*
M02*
